SplineFontDB: 3.0
FontName: Sawasdee-Bold
FullName: Sawasdee Bold
FamilyName: Sawasdee
Weight: Bold
Copyright: Copyright (c) 2007 Pol Udomwittayanukul. All rights reserved.
Version: 002.007
ItalicAngle: 0
UnderlinePosition: -153
UnderlineWidth: 102
Ascent: 1536
Descent: 512
LayerCount: 2
Layer: 0 0 "Back"  1
Layer: 1 0 "Fore"  0
XUID: [1021 180 1442959360 14105406]
UniqueID: 4256560
FSType: 8
OS2Version: 4
OS2_WeightWidthSlopeOnly: 0
OS2_UseTypoMetrics: 1
CreationTime: 1178430034
ModificationTime: 1445767002
PfmFamily: 17
TTFWeight: 700
TTFWidth: 5
LineGap: 184
VLineGap: 0
OS2TypoAscent: 0
OS2TypoAOffset: 1
OS2TypoDescent: 0
OS2TypoDOffset: 1
OS2TypoLinegap: 184
OS2WinAscent: 0
OS2WinAOffset: 1
OS2WinDescent: 0
OS2WinDOffset: 1
HheadAscent: 4
HheadAOffset: 1
HheadDescent: 82
HheadDOffset: 1
OS2Vendor: 'PfEd'
Lookup: 4 0 1 "'liga' Standard Ligatures in Latin lookup 0"  {"'liga' Standard Ligatures in Latin lookup 0"  } ['liga' ('latn' <'dflt' > ) ]
Lookup: 4 0 0 "'frac' Diagonal Fractions in Latin lookup 42"  {"'frac' Diagonal Fractions in Latin lookup 42"  } ['frac' ('latn' <'dflt' > ) ]
Lookup: 6 0 0 "'ccmp' Thai Tone Tilde Reordering"  {"'ccmp' Thai Tone Tilde Reordering"  } ['ccmp' ('DFLT' <'dflt' > 'latn' <'dflt' > 'thai' <'KUY ' 'MLY ' 'PAL ' 'SAN ' 'THA ' 'dflt' > ) ]
Lookup: 6 0 0 "'ccmp' Thai Tone Macron Reordering"  {"'ccmp' Thai Tone Macron Reordering"  } ['ccmp' ('DFLT' <'dflt' > 'latn' <'dflt' > 'thai' <'KUY ' 'MLY ' 'PAL ' 'SAN ' 'THA ' 'dflt' > ) ]
Lookup: 6 0 0 "'ccmp' Thai Below Vowel Macron Reordering"  {"'ccmp' Thai Below Vowel Macron Reordering"  } ['ccmp' ('DFLT' <'dflt' > 'latn' <'dflt' > 'thai' <'KUY ' 'MLY ' 'PAL ' 'SAN ' 'THA ' 'dflt' > ) ]
Lookup: 4 0 0 "'ccmp' Patani Malay Ligatures"  {"'ccmp' Patani Malay Ligatures"  } ['ccmp' ('DFLT' <'dflt' > 'thai' <'KUY ' 'MLY ' 'PAL ' 'SAN ' 'THA ' 'dflt' > ) ]

StartChar: exclam
Encoding: 33 33 1
Width: 570
VWidth: 2982
Flags: W
HStem: -11 237<195.323 378.509>
VStem: 168 238<16.3232 198.916> 190 193<979.624 1489> 222 130<352 861.376>
LayerCount: 2
Fore
SplineSet
286 226 m 0xc0
 352 226 406 173 406 107 c 0
 406 43 352 -11 286 -11 c 0
 222 -11 168 43 168 107 c 0
 168 173 222 226 286 226 c 0xc0
352 352 m 1x90
 222 352 l 1x90
 190 1489 l 1
 383 1489 l 1xa0
 352 352 l 1x90
EndSplineSet
Validated: 1
EndChar

StartChar: quotedbl
Encoding: 34 34 2
Width: 762
VWidth: 2982
Flags: W
HStem: 1128 459<199 325 438 564>
VStem: 199 126<1128 1310.78> 438 126<1128 1310.78>
LayerCount: 2
Fore
SplineSet
325 1128 m 1
 199 1128 l 1
 164 1587 l 1
 361 1587 l 1
 325 1128 l 1
564 1128 m 1
 438 1128 l 1
 403 1587 l 1
 600 1587 l 1
 564 1128 l 1
EndSplineSet
Validated: 1
EndChar

StartChar: numbersign
Encoding: 35 35 3
Width: 1066
VWidth: 2982
Flags: W
HStem: -2 21G<58 231.128 477 645.128> 427 162<-36 171 372 587 788 1000> 904 162<64 282 487 698 904 1104> 1475 20G<426.779 598 842.918 1016>
DStem2: 58 -2 226 -2 0.242383 0.970181<40.7204 443.597 649.485 933.277 1140.14 1543.01> 477 -2 640 -2 0.243603 0.969875<39.7072 442.873 648.957 932.543 1139.84 1542.28>
LayerCount: 2
Fore
SplineSet
640 -2 m 1
 477 -2 l 1
 587 427 l 1
 336 427 l 1
 226 -2 l 1
 58 -2 l 1
 171 427 l 1
 -36 427 l 1
 -36 589 l 1
 208 589 l 1
 282 904 l 1
 64 904 l 1
 64 1066 l 1
 320 1066 l 1
 432 1495 l 1
 598 1495 l 1
 487 1066 l 1
 739 1066 l 1
 848 1495 l 1
 1016 1495 l 1
 904 1066 l 1
 1104 1066 l 1
 1104 904 l 1
 865 904 l 1
 788 589 l 1
 1000 589 l 1
 1000 427 l 1
 750 427 l 1
 640 -2 l 1
372 589 m 1
 622 589 l 1
 698 904 l 1
 446 904 l 1
 372 589 l 1
EndSplineSet
Validated: 1
EndChar

StartChar: dollar
Encoding: 36 36 4
Width: 1066
VWidth: 2982
Flags: W
HStem: -15 158<356.714 463 624 724.985> 1343 159<397.354 463 624 698.447>
VStem: 43 156<325.255 467.746> 158 160<1027.78 1267.52> 463 159<-137 -7.07672 143 716 955 1337 1493.61 1634> 873 161<287.576 573.729>
LayerCount: 2
Fore
SplineSet
43 466 m 1xec
 199 485 l 1xec
 220 346 265 184 463 143 c 1
 463 786 l 1
 329 846 158 933 158 1141 c 0xdc
 158 1316 280 1471 463 1502 c 1
 463 1634 l 1
 622 1634 l 1
 622 1502 l 1
 875 1450 940 1229 953 1191 c 1
 806 1139 l 1
 797 1164 761 1298 624 1343 c 1
 624 891 l 1
 810 814 1034 716 1034 448 c 0
 1034 203 846 32 624 -4 c 1
 624 -137 l 1
 463 -137 l 1
 463 -15 l 1
 271 11 87 134 43 466 c 1xec
622 716 m 1
 622 143 l 1
 761 177 873 284 873 440 c 0
 873 587 765 654 622 716 c 1
463 955 m 1
 463 1337 l 1
 374 1309 318 1231 318 1137 c 0xdc
 318 1053 374 1003 463 955 c 1
EndSplineSet
Validated: 1
EndChar

StartChar: percent
Encoding: 37 37 5
Width: 1452
VWidth: 2982
Flags: W
HStem: -17 156<985.153 1208.41> 0 21G<94 300.575> 453 156<985.153 1208.41> 882 156<259.898 483.371> 1352 156<259.898 483.371> 1473 20G<1167.43 1374>
VStem: 49 159<1087.84 1303.95> 534 160<1087.84 1303.95> 775 158<193.203 402.163> 1260 159<188.226 403.546>
DStem2: 94 0 286 0 0.588944 0.808174<113.077 1847.37>
LayerCount: 2
Fore
SplineSet
1419 295 m 0xb3c0
 1419 124 1273 -17 1097 -17 c 0
 920 -17 775 124 775 295 c 0
 775 468 920 609 1097 609 c 0
 1273 609 1419 468 1419 295 c 0xb3c0
933 295 m 0
 933 211 1006 139 1097 139 c 0
 1188 139 1260 211 1260 295 c 0
 1260 383 1188 453 1097 453 c 0
 1006 453 933 383 933 295 c 0
694 1196 m 0
 694 1023 549 882 372 882 c 0
 195 882 49 1023 49 1196 c 0
 49 1370 195 1508 372 1508 c 0x3bc0
 549 1508 694 1370 694 1196 c 0
208 1196 m 0
 208 1110 280 1038 372 1038 c 0
 463 1038 534 1110 534 1196 c 0
 534 1283 463 1352 372 1352 c 0
 280 1352 208 1283 208 1196 c 0
1182 1493 m 1x77c0
 1374 1493 l 1
 286 0 l 1
 94 0 l 1
 1182 1493 l 1x77c0
EndSplineSet
Validated: 1
EndChar

StartChar: ampersand
Encoding: 38 38 6
Width: 1501
VWidth: 2982
Flags: W
HStem: -17 151<510.556 899.772> 0 21G<1181.23 1390> 1356 152<609.225 869.194>
VStem: 114 159<364.657 721.042> 408 156<1066.44 1309.47> 925 158<1132 1300.32> 1126 164<393.112 575>
DStem2: 622 1045 524 914 0.592199 -0.805792<40.8285 810.059 1020.37 1181.97>
LayerCount: 2
Fore
SplineSet
1126 575 m 1xbe
 1290 575 l 1
 1290 542 l 2
 1290 434 1258 336 1204 250 c 1
 1390 0 l 1
 1196 0 l 1x7e
 1100 130 l 1
 994 38 855 -17 703 -17 c 0
 380 -17 114 233 114 544 c 0
 114 765 248 955 440 1047 c 1
 419 1102 408 1155 408 1204 c 0
 408 1386 553 1508 741 1508 c 0
 918 1508 1083 1395 1083 1168 c 2
 1083 1132 l 1
 925 1132 l 1
 925 1168 l 2
 925 1318 820 1356 741 1356 c 0
 632 1356 564 1296 564 1204 c 0
 564 1162 579 1108 622 1045 c 1
 1100 391 l 1
 1119 436 1126 485 1126 542 c 2
 1126 575 l 1xbe
1008 252 m 1
 524 914 l 1
 374 848 273 705 273 542 c 0
 273 318 463 134 703 134 c 0xbe
 822 134 931 181 1008 252 c 1
EndSplineSet
Validated: 1
EndChar

StartChar: quoteright
Encoding: 8217 8217 7
Width: 476
VWidth: 2982
Flags: W
HStem: 1288 237<134.556 232.129>
VStem: 107 262<1316.87 1483.58>
LayerCount: 2
Fore
SplineSet
233 1288 m 1
 172 1288 107 1334 107 1406 c 0
 107 1471 161 1525 226 1525 c 0
 291 1525 369 1476 369 1367 c 0
 369 1182 211 1068 208 1066 c 2
 188 1059 l 1
 40 1059 l 1
 126 1124 l 2
 173 1160 215 1231 233 1288 c 1
EndSplineSet
Validated: 1
EndChar

StartChar: parenleft
Encoding: 40 40 8
Width: 521
VWidth: 2982
Flags: W
VStem: 38 173<272.888 1086.2>
LayerCount: 2
Fore
SplineSet
38 683 m 0
 38 1053 145 1350 282 1610 c 1
 427 1610 l 1
 302 1327 211 1045 211 669 c 0
 211 280 314 -27 434 -305 c 1
 289 -305 l 1
 156 -36 38 286 38 683 c 0
EndSplineSet
Validated: 1
EndChar

StartChar: parenright
Encoding: 41 41 9
Width: 521
VWidth: 2982
Flags: W
VStem: 312 171<279.234 1080.18>
LayerCount: 2
Fore
SplineSet
483 683 m 0
 483 286 361 -43 235 -305 c 1
 90 -305 l 1
 205 -34 312 280 312 669 c 0
 312 1045 215 1335 94 1610 c 1
 239 1610 l 1
 376 1352 483 1053 483 683 c 0
EndSplineSet
Validated: 1
EndChar

StartChar: asterisk
Encoding: 42 42 10
Width: 982
VWidth: 2982
Flags: W
HStem: 1173 629
VStem: 410 165<1602 1802>
DStem2: 235 1265 367 1173 0.560848 0.827919<0 222.523> 624 1450 493 1359 0.557786 -0.829985<2.45872 223.828>
LayerCount: 2
Fore
SplineSet
410 1802 m 1
 575 1802 l 1
 575 1602 l 1
 788 1654 l 1
 826 1497 l 1
 624 1450 l 1
 750 1265 l 1
 618 1173 l 1
 493 1359 l 1
 367 1173 l 1
 235 1265 l 1
 359 1450 l 1
 158 1497 l 1
 197 1654 l 1
 410 1602 l 1
 410 1802 l 1
EndSplineSet
Validated: 1
EndChar

StartChar: plus
Encoding: 43 43 11
Width: 935
VWidth: 2982
Flags: W
HStem: 665 161<36 387 549 902>
VStem: 387 162<314 665 826 1179>
LayerCount: 2
Fore
SplineSet
549 314 m 1
 387 314 l 1
 387 665 l 1
 36 665 l 1
 36 826 l 1
 387 826 l 1
 387 1179 l 1
 549 1179 l 1
 549 826 l 1
 902 826 l 1
 902 665 l 1
 549 665 l 1
 549 314 l 1
EndSplineSet
Validated: 1
EndChar

StartChar: comma
Encoding: 44 44 12
Width: 570
VWidth: 2982
Flags: W
HStem: -242 466
VStem: 286 144<-100.912 -15>
LayerCount: 2
Fore
SplineSet
248 -242 m 1
 130 -242 l 1
 203 -184 286 -79 286 -15 c 1
 222 -13 168 38 168 105 c 0
 168 171 222 224 286 224 c 0
 356 224 430 171 430 64 c 0
 430 -148 248 -242 248 -242 c 1
EndSplineSet
Validated: 1
EndChar

StartChar: hyphen
Encoding: 45 45 13
Width: 899
VWidth: 2982
Flags: W
HStem: 517 162<107 795>
LayerCount: 2
Fore
SplineSet
795 679 m 1
 795 517 l 1
 107 517 l 1
 107 679 l 1
 795 679 l 1
EndSplineSet
Validated: 1
EndChar

StartChar: period
Encoding: 46 46 14
Width: 570
VWidth: 2982
Flags: W
HStem: -11 237<195.323 378.509>
VStem: 168 238<16.3232 198.916>
LayerCount: 2
Fore
SplineSet
286 226 m 0
 352 226 406 173 406 107 c 0
 406 43 352 -11 286 -11 c 0
 222 -11 168 43 168 107 c 0
 168 173 222 226 286 226 c 0
EndSplineSet
Validated: 1
EndChar

StartChar: slash
Encoding: 47 47 15
Width: 1168
VWidth: 2982
Flags: W
DStem2: -69 -36 130 -36 0.57887 0.81542<115.195 1918.68>
LayerCount: 2
Fore
SplineSet
1041 1529 m 1
 1241 1529 l 1
 130 -36 l 1
 -69 -36 l 1
 1041 1529 l 1
EndSplineSet
Validated: 1
EndChar

StartChar: zero
Encoding: 48 48 16
Width: 1179
VWidth: 2877
Flags: W
HStem: -13 152<470.227 723.83> 1352 154<471.282 724.252>
VStem: 77 158<457.194 1027.58> 961 156<462.972 1026.7>
LayerCount: 2
Fore
SplineSet
598 -13 m 0
 284 -13 77 349 77 745 c 0
 77 1141 284 1506 598 1506 c 0
 908 1506 1117 1141 1117 745 c 0
 1117 349 908 -13 598 -13 c 0
235 745 m 0
 235 378 425 139 598 139 c 0
 765 139 961 374 961 745 c 0
 961 1113 767 1352 598 1352 c 0
 430 1352 235 1117 235 745 c 0
EndSplineSet
Validated: 1
EndChar

StartChar: one
Encoding: 49 49 17
Width: 1177
VWidth: 2880
Flags: W
HStem: 0 21G<513 673> 1486 20G<638.505 673>
VStem: 513 160<0 1233>
LayerCount: 2
Fore
SplineSet
513 1233 m 1
 378 1155 l 1
 297 1288 l 1
 673 1506 l 1
 673 0 l 1
 513 0 l 1
 513 1233 l 1
EndSplineSet
Validated: 1
EndChar

StartChar: two
Encoding: 50 50 18
Width: 1177
VWidth: 2877
Flags: W
HStem: 0 154<242 1100> 1354 152<449.108 746.463>
VStem: 137 158<985 1186.21> 900 157<886.217 1191.3>
LayerCount: 2
Fore
SplineSet
1100 0 m 1
 77 0 l 1
 77 74 l 2
 77 585 900 662 900 1021 c 0
 900 1211 759 1354 600 1354 c 0
 436 1354 295 1211 295 1021 c 2
 295 985 l 1
 137 985 l 1
 137 1021 l 2
 137 1285 338 1506 598 1506 c 0
 855 1506 1057 1285 1057 1021 c 0
 1057 581 338 483 242 154 c 1
 1100 154 l 1
 1100 0 l 1
EndSplineSet
Validated: 1
EndChar

StartChar: three
Encoding: 51 51 19
Width: 1179
VWidth: 2877
Flags: W
HStem: -13 152<439.867 763.236> 777 154<564 741.072> 1352 154<464.961 734.717>
VStem: 111 162<307.104 493> 213 159<1100 1261.57> 828 157<1010.71 1262.71> 927 156<303.796 616.679>
LayerCount: 2
Fore
SplineSet
111 493 m 1xf2
 273 493 l 1
 273 459 l 2
 273 284 421 139 600 139 c 0
 779 139 927 284 927 459 c 0xf2
 927 634 779 777 600 777 c 2
 564 777 l 1
 564 931 l 1
 600 931 l 2
 726 931 828 1012 828 1132 c 0
 828 1254 728 1352 600 1352 c 0
 472 1352 372 1254 372 1132 c 2
 372 1100 l 1
 213 1100 l 1
 213 1132 l 2
 213 1341 387 1506 600 1506 c 0
 812 1506 985 1341 985 1132 c 0xec
 985 1021 933 925 853 859 c 1
 989 777 1083 626 1083 459 c 0
 1083 197 865 -13 598 -13 c 0
 329 -13 111 197 111 459 c 2
 111 493 l 1xf2
EndSplineSet
Validated: 1
EndChar

StartChar: four
Encoding: 52 52 20
Width: 1177
VWidth: 2880
Flags: W
HStem: 2 21G<803 961> 267 154<258 803 961 1083>
VStem: 803 158<2 267 421 1119>
DStem2: -60 267 258 421 0.61444 0.788963<316.892 1202.46>
LayerCount: 2
Fore
SplineSet
803 421 m 1
 803 1119 l 1
 258 421 l 1
 803 421 l 1
961 2 m 1
 803 2 l 1
 803 267 l 1
 -60 267 l 1
 961 1578 l 1
 961 421 l 1
 1135 421 l 1
 1083 267 l 1
 961 267 l 1
 961 2 l 1
EndSplineSet
Validated: 1
EndChar

StartChar: five
Encoding: 53 53 21
Width: 1177
VWidth: 2877
Flags: W
HStem: -17 154<425.174 755.737> 933 148<429.061 755.737> 1339 154<320 936>
VStem: 963 158<347.828 718.824>
DStem2: 226 491 74 450 0.168296 -0.985736<0 212.248> 105 712 289 980 0.0867397 0.996231<282.95 643.286>
LayerCount: 2
Fore
SplineSet
593 933 m 0
 461 933 340 857 262 712 c 1
 105 712 l 1
 173 1493 l 1
 987 1493 l 1
 936 1339 l 1
 320 1339 l 1
 289 980 l 1
 374 1043 477 1081 593 1081 c 0
 891 1081 1121 831 1121 532 c 0
 1121 233 891 -17 593 -17 c 0
 327 -17 111 190 74 450 c 1
 67 491 l 1
 226 491 l 1
 231 461 l 1
 265 273 416 137 593 137 c 0
 792 137 963 309 963 534 c 0
 963 761 792 933 593 933 c 0
EndSplineSet
Validated: 1
EndChar

StartChar: six
Encoding: 54 54 22
Width: 1177
VWidth: 2877
Flags: W
HStem: -15 152<431.485 755.737> 940 150<509.602 755.737> 1475 20G<425 792>
VStem: 67 159<355.069 727.222> 963 158<355.069 726.376>
LayerCount: 2
Fore
SplineSet
963 542 m 0
 963 765 792 940 593 940 c 0
 396 940 226 765 226 542 c 0
 226 316 396 137 593 137 c 0
 792 137 963 316 963 542 c 0
67 542 m 0
 67 833 248 983 602 1495 c 1
 792 1495 l 1
 506 1083 l 1
 534 1088 564 1090 593 1090 c 0
 891 1090 1121 839 1121 542 c 0
 1121 242 891 -15 593 -15 c 0
 297 -15 67 242 67 542 c 0
EndSplineSet
Validated: 1
EndChar

StartChar: seven
Encoding: 55 55 23
Width: 1179
VWidth: 2877
Flags: W
HStem: 0 21G<346 530.216> 1339 154<148 965>
DStem2: 346 0 521 0 0.418518 0.908208<73.2407 1475.15>
LayerCount: 2
Fore
SplineSet
148 1493 m 1
 1209 1493 l 1
 521 0 l 1
 346 0 l 1
 965 1339 l 1
 96 1339 l 1
 148 1493 l 1
EndSplineSet
Validated: 1
EndChar

StartChar: eight
Encoding: 56 56 24
Width: 1179
VWidth: 2877
Flags: W
HStem: -13 152<438.615 756.639> 777 154<463.766 731.287> 1352 154<464.274 729.72>
VStem: 111 158<303.796 614.957> 213 159<1016.94 1262.79> 822 158<1016.94 1262.79> 925 158<303.796 614.957>
LayerCount: 2
Fore
SplineSet
980 1141 m 0xec
 980 1030 927 931 846 865 c 1
 987 781 1083 632 1083 459 c 0
 1083 197 865 -13 598 -13 c 0
 329 -13 111 197 111 459 c 0xf2
 111 632 205 781 349 865 c 1
 267 931 213 1030 213 1141 c 0
 213 1345 387 1506 598 1506 c 0
 806 1506 980 1345 980 1141 c 0xec
269 459 m 0
 269 284 419 139 598 139 c 0
 777 139 925 284 925 459 c 0
 925 634 777 777 598 777 c 0
 419 777 269 634 269 459 c 0
598 931 m 0
 720 931 822 1027 822 1141 c 0
 822 1256 720 1352 598 1352 c 0
 472 1352 372 1256 372 1141 c 0xec
 372 1027 472 931 598 931 c 0
EndSplineSet
Validated: 1
EndChar

StartChar: nine
Encoding: 57 57 25
Width: 1177
VWidth: 2877
Flags: W
HStem: 0 21G<396 762.5> 406 149<431.485 677.312> 1354 150<431.485 755.737>
VStem: 67 159<768.685 1139.34> 963 158<767.841 1139.34>
LayerCount: 2
Fore
SplineSet
226 953 m 0
 226 730 396 555 593 555 c 0
 792 555 963 730 963 953 c 0
 963 1179 792 1354 593 1354 c 0
 396 1354 226 1179 226 953 c 0
1121 953 m 0
 1121 662 938 513 587 0 c 1
 396 0 l 1
 681 412 l 1
 654 408 622 406 593 406 c 0
 297 406 67 656 67 953 c 0
 67 1254 297 1504 593 1504 c 0
 891 1504 1121 1254 1121 953 c 0
EndSplineSet
Validated: 1
EndChar

StartChar: colon
Encoding: 58 58 26
Width: 570
VWidth: 2982
Flags: W
HStem: -11 237<195.323 378.509> 790 240<195.323 378.509>
VStem: 168 238<16.3232 198.916 817.658 1002.68>
LayerCount: 2
Fore
SplineSet
286 226 m 0
 352 226 406 173 406 107 c 0
 406 43 352 -11 286 -11 c 0
 222 -11 168 43 168 107 c 0
 168 173 222 226 286 226 c 0
286 1030 m 0
 352 1030 406 976 406 912 c 0
 406 844 352 790 286 790 c 0
 222 790 168 844 168 912 c 0
 168 976 222 1030 286 1030 c 0
EndSplineSet
Validated: 1
EndChar

StartChar: semicolon
Encoding: 59 59 27
Width: 570
VWidth: 2982
Flags: W
HStem: 790 240<195.323 378.509>
VStem: 168 238<817.658 1002.68> 286 144<-100.912 -15>
LayerCount: 2
Fore
SplineSet
286 1030 m 0xa0
 352 1030 406 976 406 912 c 0xc0
 406 844 352 790 286 790 c 0xa0
 222 790 168 844 168 912 c 0xc0
 168 976 222 1030 286 1030 c 0xa0
286 224 m 0xa0
 356 224 430 171 430 64 c 0
 430 -148 248 -242 248 -242 c 1
 130 -242 l 1
 203 -184 286 -79 286 -15 c 1xa0
 222 -13 168 38 168 105 c 0xc0
 168 171 222 224 286 224 c 0xa0
EndSplineSet
Validated: 1
EndChar

StartChar: less
Encoding: 60 60 28
Width: 1179
VWidth: 2982
Flags: W
HStem: -2 21G<822.196 1166>
DStem2: -34 540 278 540 0.8534 0.521256<266.261 1041.71> 278 540 -34 540 0.853827 -0.520556<0 774.8>
LayerCount: 2
Fore
SplineSet
1166 -2 m 1
 855 -2 l 1
 -34 540 l 1
 855 1083 l 1
 1166 1083 l 1
 278 540 l 1
 1166 -2 l 1
EndSplineSet
Validated: 1
EndChar

StartChar: equal
Encoding: 61 61 29
Width: 1078
VWidth: 2982
Flags: W
HStem: 396 161<107 974> 696 161<107 974>
LayerCount: 2
Fore
SplineSet
974 857 m 1
 974 696 l 1
 107 696 l 1
 107 857 l 1
 974 857 l 1
974 557 m 1
 974 396 l 1
 107 396 l 1
 107 557 l 1
 974 557 l 1
EndSplineSet
Validated: 1
EndChar

StartChar: greater
Encoding: 62 62 30
Width: 1179
VWidth: 2982
Flags: W
HStem: -2 21G<15 359.768>
DStem2: 327 1083 15 1083 0.8534 -0.521256<0 775.454> 15 -2 327 -2 0.853827 0.520556<266.394 1041.19>
LayerCount: 2
Fore
SplineSet
327 -2 m 1
 15 -2 l 1
 904 540 l 1
 15 1083 l 1
 327 1083 l 1
 1215 540 l 1
 327 -2 l 1
EndSplineSet
Validated: 1
EndChar

StartChar: question
Encoding: 63 63 31
Width: 1183
VWidth: 2982
Flags: W
HStem: -13 226<479.453 662.547> 1352 154<458.588 769.864>
VStem: 177 156<1079 1227.25> 455 232<10.4598 188.314> 495 159<322 617.753> 867 156<1011.11 1254.36>
LayerCount: 2
Fore
SplineSet
571 213 m 0xf4
 636 213 687 161 687 98 c 0
 687 36 636 -13 571 -13 c 0
 506 -13 455 36 455 98 c 0
 455 161 506 213 571 213 c 0xf4
654 322 m 1xec
 495 322 l 1
 495 470 l 2
 495 818 867 942 867 1113 c 0
 867 1258 759 1352 620 1352 c 0
 448 1352 333 1222 333 1113 c 2
 333 1079 l 1
 177 1079 l 1
 177 1113 l 2
 177 1323 376 1506 620 1506 c 0
 850 1506 1023 1339 1023 1113 c 0
 1023 848 654 745 654 470 c 2
 654 322 l 1xec
EndSplineSet
Validated: 1
EndChar

StartChar: at
Encoding: 64 64 32
Width: 2052
VWidth: 2982
Flags: W
HStem: -470 152<804.193 1278.8> -13 156<715.302 1019.24 1514.69 1693.68> 897 156<933.685 1241.95> 1352 156<804.193 1270.02>
VStem: 126 160<248.284 787.506> 463 163<233.661 572.132> 1327 119<465.312 602.25> 1790 158<269.684 803.008>
LayerCount: 2
Fore
SplineSet
1433 1041 m 1
 1598 1041 l 1
 1471 521 l 1
 1464 502 1446 440 1446 380 c 0
 1446 220 1542 141 1605 141 c 0
 1679 141 1790 242 1790 540 c 0
 1790 996 1442 1352 1038 1352 c 0
 632 1352 286 985 286 517 c 0
 286 47 632 -318 1038 -318 c 0
 1196 -318 1312 -269 1431 -197 c 1
 1513 -327 l 1
 1370 -414 1229 -470 1038 -470 c 0
 528 -470 126 -20 126 519 c 0
 126 1059 528 1508 1038 1508 c 0
 1540 1508 1948 1068 1948 540 c 0
 1948 109 1743 -15 1605 -15 c 0
 1471 -15 1361 85 1312 224 c 1
 1196 87 1027 -13 848 -13 c 0
 618 -13 463 154 463 385 c 0
 463 724 781 1053 1097 1053 c 0
 1229 1053 1332 998 1399 912 c 1
 1433 1041 l 1
1104 897 m 0
 873 897 626 636 626 387 c 0
 626 244 709 143 850 143 c 0
 1074 143 1327 396 1327 654 c 0
 1327 797 1245 897 1104 897 c 0
EndSplineSet
Validated: 1
EndChar

StartChar: A
Encoding: 65 65 33
Width: 1380
VWidth: 2880
Flags: W
HStem: 2 21G<25 203.371 1179.49 1359> 444 154<453 938> 1488 20G<683.142 700.858>
DStem2: 25 2 195 2 0.404955 0.914337<68.8424 547.896 718.265 1284> 692 1508 694 1110 0.404955 -0.914337<364.716 364.716 1097.58 1577.85>
LayerCount: 2
Fore
SplineSet
453 598 m 1
 938 598 l 1
 694 1110 l 1
 453 598 l 1
380 444 m 1
 195 2 l 1
 25 2 l 1
 692 1508 l 1
 1359 2 l 1
 1188 2 l 1
 1000 444 l 1
 380 444 l 1
EndSplineSet
Validated: 1
EndChar

StartChar: B
Encoding: 66 66 34
Width: 1293
VWidth: 2877
Flags: W
HStem: 0 154<302 876.877> 750 152<302 824.268> 1339 154<302 820.473>
VStem: 143 159<154 750 902 1339> 929 161<997.926 1237.73> 1041 159<311.736 596.209>
LayerCount: 2
Fore
SplineSet
302 154 m 1xf4
 694 154 l 2
 893 154 1041 295 1041 453 c 0
 1041 611 893 750 694 750 c 2
 302 750 l 1
 302 154 l 1xf4
929 1117 m 2xf8
 929 1119 l 2
 929 1231 822 1339 675 1339 c 2
 302 1339 l 1
 302 902 l 1
 675 902 l 2
 824 902 929 1006 929 1117 c 2xf8
681 1493 m 2
 904 1493 1090 1325 1090 1117 c 0xf8
 1090 1006 1036 906 951 839 c 1
 1100 763 1200 620 1200 453 c 0xf4
 1200 197 967 0 694 0 c 2
 143 0 l 1
 143 1493 l 1
 681 1493 l 2
EndSplineSet
Validated: 1
EndChar

StartChar: C
Encoding: 67 67 35
Width: 1617
VWidth: 2877
Flags: W
HStem: -13 150<647.763 1105.68> 1350 156<647.763 1105.16>
VStem: 98 160<520.288 968.724>
LayerCount: 2
Fore
SplineSet
1395 408 m 1
 1523 325 l 1
 1354 101 1135 -13 878 -13 c 0
 448 -13 98 325 98 745 c 0
 98 1166 448 1506 878 1506 c 0
 1265 1506 1464 1249 1523 1168 c 1
 1397 1077 l 1
 1348 1139 1188 1350 878 1350 c 0
 532 1350 258 1079 258 743 c 0
 258 410 532 137 878 137 c 0
 1186 137 1348 344 1395 408 c 1
EndSplineSet
Validated: 1
EndChar

StartChar: D
Encoding: 68 68 36
Width: 1346
VWidth: 2877
Flags: W
HStem: 0 154<302 701.991> 1339 154<302 701.991>
VStem: 143 159<154 1339> 1094 157<522.93 968.221>
LayerCount: 2
Fore
SplineSet
302 154 m 1
 474 154 l 2
 818 154 1094 412 1094 745 c 0
 1094 1081 818 1339 474 1339 c 2
 302 1339 l 1
 302 154 l 1
143 0 m 1
 143 1493 l 1
 474 1493 l 2
 902 1493 1251 1166 1251 745 c 0
 1251 325 902 0 474 0 c 2
 143 0 l 1
EndSplineSet
Validated: 1
EndChar

StartChar: E
Encoding: 69 69 37
Width: 1158
VWidth: 2877
Flags: W
HStem: 0 154<302 1061> 784 154<302 1003> 1339 154<302 1066>
VStem: 143 159<154 784 938 1339>
LayerCount: 2
Fore
SplineSet
1003 938 m 1
 1003 784 l 1
 302 784 l 1
 302 154 l 1
 1061 154 l 1
 1061 0 l 1
 143 0 l 1
 143 1493 l 1
 1066 1493 l 1
 1066 1339 l 1
 302 1339 l 1
 302 938 l 1
 1003 938 l 1
EndSplineSet
Validated: 1
EndChar

StartChar: F
Encoding: 70 70 38
Width: 1158
VWidth: 2877
Flags: W
HStem: 0 21G<143 302> 784 154<302 1003> 1339 154<302 1066>
VStem: 143 159<0 784 938 1339>
LayerCount: 2
Fore
SplineSet
1003 938 m 1
 1003 784 l 1
 302 784 l 1
 302 0 l 1
 143 0 l 1
 143 1493 l 1
 1066 1493 l 1
 1066 1339 l 1
 302 1339 l 1
 302 938 l 1
 1003 938 l 1
EndSplineSet
Validated: 1
EndChar

StartChar: G
Encoding: 71 71 39
Width: 1749
VWidth: 2877
Flags: W
HStem: -13 152<647.763 1104.96> 669 155<842 1491> 1352 154<647.763 1103.1>
VStem: 98 160<521.288 969.724>
LayerCount: 2
Fore
SplineSet
1523 1173 m 1
 1397 1079 l 1
 1348 1141 1188 1352 878 1352 c 0
 532 1352 258 1081 258 745 c 0
 258 412 532 139 878 139 c 0
 1194 139 1453 372 1491 669 c 1
 842 669 l 1
 842 824 l 1
 1654 824 l 1
 1654 745 l 2
 1654 325 1305 -13 878 -13 c 0
 448 -13 98 325 98 745 c 0
 98 1166 448 1506 878 1506 c 0
 1285 1506 1491 1213 1523 1173 c 1
EndSplineSet
Validated: 1
EndChar

StartChar: H
Encoding: 72 72 40
Width: 1393
VWidth: 2877
Flags: W
HStem: 0 21G<143 302 1097 1256> 784 154<302 1097> 1473 20G<143 302 1097 1256>
VStem: 143 159<0 784 938 1493> 1097 159<0 784 938 1493>
LayerCount: 2
Fore
SplineSet
1097 1493 m 1
 1256 1493 l 1
 1256 0 l 1
 1097 0 l 1
 1097 784 l 1
 302 784 l 1
 302 0 l 1
 143 0 l 1
 143 1493 l 1
 302 1493 l 1
 302 938 l 1
 1097 938 l 1
 1097 1493 l 1
EndSplineSet
Validated: 1
EndChar

StartChar: I
Encoding: 73 73 41
Width: 440
VWidth: 2877
Flags: W
HStem: 0 21G<143 302> 1473 20G<143 302>
VStem: 143 159<0 1493>
LayerCount: 2
Fore
SplineSet
302 0 m 1
 143 0 l 1
 143 1493 l 1
 302 1493 l 1
 302 0 l 1
EndSplineSet
Validated: 1
EndChar

StartChar: J
Encoding: 74 74 42
Width: 1027
VWidth: 2877
Flags: W
HStem: -15 154<364.589 624.77> 1473 20G<737 889>
VStem: 98 160<253.111 438> 737 152<253.111 1493>
LayerCount: 2
Fore
SplineSet
737 1493 m 1
 889 1493 l 1
 889 403 l 2
 889 177 716 -15 493 -15 c 0
 269 -15 98 177 98 403 c 2
 98 438 l 1
 258 438 l 1
 258 403 l 2
 258 252 369 139 497 139 c 0
 622 139 737 252 737 403 c 2
 737 1493 l 1
EndSplineSet
Validated: 1
EndChar

StartChar: K
Encoding: 75 75 43
Width: 1219
VWidth: 2877
Flags: W
HStem: 0 21G<143 302 983.981 1200> 1473 20G<143 302 910.544 1171>
VStem: 143 159<0 724 931 1493>
DStem2: 302 931 419 826 0.748881 0.662704<0 18.0352 170.917 844.984> 532 929 419 826 0.583798 -0.811899<17.6564 1026.3>
LayerCount: 2
Fore
SplineSet
143 1493 m 1
 302 1493 l 1
 302 931 l 1
 933 1493 l 1
 1171 1493 l 1
 532 929 l 1
 1200 0 l 1
 998 0 l 1
 419 826 l 1
 302 724 l 1
 302 0 l 1
 143 0 l 1
 143 1493 l 1
EndSplineSet
Validated: 1
EndChar

StartChar: L
Encoding: 76 76 44
Width: 1158
VWidth: 2877
Flags: W
HStem: 0 154<302 1066> 1473 20G<143 302>
VStem: 143 159<154 1493>
LayerCount: 2
Fore
SplineSet
1066 0 m 1
 143 0 l 1
 143 1493 l 1
 302 1493 l 1
 302 154 l 1
 1066 154 l 1
 1066 0 l 1
EndSplineSet
Validated: 1
EndChar

StartChar: M
Encoding: 77 77 45
Width: 1758
VWidth: 2880
Flags: W
HStem: 0 21G<25 183.303 865.192 885.071 1571.86 1737> 1486 20G<328.91 342.716 1427.11 1440.98>
DStem2: 25 0 179 0 0.200368 0.979721<30.8566 1029.14> 333 1506 389 976 0.436959 -0.899481<501.195 1251.83> 880 380 875 -15 0.443389 0.89633<0 753.246> 1437 1506 1374 976 0.195365 -0.980731<507.479 1504.14>
LayerCount: 2
Fore
SplineSet
179 0 m 1
 25 0 l 1
 333 1506 l 1
 880 380 l 1
 1437 1506 l 1
 1737 0 l 1
 1576 0 l 1
 1374 976 l 1
 875 -15 l 1
 389 976 l 1
 179 0 l 1
EndSplineSet
Validated: 1
EndChar

StartChar: N
Encoding: 78 78 46
Width: 1671
VWidth: 2877
Flags: W
HStem: 0 21G<143 302 1511.5 1533> 1488 5G<143 164.502 1374 1533>
VStem: 143 159<0 1128> 1374 159<363 1493>
DStem2: 143 1508 302 1128 0.732221 -0.681067<375.229 1681.19>
LayerCount: 2
Fore
SplineSet
143 0 m 1
 143 1508 l 1
 1374 363 l 1
 1374 1493 l 1
 1533 1493 l 1
 1533 -17 l 1
 302 1128 l 1
 302 0 l 1
 143 0 l 1
EndSplineSet
Validated: 1
EndChar

StartChar: O
Encoding: 79 79 47
Width: 1749
VWidth: 2877
Flags: W
HStem: -13 152<647.763 1106.6> 1352 154<647.763 1106.6>
VStem: 98 160<521.288 969.724> 1497 157<521.288 969.724>
LayerCount: 2
Fore
SplineSet
1654 745 m 0
 1654 325 1305 -13 878 -13 c 0
 448 -13 98 325 98 745 c 0
 98 1166 448 1506 878 1506 c 0
 1305 1506 1654 1166 1654 745 c 0
258 745 m 0
 258 412 532 139 878 139 c 0
 1220 139 1497 412 1497 745 c 0
 1497 1081 1220 1352 878 1352 c 0
 532 1352 258 1081 258 745 c 0
EndSplineSet
Validated: 1
EndChar

StartChar: P
Encoding: 80 80 48
Width: 1205
VWidth: 2877
Flags: W
HStem: 0 21G<143 302> 667 157<302 834.009> 1339 154<302 831.479>
VStem: 143 159<0 667 824 1339> 951 159<936.716 1222.64>
LayerCount: 2
Fore
SplineSet
143 0 m 1
 143 1493 l 1
 698 1493 l 2
 929 1493 1110 1305 1110 1079 c 0
 1110 853 929 667 703 667 c 2
 302 667 l 1
 302 0 l 1
 143 0 l 1
302 824 m 1
 703 824 l 2
 837 824 951 936 951 1079 c 0
 951 1224 837 1339 698 1339 c 2
 302 1339 l 1
 302 824 l 1
EndSplineSet
Validated: 1
EndChar

StartChar: Q
Encoding: 81 81 49
Width: 1749
VWidth: 2877
Flags: W
HStem: -13 152<647.763 1107.24> 1352 154<647.763 1106.6>
VStem: 98 160<521.288 969.724> 1497 157<519.642 969.724>
DStem2: 1245 553 1038 553 0.650791 -0.759257<0 210.639 380.107 591.027>
LayerCount: 2
Fore
SplineSet
1271 280 m 1
 1038 553 l 1
 1245 553 l 1
 1382 393 l 1
 1455 493 1497 615 1497 745 c 0
 1497 1081 1220 1352 878 1352 c 0
 532 1352 258 1081 258 745 c 0
 258 412 532 139 878 139 c 0
 1027 139 1164 192 1271 280 c 1
1719 0 m 1
 1508 0 l 1
 1372 158 l 1
 1238 51 1066 -13 878 -13 c 0
 448 -13 98 325 98 745 c 0
 98 1166 448 1506 878 1506 c 0
 1305 1506 1654 1166 1654 745 c 0
 1654 566 1591 401 1484 271 c 1
 1719 0 l 1
EndSplineSet
Validated: 1
EndChar

StartChar: R
Encoding: 82 82 50
Width: 1232
VWidth: 2877
Flags: W
HStem: 0 21G<143 302 1022.76 1215> 669 155<302 658> 1339 154<302 831.479>
VStem: 143 159<0 669 824 1339> 951 159<934.386 1222.64>
DStem2: 828 687 658 669 0.490803 -0.871271<0 699.668>
LayerCount: 2
Fore
SplineSet
143 0 m 1
 143 1493 l 1
 698 1493 l 2
 929 1493 1110 1305 1110 1079 c 0
 1110 897 994 741 828 687 c 1
 1215 0 l 1
 1034 0 l 1
 658 669 l 1
 302 669 l 1
 302 0 l 1
 143 0 l 1
302 824 m 1
 703 824 l 2
 837 824 951 936 951 1079 c 0
 951 1224 837 1339 698 1339 c 2
 302 1339 l 1
 302 824 l 1
EndSplineSet
Validated: 1
EndChar

StartChar: S
Encoding: 83 83 51
Width: 1183
VWidth: 2877
Flags: W
HStem: -17 156<425.126 767.096> 1352 156<456.858 741.051>
VStem: 98 157<326.531 469.735> 218 156<1035.86 1268.68> 931 157<295.554 580.824>
LayerCount: 2
Fore
SplineSet
1008 1186 m 1xd8
 859 1135 l 1
 848 1168 l 1
 803 1294 698 1352 593 1352 c 0
 461 1352 374 1256 374 1141 c 0xd8
 374 848 1088 933 1088 444 c 0
 1088 168 848 -17 591 -17 c 0
 372 -17 148 119 103 434 c 1
 98 468 l 1
 255 487 l 1xe8
 260 455 l 1
 293 231 438 139 591 139 c 0
 765 139 931 258 931 448 c 0
 931 812 218 707 218 1144 c 0
 218 1339 367 1508 593 1508 c 0
 759 1508 929 1410 996 1218 c 1
 1008 1186 l 1xd8
EndSplineSet
Validated: 1
EndChar

StartChar: T
Encoding: 84 84 52
Width: 961
VWidth: 2877
Flags: W
HStem: 0 21G<406 562> 1339 154<25 406 562 942>
VStem: 406 156<0 1339>
LayerCount: 2
Fore
SplineSet
942 1493 m 1
 942 1339 l 1
 562 1339 l 1
 562 0 l 1
 406 0 l 1
 406 1339 l 1
 25 1339 l 1
 25 1493 l 1
 942 1493 l 1
EndSplineSet
Validated: 1
EndChar

StartChar: U
Encoding: 85 85 53
Width: 1393
VWidth: 2877
Flags: W
HStem: -15 154<532.286 868.145> 1473 20G<143 302 1097 1256>
VStem: 143 159<386.872 1493> 1097 159<373.338 1493>
LayerCount: 2
Fore
SplineSet
143 1493 m 1
 302 1493 l 1
 302 575 l 2
 302 327 491 139 703 139 c 0
 914 139 1097 327 1097 575 c 2
 1097 1493 l 1
 1256 1493 l 1
 1256 575 l 2
 1256 252 1010 -15 698 -15 c 0
 387 -15 143 252 143 575 c 2
 143 1493 l 1
EndSplineSet
Validated: 1
EndChar

StartChar: V
Encoding: 86 86 54
Width: 1340
VWidth: 2877
Flags: W
HStem: -15 21G<674.273 691.448> 1473 20G<25 200.879 1140.43 1320>
DStem2: 192 1493 25 1493 0.399926 -0.916547<0 1200.22> 679 396 683 -15 0.389122 0.921186<0 1193.43>
LayerCount: 2
Fore
SplineSet
1149 1493 m 1
 1320 1493 l 1
 683 -15 l 1
 25 1493 l 1
 192 1493 l 1
 679 396 l 1
 1149 1493 l 1
EndSplineSet
Validated: 1
EndChar

StartChar: W
Encoding: 87 87 55
Width: 2025
VWidth: 2877
Flags: W
HStem: -15 21G<590.401 606 1425.02 1440.56> 1473 20G<25 193.803 1004 1020.03 1827.29 2003>
DStem2: 186 1493 25 1493 0.355196 -0.934792<0 1114.17> 591 455 598 -15 0.371239 0.928537<0 691.685> 1012 1508 1016 1030 0.372758 -0.927929<445.041 1134.79> 1435 455 1433 -15 0.353569 0.935408<0 1112.38>
LayerCount: 2
Fore
SplineSet
25 1493 m 1
 186 1493 l 1
 591 455 l 1
 1012 1508 l 1
 1435 455 l 1
 1835 1493 l 1
 2003 1493 l 1
 1433 -15 l 1
 1016 1030 l 1
 598 -15 l 1
 25 1493 l 1
EndSplineSet
Validated: 1
EndChar

StartChar: X
Encoding: 88 88 56
Width: 1060
VWidth: 2877
Flags: W
HStem: 0 21G<25 211.411 850.525 1038> 1473 20G<83 270.405 790.557 980>
DStem2: 25 0 201 0 0.462586 0.886574<81.4152 793.921 1097.13 1682.62> 260 1493 83 1493 0.462119 -0.886818<0 585.031 888.322 1601.75>
LayerCount: 2
Fore
SplineSet
83 1493 m 1
 260 1493 l 1
 530 974 l 1
 801 1493 l 1
 980 1493 l 1
 620 803 l 1
 1038 0 l 1
 861 0 l 1
 530 632 l 1
 201 0 l 1
 25 0 l 1
 444 803 l 1
 83 1493 l 1
EndSplineSet
Validated: 1
EndChar

StartChar: Y
Encoding: 89 89 57
Width: 1303
VWidth: 2877
Flags: W
HStem: 0 21G<575 734> 1473 20G<25 220.986 1089.07 1285>
VStem: 575 159<0 640>
DStem2: 208 1493 25 1493 0.541902 -0.840441<0 822.677> 656 803 734 640 0.542598 0.839993<0 821.594>
LayerCount: 2
Fore
SplineSet
25 1493 m 1
 208 1493 l 1
 656 803 l 1
 1102 1493 l 1
 1285 1493 l 1
 734 640 l 1
 734 0 l 1
 575 0 l 1
 575 640 l 1
 25 1493 l 1
EndSplineSet
Validated: 1
EndChar

StartChar: Z
Encoding: 90 90 58
Width: 1250
VWidth: 2877
Flags: W
HStem: 0 154<318 1179> 1339 154<161 933>
DStem2: 25 0 318 154 0.562513 0.826789<292.142 1617.83>
LayerCount: 2
Fore
SplineSet
161 1493 m 1
 1229 1493 l 1
 318 154 l 1
 1231 154 l 1
 1179 0 l 1
 25 0 l 1
 933 1339 l 1
 107 1339 l 1
 161 1493 l 1
EndSplineSet
Validated: 1
EndChar

StartChar: bracketleft
Encoding: 91 91 59
Width: 480
VWidth: 2982
Flags: W
HStem: -349 161<269 448> 1457 162<269 448>
VStem: 107 341<-349 -188 1457 1619> 107 162<-188 1457>
LayerCount: 2
Fore
SplineSet
269 -188 m 1xd0
 448 -188 l 1
 448 -349 l 1
 107 -349 l 1
 107 1619 l 1
 448 1619 l 1
 448 1457 l 1xe0
 269 1457 l 1
 269 -188 l 1xd0
EndSplineSet
Validated: 1
EndChar

StartChar: backslash
Encoding: 92 92 60
Width: 1303
VWidth: 2982
Flags: W
HStem: -2 21G<1093.17 1307> 1475 20G<-2 211.83>
DStem2: 197 1495 -2 1495 0.595612 -0.803272<0 1745.1>
LayerCount: 2
Fore
SplineSet
-2 1495 m 1
 197 1495 l 1
 1307 -2 l 1
 1108 -2 l 1
 -2 1495 l 1
EndSplineSet
Validated: 1
EndChar

StartChar: bracketright
Encoding: 93 93 61
Width: 478
VWidth: 2982
Flags: W
HStem: -349 161<-2 177> 1457 162<-2 177>
VStem: -2 340<-349 -188 1457 1619> 177 161<-188 1457>
LayerCount: 2
Fore
SplineSet
177 1457 m 1xd0
 -2 1457 l 1
 -2 1619 l 1
 338 1619 l 1
 338 -349 l 1
 -2 -349 l 1
 -2 -188 l 1xe0
 177 -188 l 1
 177 1457 l 1xd0
EndSplineSet
Validated: 1
EndChar

StartChar: asciicircum
Encoding: 94 94 62
Width: 1239
VWidth: 2982
Flags: W
HStem: 1475 20G<541.431 707.373>
DStem2: 81 679 269 679 0.500702 0.86562<94.1319 804.237> 696 1495 624 1294 0.494302 -0.86929<139.138 846.757>
LayerCount: 2
Fore
SplineSet
553 1495 m 1
 696 1495 l 1
 1160 679 l 1
 974 679 l 1
 624 1294 l 1
 269 679 l 1
 81 679 l 1
 553 1495 l 1
EndSplineSet
Validated: 1
EndChar

StartChar: underscore
Encoding: 95 95 63
Width: 1042
VWidth: 2982
Flags: W
HStem: -158 160<0 1045>
LayerCount: 2
Fore
SplineSet
1045 2 m 1
 1045 -158 l 1
 0 -158 l 1
 0 2 l 1
 1045 2 l 1
EndSplineSet
Validated: 1
EndChar

StartChar: quoteleft
Encoding: 8216 8216 64
Width: 476
VWidth: 2982
Flags: W
HStem: 1059 239<246.989 341.916>
VStem: 107 262<1100.58 1267.6>
LayerCount: 2
Fore
SplineSet
246 1298 m 1
 305 1298 369 1252 369 1179 c 0
 369 1113 316 1059 250 1059 c 0
 186 1059 107 1108 107 1218 c 0
 107 1280 116 1379 252 1508 c 2
 274 1529 l 1
 430 1529 l 1
 352 1464 l 2
 308 1428 262 1354 246 1298 c 1
EndSplineSet
Validated: 1
EndChar

StartChar: a
Encoding: 97 97 65
Width: 1094
VWidth: 2822
Flags: W
HStem: -17 151<312.881 612.66> 0 21G<815 998> 481 130<418.717 792> 882 150<384.453 663.943>
VStem: 105 157<186.777 375.921> 795 158<2.33618 139 286.702 481 611 737.911>
LayerCount: 2
Fore
SplineSet
998 0 m 1x7c
 824 0 l 1x7c
 806 41 795 93 795 139 c 1
 707 51 589 -17 453 -17 c 0xbc
 208 -17 105 145 105 278 c 0
 105 609 566 611 792 611 c 1
 773 786 647 882 526 882 c 0
 380 882 307 763 284 732 c 1
 154 812 l 1
 188 861 302 1032 526 1032 c 0
 741 1032 953 867 953 577 c 2
 953 242 l 2
 953 152 972 49 998 0 c 1x7c
453 134 m 0xbc
 591 134 730 239 795 346 c 1
 795 481 l 1
 551 477 262 450 262 278 c 0
 262 222 312 134 453 134 c 0xbc
EndSplineSet
Validated: 1
EndChar

StartChar: b
Encoding: 98 98 66
Width: 1219
VWidth: 2835
Flags: W
HStem: -13 150<481.181 787.302> 880 150<481.604 787.302>
VStem: 143 159<3.5267 154 328.455 687.333 865 1491> 969 155<329.809 685.747>
LayerCount: 2
Fore
SplineSet
302 154 m 1
 302 81 289 45 275 0 c 1
 98 0 l 1
 139 74 143 228 143 297 c 2
 143 1491 l 1
 302 1491 l 1
 302 865 l 1
 385 961 517 1030 636 1030 c 0
 914 1030 1124 788 1124 508 c 0
 1124 226 914 -13 636 -13 c 0
 515 -13 385 58 302 154 c 1
302 508 m 0
 302 297 459 137 636 137 c 0
 810 137 969 297 969 508 c 0
 969 718 810 880 636 880 c 0
 459 880 302 718 302 508 c 0
EndSplineSet
Validated: 1
EndChar

StartChar: c
Encoding: 99 99 67
Width: 1113
VWidth: 2822
Flags: W
HStem: -13 152<435.199 742.261> 875 155<428.982 745.239>
VStem: 98 154<330.809 685.935>
LayerCount: 2
Fore
SplineSet
884 338 m 1
 1021 265 l 1
 974 184 846 -13 587 -13 c 0
 309 -13 98 226 98 508 c 0
 98 788 309 1030 587 1030 c 0
 861 1030 987 808 1021 752 c 1
 884 675 l 1
 848 737 765 875 587 875 c 0
 410 875 252 720 252 510 c 0
 252 299 412 139 587 139 c 0
 775 139 859 295 884 338 c 1
EndSplineSet
Validated: 1
EndChar

StartChar: d
Encoding: 100 100 68
Width: 1219
VWidth: 2835
Flags: W
HStem: -13 150<435.199 741.078> 880 150<435.199 740.655>
VStem: 98 154<329.809 685.747> 920 159<2.37677 154 328.455 687.333 865 1491>
LayerCount: 2
Fore
SplineSet
1124 0 m 1
 947 0 l 1
 933 45 920 81 920 154 c 1
 837 58 707 -13 587 -13 c 0
 309 -13 98 226 98 508 c 0
 98 788 309 1030 587 1030 c 0
 705 1030 837 961 920 865 c 1
 920 1491 l 1
 1079 1491 l 1
 1079 297 l 2
 1079 208 1097 49 1124 0 c 1
920 508 m 0
 920 718 763 880 587 880 c 0
 412 880 252 718 252 508 c 0
 252 297 412 137 587 137 c 0
 763 137 920 297 920 508 c 0
EndSplineSet
Validated: 1
EndChar

StartChar: e
Encoding: 101 101 69
Width: 1183
VWidth: 2822
Flags: W
HStem: -13 152<435.786 758.712> 474 148<273 908> 878 152<438.868 745.99>
LayerCount: 2
Fore
SplineSet
273 622 m 1
 908 622 l 1
 865 775 734 878 591 878 c 0
 450 878 320 775 273 622 c 1
255 474 m 1
 271 280 421 139 587 139 c 0
 716 139 835 205 914 338 c 1
 1050 265 l 1
 912 22 692 -13 587 -13 c 0
 309 -13 98 226 98 508 c 0
 98 788 314 1030 591 1030 c 0
 855 1030 1059 812 1081 551 c 1
 1085 474 l 1
 255 474 l 1
EndSplineSet
Validated: 1
EndChar

StartChar: f
Encoding: 102 102 70
Width: 585
VWidth: 2835
Flags: W
HStem: 0 21G<143 302> 861 153<58 143 302 538> 1354 124<421.999 577>
VStem: 143 159<0 861 1014 1224.8>
LayerCount: 2
Fore
SplineSet
143 861 m 1
 58 861 l 1
 58 1014 l 1
 143 1014 l 1
 143 1066 l 2
 143 1290 318 1478 542 1478 c 2
 577 1478 l 1
 577 1354 l 1
 542 1354 l 2
 419 1354 302 1220 302 1066 c 2
 302 1014 l 1
 591 1014 l 1
 538 861 l 1
 302 861 l 1
 302 0 l 1
 143 0 l 1
 143 861 l 1
EndSplineSet
Validated: 1
EndChar

StartChar: g
Encoding: 103 103 71
Width: 1215
VWidth: 2804
Flags: W
HStem: -491 151<432.17 737.65> -15 149<426.657 734.882> 878 149<426.657 735.311>
VStem: 98 150<328.093 683.685> 920 159<-144.282 150 334.203 677.357 857 1010.38>
LayerCount: 2
Fore
SplineSet
920 857 m 1
 920 933 933 969 947 1014 c 1
 1124 1014 l 1
 1083 938 1079 784 1079 714 c 2
 1079 32 l 2
 1079 -248 861 -491 585 -491 c 0
 416 -491 314 -410 233 -333 c 1
 346 -228 l 1
 399 -278 470 -340 587 -340 c 0
 763 -340 920 -179 920 32 c 2
 920 150 l 1
 837 51 705 -15 587 -15 c 0
 309 -15 98 226 98 506 c 0
 98 786 309 1027 587 1027 c 0
 707 1027 837 953 920 857 c 1
916 506 m 0
 916 716 756 878 581 878 c 0
 406 878 248 716 248 506 c 0
 248 295 406 134 581 134 c 0
 756 134 916 295 916 506 c 0
EndSplineSet
Validated: 1
EndChar

StartChar: h
Encoding: 104 104 72
Width: 1078
VWidth: 2835
Flags: W
HStem: 0 21G<143 302 781 938> 880 150<492.046 710.432> 1473 20G<143 302>
VStem: 143 159<0 657.861 837 1493> 781 157<0 800.737>
LayerCount: 2
Fore
SplineSet
143 0 m 1
 143 1493 l 1
 302 1493 l 1
 302 837 l 1
 378 942 493 1030 602 1030 c 0
 835 1030 938 833 938 620 c 2
 938 0 l 1
 781 0 l 1
 781 620 l 2
 781 730 745 880 600 880 c 0
 461 880 302 634 302 508 c 2
 302 0 l 1
 143 0 l 1
EndSplineSet
Validated: 1
EndChar

StartChar: i
Encoding: 105 105 73
Width: 436
VWidth: 2830
Flags: W
HStem: 0 21G<141 299> 1128 217<129.703 313.07>
VStem: 107 229<1150.54 1321.62> 141 158<0 1014>
LayerCount: 2
Fore
SplineSet
222 1345 m 0xe0
 284 1345 336 1296 336 1235 c 0
 336 1175 284 1128 222 1128 c 0
 156 1128 107 1175 107 1235 c 0
 107 1296 158 1345 222 1345 c 0xe0
299 0 m 1xd0
 141 0 l 1
 141 1014 l 1
 299 1014 l 1
 299 0 l 1xd0
EndSplineSet
Validated: 1
EndChar

StartChar: j
Encoding: 106 106 74
Width: 436
VWidth: 2822
Flags: W
HStem: -291 137<-49 81.4666> 996 20G<143 302> 1126 217<127.703 310.431>
VStem: 105 228<1149.31 1320.38> 143 159<-88.9219 1016>
LayerCount: 2
Fore
SplineSet
143 1016 m 1xe8
 302 1016 l 1
 302 36 l 2
 302 -139 166 -291 -15 -291 c 2
 -49 -291 l 1
 -49 -154 l 1
 -15 -154 l 2
 64 -154 143 -74 143 36 c 2
 143 1016 l 1xe8
220 1343 m 0
 282 1343 333 1296 333 1235 c 0
 333 1175 282 1126 220 1126 c 0
 156 1126 105 1175 105 1235 c 0xf0
 105 1296 156 1343 220 1343 c 0
EndSplineSet
Validated: 1
EndChar

StartChar: k
Encoding: 107 107 75
Width: 1021
VWidth: 2835
Flags: W
HStem: 0 21G<143 302 800.05 1023> 996 20G<671.009 931> 1473 20G<143 302>
VStem: 143 159<0 472 675 1493>
DStem2: 302 675 470 615 0.756363 0.654152<87.8199 519.56> 470 615 354 517 0.668631 -0.743595<0 689.994>
LayerCount: 2
Fore
SplineSet
302 0 m 1
 143 0 l 1
 143 1493 l 1
 302 1493 l 1
 302 675 l 1
 694 1016 l 1
 931 1016 l 1
 470 615 l 1
 1023 0 l 1
 818 0 l 1
 354 517 l 1
 302 472 l 1
 302 0 l 1
EndSplineSet
Validated: 1
EndChar

StartChar: l
Encoding: 108 108 76
Width: 440
VWidth: 2835
Flags: W
HStem: 0 21G<143 302> 1473 20G<143 302>
VStem: 143 159<0 1493>
LayerCount: 2
Fore
SplineSet
302 0 m 1
 143 0 l 1
 143 1493 l 1
 302 1493 l 1
 302 0 l 1
EndSplineSet
Validated: 1
EndChar

StartChar: m
Encoding: 109 109 77
Width: 1591
VWidth: 2822
Flags: W
HStem: 0 21G<143 302 718 875 1294 1450> 880 147<471.424 656.783 1051.23 1228.12>
VStem: 143 159<0 665.415 818 1012.57> 718 157<0 657.77> 1294 156<0 809.484>
LayerCount: 2
Fore
SplineSet
302 818 m 1
 361 931 474 1027 579 1027 c 0
 728 1027 818 938 859 818 c 1
 929 933 1036 1027 1141 1027 c 0
 1363 1027 1450 820 1450 615 c 2
 1450 0 l 1
 1294 0 l 1
 1294 615 l 2
 1294 726 1262 875 1139 875 c 0
 1025 875 875 638 875 506 c 2
 875 0 l 1
 718 0 l 1
 718 620 l 2
 718 730 687 880 562 880 c 0
 459 880 302 651 302 508 c 2
 302 0 l 1
 143 0 l 1
 143 716 l 2
 143 808 126 965 98 1016 c 1
 275 1016 l 1
 297 942 302 922 302 818 c 1
EndSplineSet
Validated: 1
EndChar

StartChar: n
Encoding: 110 110 78
Width: 1078
VWidth: 2822
Flags: W
HStem: 0 21G<141 299 779 938> 880 150<492.024 709.432>
VStem: 141 158<0 649.226 820 1012.66> 779 159<0 800.737>
LayerCount: 2
Fore
SplineSet
273 1016 m 1
 295 944 299 922 299 820 c 1
 369 925 491 1030 602 1030 c 0
 835 1030 938 833 938 620 c 2
 938 0 l 1
 779 0 l 1
 779 620 l 2
 779 730 743 880 598 880 c 0
 459 880 299 632 299 508 c 2
 299 0 l 1
 141 0 l 1
 141 716 l 2
 141 808 124 967 96 1016 c 1
 273 1016 l 1
EndSplineSet
Validated: 1
EndChar

StartChar: o
Encoding: 111 111 79
Width: 1282
VWidth: 2822
Flags: W
HStem: -13 150<464.086 829.697> 878 152<464.086 829.697>
VStem: 98 160<339.708 675.993> 1034 152<339.708 675.993>
LayerCount: 2
Fore
SplineSet
1186 508 m 0
 1186 220 942 -13 643 -13 c 0
 342 -13 98 220 98 508 c 0
 98 797 342 1030 643 1030 c 0
 942 1030 1186 797 1186 508 c 0
258 508 m 0
 258 302 430 137 645 137 c 0
 859 137 1034 302 1034 508 c 0
 1034 712 859 878 645 878 c 0
 430 878 258 712 258 508 c 0
EndSplineSet
Validated: 1
EndChar

StartChar: p
Encoding: 112 112 80
Width: 1219
VWidth: 2806
Flags: W
HStem: -471 21G<143 302> -13 150<481.604 787.302> 880 150<481.181 787.302>
VStem: 143 159<-471 152 328.455 687.333 859 1013.62> 969 155<330.209 685.747>
LayerCount: 2
Fore
SplineSet
98 1016 m 1
 275 1016 l 1
 289 972 302 936 302 859 c 1
 385 955 515 1030 636 1030 c 0
 914 1030 1124 788 1124 508 c 0
 1124 228 914 -13 636 -13 c 0
 517 -13 385 54 302 152 c 1
 302 -471 l 1
 143 -471 l 1
 143 718 l 2
 143 808 126 967 98 1016 c 1
302 508 m 0
 302 297 459 137 636 137 c 0
 810 137 969 297 969 508 c 0
 969 718 810 880 636 880 c 0
 459 880 302 718 302 508 c 0
EndSplineSet
Validated: 1
EndChar

StartChar: q
Encoding: 113 113 81
Width: 1219
VWidth: 2806
Flags: W
HStem: -471 21G<920 1079> -13 150<435.199 743.43> 880 150<435.199 741.078>
VStem: 98 154<330.209 685.747> 920 159<-471 152 328.455 687.333 859 1012.38>
LayerCount: 2
Fore
SplineSet
920 859 m 1
 920 936 933 972 947 1016 c 1
 1124 1016 l 1
 1083 940 1079 788 1079 718 c 2
 1079 -471 l 1
 920 -471 l 1
 920 152 l 1
 837 54 705 -13 587 -13 c 0
 309 -13 98 228 98 508 c 0
 98 788 309 1030 587 1030 c 0
 707 1030 837 955 920 859 c 1
920 508 m 0
 920 718 763 880 587 880 c 0
 412 880 252 718 252 508 c 0
 252 297 412 137 587 137 c 0
 763 137 920 297 920 508 c 0
EndSplineSet
Validated: 1
EndChar

StartChar: r
Encoding: 114 114 82
Width: 737
VWidth: 2822
Flags: W
HStem: 0 21G<143 299> 996 20G<98 281>
VStem: 143 156<0 694.985 865 1013.62>
LayerCount: 2
Fore
SplineSet
299 865 m 1
 374 949 457 1003 544 1034 c 1
 743 895 l 1
 325 895 299 593 299 521 c 2
 299 0 l 1
 143 0 l 1
 143 716 l 2
 143 808 124 967 98 1016 c 1
 273 1016 l 1
 289 972 299 936 299 865 c 1
EndSplineSet
Validated: 1
EndChar

StartChar: s
Encoding: 115 115 83
Width: 906
VWidth: 2822
Flags: W
HStem: -17 151<329.296 588.072> 882 150<357.871 560.788>
VStem: 98 157<214.089 334.735> 177 159<701.361 858.066> 654 156<199.037 406.102>
LayerCount: 2
Fore
SplineSet
759 795 m 1xd8
 611 743 l 1
 600 777 l 1
 573 850 513 882 457 882 c 0
 387 882 336 837 336 771 c 0xd8
 336 609 810 643 810 309 c 0
 810 114 640 -17 453 -17 c 0
 293 -17 134 81 103 299 c 1
 98 333 l 1
 255 352 l 1xe8
 260 320 l 1
 278 186 365 134 455 134 c 0
 555 134 654 201 654 309 c 0
 654 526 177 466 177 771 c 0
 177 936 312 1032 457 1032 c 0
 551 1032 690 985 748 826 c 1
 759 795 l 1xd8
EndSplineSet
Validated: 1
EndChar

StartChar: t
Encoding: 116 116 84
Width: 585
VWidth: 2826
Flags: W
HStem: 2 21G<143 302> 865 149<56 143 302 538>
VStem: 143 159<2 865 1014 1238>
LayerCount: 2
Fore
SplineSet
302 2 m 1
 143 2 l 1
 143 865 l 1
 56 865 l 1
 56 1014 l 1
 143 1014 l 1
 143 1238 l 1
 302 1238 l 1
 302 1014 l 1
 591 1014 l 1
 538 865 l 1
 302 865 l 1
 302 2 l 1
EndSplineSet
Validated: 1
EndChar

StartChar: u
Encoding: 117 117 85
Width: 1071
VWidth: 2817
Flags: W
HStem: -15 152<407.136 666.534>
VStem: 143 159<246.941 1014> 775 158<248.133 1014>
LayerCount: 2
Fore
SplineSet
143 1014 m 1
 302 1014 l 1
 302 396 l 2
 302 246 408 137 534 137 c 0
 662 137 775 246 775 396 c 2
 775 1014 l 1
 933 1014 l 1
 933 396 l 2
 933 173 761 -15 538 -15 c 0
 314 -15 143 173 143 396 c 2
 143 1014 l 1
EndSplineSet
Validated: 1
EndChar

StartChar: v
Encoding: 118 118 86
Width: 1008
VWidth: 2817
Flags: W
HStem: -15 21G<500.592 519.292> 996 20G<25 204.688 808.28 989>
DStem2: 195 1016 25 1016 0.42567 -0.904878<0 713.315> 506 374 510 -15 0.421344 0.906901<0 713.69>
LayerCount: 2
Fore
SplineSet
25 1016 m 1
 195 1016 l 1
 506 374 l 1
 818 1016 l 1
 989 1016 l 1
 510 -15 l 1
 25 1016 l 1
EndSplineSet
Validated: 1
EndChar

StartChar: w
Encoding: 119 119 87
Width: 1649
VWidth: 2822
Flags: W
HStem: -15 21G<485.883 504.896 1154.01 1173.04> 996 20G<25 206.509 820.643 841.326 1449.65 1630>
DStem2: 197 1016 25 1016 0.4148 -0.909913<0 698.595> 497 385 495 -15 0.443481 0.896284<0 391.478> 831 1030 828 658 0.446682 -0.894693<331.486 725.822> 1164 385 1164 -15 0.411871 0.911242<0 696.496>
LayerCount: 2
Fore
SplineSet
25 1016 m 1
 197 1016 l 1
 497 385 l 1
 831 1030 l 1
 1164 385 l 1
 1459 1016 l 1
 1630 1016 l 1
 1164 -15 l 1
 828 658 l 1
 495 -15 l 1
 25 1016 l 1
EndSplineSet
Validated: 1
EndChar

StartChar: x
Encoding: 120 120 88
Width: 995
VWidth: 2822
Flags: W
HStem: 0 21G<25 225.342 773.707 976> 996 20G<64 260.384 733.616 936>
DStem2: 25 0 211 0 0.580859 0.814004<108.04 603.952 817.106 1246.99> 246 1016 64 1016 0.583504 -0.81211<0 429.886 646.034 1141.36>
LayerCount: 2
Fore
SplineSet
64 1016 m 1
 246 1016 l 1
 497 667 l 1
 748 1016 l 1
 936 1016 l 1
 591 534 l 1
 976 0 l 1
 788 0 l 1
 500 403 l 1
 211 0 l 1
 25 0 l 1
 408 534 l 1
 64 1016 l 1
EndSplineSet
Validated: 1
EndChar

StartChar: y
Encoding: 121 121 89
Width: 1006
VWidth: 2804
Flags: W
HStem: -487 21G<220 396.931> 996 20G<25 198.185 810.021 985>
DStem2: 190 1016 25 1016 0.378193 -0.925727<0 839.555> 220 -487 389 -487 0.369685 0.929157<62.4767 558.757 781.037 1617.59>
LayerCount: 2
Fore
SplineSet
25 1016 m 1
 190 1016 l 1
 508 239 l 1
 818 1016 l 1
 985 1016 l 1
 389 -487 l 1
 220 -487 l 1
 427 32 l 1
 25 1016 l 1
EndSplineSet
Validated: 1
EndChar

StartChar: z
Encoding: 122 122 90
Width: 980
VWidth: 2822
Flags: W
HStem: 0 150<325 886> 865 151<186 662>
DStem2: 25 0 325 150 0.591928 0.805991<298.477 1074.24>
LayerCount: 2
Fore
SplineSet
186 1016 m 1
 961 1016 l 1
 325 150 l 1
 938 150 l 1
 886 0 l 1
 25 0 l 1
 662 865 l 1
 134 865 l 1
 186 1016 l 1
EndSplineSet
Validated: 1
EndChar

StartChar: braceleft
Encoding: 123 123 91
Width: 610
VWidth: 2982
Flags: W
HStem: -346 131<440.179 557> 1471 131<440.98 557>
VStem: 231 160<-160.375 498.421 756.872 1417.22>
LayerCount: 2
Fore
SplineSet
98 685 m 1
 195 748 231 781 231 925 c 2
 231 1224 l 2
 231 1542 410 1602 521 1602 c 2
 557 1602 l 1
 557 1471 l 1
 521 1471 l 2
 416 1471 391 1332 391 1224 c 2
 391 929 l 2
 391 779 356 696 291 628 c 1
 349 573 391 491 391 331 c 2
 391 34 l 2
 391 -77 416 -215 521 -215 c 2
 557 -215 l 1
 557 -346 l 1
 521 -346 l 2
 408 -346 231 -286 231 34 c 2
 231 331 l 2
 231 487 179 517 98 571 c 1
 98 685 l 1
EndSplineSet
Validated: 1
EndChar

StartChar: bar
Encoding: 124 124 92
Width: 444
VWidth: 2982
Flags: W
VStem: 143 162<-186 1677>
LayerCount: 2
Fore
SplineSet
305 -186 m 1
 143 -186 l 1
 143 1677 l 1
 305 1677 l 1
 305 -186 l 1
EndSplineSet
Validated: 1
EndChar

StartChar: braceright
Encoding: 125 125 93
Width: 613
VWidth: 2982
Flags: W
HStem: -349 131<54 173.437> 1471 129<54 172.702>
VStem: 224 161<-161.688 497.115 753.078 1412.69>
LayerCount: 2
Fore
SplineSet
517 568 m 1
 421 506 385 472 385 329 c 2
 385 30 l 2
 385 -284 208 -349 90 -349 c 2
 54 -349 l 1
 54 -218 l 1
 90 -218 l 2
 197 -218 224 -77 224 30 c 2
 224 329 l 2
 224 487 267 571 322 626 c 1
 258 692 222 775 222 925 c 2
 222 1224 l 2
 222 1332 195 1471 90 1471 c 2
 54 1471 l 1
 54 1600 l 1
 90 1600 l 2
 208 1600 385 1536 385 1220 c 2
 385 922 l 2
 385 765 436 737 517 683 c 1
 517 568 l 1
EndSplineSet
Validated: 1
EndChar

StartChar: asciitilde
Encoding: 126 126 94
Width: 1080
VWidth: 2982
Flags: W
HStem: 342 166<620.937 844.566> 477 166<239.833 478.999>
VStem: 98 133<352 467.202> 853 132<513.701 634>
LayerCount: 2
Fore
SplineSet
853 634 m 1xb0
 985 634 l 1
 985 598 l 2
 985 416 884 342 771 342 c 0xb0
 607 342 450 477 322 477 c 0
 248 477 231 436 231 387 c 2
 231 352 l 1
 98 352 l 1
 98 387 l 2
 98 577 213 643 322 643 c 0x70
 502 643 647 508 771 508 c 0
 837 508 853 544 853 598 c 2
 853 634 l 1xb0
EndSplineSet
Validated: 1
EndChar

StartChar: exclamdown
Encoding: 161 161 95
Width: 570
VWidth: 2982
Flags: W
HStem: 790 240<195.323 378.509>
VStem: 168 238<817.658 1002.68> 190 193<-544 24.064> 222 130<155.936 724>
LayerCount: 2
Fore
SplineSet
222 724 m 1x90
 352 724 l 1x90
 383 -544 l 1
 190 -544 l 1xa0
 222 724 l 1x90
286 1030 m 0
 352 1030 406 976 406 912 c 0
 406 844 352 790 286 790 c 0
 222 790 168 844 168 912 c 0xc0
 168 976 222 1030 286 1030 c 0
EndSplineSet
Validated: 1
EndChar

StartChar: cent
Encoding: 162 162 96
Width: 1143
VWidth: 2982
Flags: W
HStem: -11 154<651 762.241> 873 154<651 761.878>
VStem: 114 155<326.151 691.061> 491 160<-275 -5.12085 161 855 1020.55 1290>
LayerCount: 2
Fore
SplineSet
651 -275 m 1
 491 -275 l 1
 491 0 l 1
 271 54 114 267 114 508 c 0
 114 750 271 961 491 1016 c 1
 491 1290 l 1
 651 1290 l 1
 651 1027 l 1
 891 1003 1006 806 1036 752 c 1
 897 675 l 1
 867 730 797 848 651 873 c 1
 651 143 l 1
 806 168 875 299 897 338 c 1
 1036 265 l 1
 991 188 878 11 651 -11 c 1
 651 -275 l 1
491 161 m 1
 491 855 l 1
 365 806 269 673 269 510 c 0
 269 344 365 213 491 161 c 1
EndSplineSet
Validated: 1
EndChar

StartChar: sterling
Encoding: 163 163 97
Width: 1177
VWidth: 2982
Flags: W
HStem: 0 154<393 1016> 665 153<171 378 549 810> 1359 152<561.794 833.237>
VStem: 342 155<829.877 1294.61> 393 156<366.995 665> 920 127<1155 1262.62>
LayerCount: 2
Fore
SplineSet
114 130 m 1xec
 265 215 393 320 393 620 c 2
 393 665 l 1xec
 119 665 l 1
 171 818 l 1
 378 818 l 1
 365 942 342 1063 342 1179 c 0
 342 1379 510 1511 696 1511 c 0
 835 1511 1008 1439 1047 1155 c 1
 920 1155 l 1
 916 1168 895 1359 696 1359 c 0
 593 1359 497 1294 497 1182 c 0xf4
 497 1083 517 955 532 824 c 1
 861 824 l 1
 810 669 l 1
 549 669 l 1
 549 624 l 2
 549 450 510 289 393 154 c 1
 1068 154 l 1
 1016 0 l 1
 152 0 l 1
 114 130 l 1xec
EndSplineSet
Validated: 1
EndChar

StartChar: fraction
Encoding: 8260 8260 98
Width: 1177
VWidth: 2982
Flags: W
DStem2: -67 -36 132 -36 0.57887 0.81542<115.195 1918.68>
LayerCount: 2
Fore
SplineSet
1043 1529 m 1
 1243 1529 l 1
 132 -36 l 1
 -67 -36 l 1
 1043 1529 l 1
EndSplineSet
Validated: 1
EndChar

StartChar: yen
Encoding: 165 165 99
Width: 1293
VWidth: 2982
Flags: W
HStem: 0 21G<571 728> 380 162<220 571 728 1068> 615 160<224 483 812 1077> 1473 20G<25 220.783 1077.22 1273>
VStem: 571 157<0 380 542 615>
DStem2: 208 1493 25 1493 0.537787 -0.843081<0 753.223> 649 803 812 775 0.540284 0.841483<64.5047 818.888>
LayerCount: 2
Fore
SplineSet
1068 542 m 1
 1068 380 l 1
 728 380 l 1
 728 0 l 1
 571 0 l 1
 571 380 l 1
 220 380 l 1
 220 542 l 1
 571 542 l 1
 571 615 l 1
 224 615 l 1
 224 775 l 1
 483 775 l 1
 25 1493 l 1
 208 1493 l 1
 649 803 l 1
 1090 1493 l 1
 1273 1493 l 1
 812 775 l 1
 1077 775 l 1
 1077 615 l 1
 728 615 l 1
 728 542 l 1
 1068 542 l 1
EndSplineSet
Validated: 1
EndChar

StartChar: florin
Encoding: 402 402 100
Width: 836
VWidth: 2982
Flags: W
HStem: -161 125<-101 95.5044> 745 155<199 338 530 779> 1379 125<710.132 906>
DStem2: 222 188 378 158 0.20121 0.979548<-152.188 568.949 759.411 1164.27>
LayerCount: 2
Fore
SplineSet
837 900 m 1
 779 745 l 1
 500 745 l 1
 378 158 l 2
 331 -68 145 -161 -64 -161 c 2
 -101 -161 l 1
 -101 -36 l 1
 -64 -36 l 2
 77 -36 192 44 222 188 c 2
 338 745 l 1
 148 745 l 1
 199 900 l 1
 369 900 l 1
 427 1186 l 2
 473 1412 660 1504 871 1504 c 2
 906 1504 l 1
 906 1379 l 1
 871 1379 l 2
 730 1379 616 1300 585 1155 c 2
 530 900 l 1
 837 900 l 1
EndSplineSet
Validated: 1
EndChar

StartChar: section
Encoding: 167 167 101
Width: 937
VWidth: 2982
Flags: W
HStem: -132 154<339.604 596.31> 1350 154<343.72 597.068>
VStem: 119 156<637.644 847.913 1080.81 1284.8> 662 160<86.6619 296.41 528.512 741.058 1147 1279.75>
LayerCount: 2
Fore
SplineSet
114 231 m 1
 271 231 l 1
 275 201 l 2
 293 62 385 22 466 22 c 0
 571 22 662 90 662 199 c 0
 662 434 119 361 119 732 c 0
 119 765 121 869 213 959 c 1
 124 1036 119 1130 119 1173 c 0
 119 1372 286 1504 472 1504 c 0
 626 1504 790 1408 822 1184 c 1
 828 1147 l 1
 667 1147 l 1
 662 1175 l 1
 640 1332 526 1350 474 1350 c 0
 372 1350 278 1283 278 1173 c 0
 278 938 822 1016 822 645 c 0
 822 553 786 474 728 416 c 1
 818 338 822 246 822 201 c 0
 822 2 651 -132 468 -132 c 0
 314 -132 150 -34 119 192 c 1
 114 231 l 1
665 645 m 0
 665 771 504 806 349 873 c 1
 284 831 275 771 275 734 c 0
 275 604 438 571 589 504 c 1
 656 549 665 609 665 645 c 0
EndSplineSet
Validated: 1
EndChar

StartChar: currency
Encoding: 164 164 102
Width: 1301
VWidth: 2982
Flags: W
HStem: 295 164<496.989 811.511> 1068 161<496.419 812.395>
VStem: 188 161<605.558 921.97> 959 162<605.253 921.891>
DStem2: 92 316 205 203 0.712064 0.702115<1.12424 262.216 1165.02 1405.05> 226 1305 114 1191 0.707107 -0.707107<1.41421 234.306 1138.87 1393>
LayerCount: 2
Fore
SplineSet
1043 1025 m 1
 1094 949 1121 859 1121 763 c 0
 1121 665 1090 573 1038 495 c 1
 1211 320 l 1
 1100 205 l 1
 925 380 l 1
 848 327 754 295 656 295 c 0
 555 295 461 327 385 380 c 1
 205 203 l 1
 92 316 l 1
 273 493 l 1
 220 568 188 662 188 761 c 0
 188 861 220 955 273 1032 c 1
 114 1191 l 1
 226 1305 l 1
 385 1147 l 1
 461 1198 553 1229 651 1229 c 0
 752 1229 846 1196 922 1139 c 1
 1092 1303 l 1
 1207 1191 l 1
 1043 1025 l 1
349 763 m 0
 349 596 485 459 654 459 c 0
 822 459 959 596 959 763 c 0
 959 933 822 1068 654 1068 c 0
 485 1068 349 933 349 763 c 0
EndSplineSet
Validated: 1
EndChar

StartChar: quotesingle
Encoding: 39 39 103
Width: 523
VWidth: 2982
Flags: W
HStem: 1128 459<199 325>
VStem: 199 126<1128 1310.78>
LayerCount: 2
Fore
SplineSet
325 1128 m 1
 199 1128 l 1
 164 1587 l 1
 361 1587 l 1
 325 1128 l 1
EndSplineSet
Validated: 1
EndChar

StartChar: quotedblleft
Encoding: 8220 8220 104
Width: 737
VWidth: 2982
Flags: W
HStem: 1059 239<246.989 341.916 510.989 605.916>
VStem: 107 262<1100.58 1267.6> 371 262<1100.58 1267.6>
LayerCount: 2
Fore
SplineSet
510 1298 m 1
 569 1298 633 1252 633 1179 c 0
 633 1113 580 1059 514 1059 c 0
 450 1059 371 1108 371 1218 c 0
 371 1280 380 1379 516 1508 c 2
 538 1529 l 1
 694 1529 l 1
 616 1464 l 2
 572 1428 526 1354 510 1298 c 1
246 1298 m 1
 305 1298 369 1252 369 1179 c 0
 369 1113 316 1059 250 1059 c 0
 186 1059 107 1108 107 1218 c 0
 107 1280 116 1379 252 1508 c 2
 274 1529 l 1
 430 1529 l 1
 352 1464 l 2
 308 1428 262 1354 246 1298 c 1
EndSplineSet
Validated: 1
EndChar

StartChar: guillemotleft
Encoding: 171 171 105
Width: 883
VWidth: 2982
Flags: W
DStem2: 252 508 54 508 0.582019 -0.813175<0 369.281> 54 508 252 508 0.582019 0.813175<115.24 484.52> 579 508 383 508 0.582019 -0.813175<0 370.445> 383 508 579 508 0.582019 0.813175<114.076 484.52>
LayerCount: 2
Fore
SplineSet
665 902 m 1
 861 902 l 1
 579 508 l 1
 861 114 l 1
 665 114 l 1
 383 508 l 1
 665 902 l 1
336 902 m 1
 534 902 l 1
 252 508 l 1
 534 114 l 1
 336 114 l 1
 54 508 l 1
 336 902 l 1
EndSplineSet
Validated: 1
EndChar

StartChar: guilsinglleft
Encoding: 8249 8249 106
Width: 472
VWidth: 2982
Flags: W
VStem: -9 481
DStem2: 190 508 -9 508 0.582019 -0.813175<0 368.699> -9 508 190 508 0.582019 0.813175<115.822 484.52>
LayerCount: 2
Fore
SplineSet
273 902 m 1
 472 902 l 1
 190 508 l 1
 472 114 l 1
 273 114 l 1
 -9 508 l 1
 273 902 l 1
EndSplineSet
Validated: 1
EndChar

StartChar: guilsinglright
Encoding: 8250 8250 107
Width: 472
VWidth: 2982
Flags: W
VStem: 2 481
DStem2: 201 902 2 902 0.582019 -0.813175<0 368.699> 2 114 201 114 0.582019 0.813175<115.822 484.52>
LayerCount: 2
Fore
SplineSet
2 902 m 1
 201 902 l 1
 483 508 l 1
 201 114 l 1
 2 114 l 1
 284 508 l 1
 2 902 l 1
EndSplineSet
Validated: 1
EndChar

StartChar: endash
Encoding: 8211 8211 108
Width: 780
VWidth: 2982
Flags: W
HStem: 427 162<107 673>
VStem: 107 566<427 589>
LayerCount: 2
Fore
SplineSet
673 589 m 1
 673 427 l 1
 107 427 l 1
 107 589 l 1
 673 589 l 1
EndSplineSet
Validated: 1
EndChar

StartChar: dagger
Encoding: 8224 8224 109
Width: 1168
VWidth: 2982
Flags: W
HStem: 902 166<107 476.152 693.848 1063>
VStem: 504 163<-322 789.04 1102.5 1529>
LayerCount: 2
Fore
SplineSet
667 -322 m 1
 504 -322 l 1
 519 918 l 1
 107 902 l 1
 107 1068 l 1
 517 1053 l 1
 504 1529 l 1
 667 1529 l 1
 651 1053 l 1
 1063 1068 l 1
 1063 902 l 1
 651 918 l 1
 667 -322 l 1
EndSplineSet
Validated: 1
EndChar

StartChar: daggerdbl
Encoding: 8225 8225 110
Width: 1168
VWidth: 2982
Flags: W
HStem: 226 163<107 500.762 669.238 1063> 239 135<125.238 519 651 1044.76> 820 163<107 500.762 669.238 1063> 835 134<125.238 519 651 1044.76>
VStem: 504 163<-322 180.656 1027.24 1529> 519 132<-263.656 239 374 835 969 1470.76>
LayerCount: 2
Fore
SplineSet
667 -322 m 1x48
 504 -322 l 1x48
 519 239 l 1x44
 107 226 l 1
 107 389 l 1x84
 519 374 l 1
 519 835 l 1x54
 107 820 l 1
 107 983 l 1x24
 519 969 l 1x14
 504 1529 l 1
 667 1529 l 1x18
 651 969 l 1x14
 1063 983 l 1
 1063 820 l 1x24
 651 835 l 1
 651 374 l 1x54
 1063 389 l 1
 1063 226 l 1x84
 651 239 l 1x44
 667 -322 l 1x48
EndSplineSet
Validated: 1
EndChar

StartChar: periodcentered
Encoding: 183 183 111
Width: 570
VWidth: 2982
Flags: W
HStem: 626 241<195.323 378.509>
VStem: 168 238<653.73 839.019>
LayerCount: 2
Fore
SplineSet
286 867 m 0
 352 867 406 812 406 745 c 0
 406 681 352 626 286 626 c 0
 222 626 168 681 168 745 c 0
 168 812 222 867 286 867 c 0
EndSplineSet
Validated: 1
EndChar

StartChar: paragraph
Encoding: 182 182 112
Width: 1295
VWidth: 2982
Flags: W
HStem: 1337 154<895 998>
VStem: 114 781<763.625 1154.77> 739 156<-242 425> 998 157<-242 1337>
LayerCount: 2
Fore
SplineSet
895 -242 m 1xb0
 739 -242 l 1
 739 425 l 1xb0
 329 430 114 692 114 959 c 0xd0
 114 1226 336 1491 752 1491 c 2
 1155 1491 l 1
 1155 -242 l 1
 998 -242 l 1
 998 1337 l 1
 895 1337 l 1
 895 -242 l 1xb0
EndSplineSet
Validated: 1
EndChar

StartChar: bullet
Encoding: 8226 8226 113
Width: 989
VWidth: 2982
Flags: W
HStem: 203 788<318.929 671.724>
VStem: 107 777<418.243 775.572>
LayerCount: 2
Fore
SplineSet
495 991 m 0
 709 991 884 812 884 598 c 0
 884 380 709 203 495 203 c 0
 282 203 107 380 107 598 c 0
 107 812 282 991 495 991 c 0
EndSplineSet
Validated: 1
EndChar

StartChar: quotesinglbase
Encoding: 8218 8218 114
Width: 570
VWidth: 2982
Flags: W
HStem: -271 459
VStem: 168 262<-19.8944 145.478>
LayerCount: 2
Fore
SplineSet
286 188 m 0
 356 188 430 134 430 30 c 0
 430 -154 271 -269 269 -271 c 1
 248 -278 l 1
 101 -278 l 1
 181 -215 l 1
 226 -177 269 -107 286 -51 c 1
 222 -49 168 2 168 69 c 0
 168 134 222 188 286 188 c 0
EndSplineSet
Validated: 1
EndChar

StartChar: quotedblbase
Encoding: 8222 8222 115
Width: 839
VWidth: 2982
Flags: W
HStem: -51 239<195.323 286 463.73 555>
VStem: 168 262<-19.8944 145.478> 436 262<-19.8944 145.478>
LayerCount: 2
Fore
SplineSet
555 188 m 0
 624 188 698 134 698 30 c 0
 698 -154 540 -269 538 -271 c 1
 517 -278 l 1
 369 -278 l 1
 450 -215 l 1
 495 -177 538 -107 555 -51 c 1
 491 -49 436 2 436 69 c 0
 436 134 491 188 555 188 c 0
286 188 m 0
 356 188 430 134 430 30 c 0
 430 -154 271 -269 269 -271 c 1
 248 -278 l 1
 101 -278 l 1
 181 -215 l 1
 226 -177 269 -107 286 -51 c 1
 222 -49 168 2 168 69 c 0
 168 134 222 188 286 188 c 0
EndSplineSet
Validated: 1
EndChar

StartChar: quotedblright
Encoding: 8221 8221 116
Width: 739
VWidth: 2982
Flags: W
HStem: 1288 237<134.556 232.129 401.084 496.011>
VStem: 107 262<1316.87 1483.58> 374 262<1316.87 1483.58>
LayerCount: 2
Fore
SplineSet
497 1288 m 1
 437 1288 374 1334 374 1406 c 0
 374 1471 427 1525 493 1525 c 0
 557 1525 636 1476 636 1367 c 0
 636 1182 477 1068 474 1066 c 2
 455 1059 l 1
 307 1059 l 1
 389 1124 l 2
 436 1160 481 1231 497 1288 c 1
233 1288 m 1
 172 1288 107 1334 107 1406 c 0
 107 1471 161 1525 226 1525 c 0
 291 1525 369 1476 369 1367 c 0
 369 1182 211 1068 208 1066 c 2
 188 1059 l 1
 40 1059 l 1
 126 1124 l 2
 173 1160 215 1231 233 1288 c 1
EndSplineSet
Validated: 1
EndChar

StartChar: guillemotright
Encoding: 187 187 117
Width: 883
VWidth: 2982
Flags: W
DStem2: 222 902 25 902 0.582019 -0.813175<0 369.863> 25 114 222 114 0.582019 0.813175<114.658 484.52> 551 902 352 902 0.582019 -0.813175<0 368.699> 352 114 551 114 0.582019 0.813175<115.822 484.52>
LayerCount: 2
Fore
SplineSet
25 902 m 1
 222 902 l 1
 504 508 l 1
 222 114 l 1
 25 114 l 1
 307 508 l 1
 25 902 l 1
352 902 m 1
 551 902 l 1
 833 508 l 1
 551 114 l 1
 352 114 l 1
 634 508 l 1
 352 902 l 1
EndSplineSet
Validated: 1
EndChar

StartChar: ellipsis
Encoding: 8230 8230 118
Width: 1765
VWidth: 2982
Flags: W
HStem: -51 239<195.323 378.509 794.73 978.186 1388.08 1572.83>
VStem: 168 238<-23.8323 160.593> 767 239<-23.8323 160.593> 1361 239<-23.8323 160.593>
LayerCount: 2
Fore
SplineSet
286 188 m 0
 352 188 406 134 406 69 c 0
 406 2 352 -51 286 -51 c 0
 222 -51 168 2 168 69 c 0
 168 134 222 188 286 188 c 0
1480 188 m 0
 1547 188 1600 134 1600 69 c 0
 1600 2 1547 -51 1480 -51 c 0
 1414 -51 1361 2 1361 69 c 0
 1361 134 1414 188 1480 188 c 0
886 188 m 0
 951 188 1006 134 1006 69 c 0
 1006 2 951 -51 886 -51 c 0
 822 -51 767 2 767 69 c 0
 767 134 822 188 886 188 c 0
EndSplineSet
Validated: 1
EndChar

StartChar: perthousand
Encoding: 8240 8240 119
Width: 2213
VWidth: 2982
Flags: W
HStem: -56 163<996.5 1211.63 1738.43 1964.28> 438 164<989.789 1218.37 1738.43 1964.28> 880 165<251.859 477.339> 1372 166<251.859 477.339>
VStem: 36 161<1101.16 1316.22> 530 162<1095.92 1317.66> 777 161<161.446 383.936> 1271 162<162.907 382.505> 1523 160<163.462 379.462> 2017 161<158.238 384.709>
DStem2: 81 -45 278 -45 0.578523 0.815666<113.969 1918.68>
LayerCount: 2
Fore
SplineSet
1433 275 m 0
 1433 94 1285 -54 1104 -54 c 0
 922 -54 777 94 777 275 c 0
 777 457 922 602 1104 602 c 0
 1285 602 1433 457 1433 275 c 0
938 275 m 0
 938 184 1010 109 1104 109 c 0
 1198 109 1271 184 1271 275 c 0
 1271 365 1198 438 1104 438 c 0
 1010 438 938 365 938 275 c 0
2178 271 m 0
 2178 90 2033 -56 1852 -56 c 0
 1670 -56 1523 90 1523 271 c 0
 1523 453 1670 600 1852 600 c 0
 2033 600 2178 453 2178 271 c 0
1683 271 m 0
 1683 181 1758 107 1852 107 c 0
 1946 107 2017 181 2017 271 c 0
 2017 363 1946 436 1852 436 c 0
 1758 436 1683 363 1683 271 c 0
692 1209 m 0
 692 1027 546 880 365 880 c 0
 184 880 36 1027 36 1209 c 0
 36 1390 184 1538 365 1538 c 0
 546 1538 692 1390 692 1209 c 0
197 1209 m 0
 197 1119 271 1045 365 1045 c 0
 459 1045 530 1119 530 1209 c 0
 530 1298 459 1372 365 1372 c 0
 271 1372 197 1298 197 1209 c 0
1191 1520 m 1
 1388 1520 l 1
 278 -45 l 1
 81 -45 l 1
 1191 1520 l 1
EndSplineSet
Validated: 1
EndChar

StartChar: questiondown
Encoding: 191 191 120
Width: 1089
VWidth: 2982
Flags: W
HStem: -564 161<380.109 682.336> 790 240<484 668.749>
VStem: 114 161<-298.051 -45.2006> 457 239<817.658 1002.68> 493 161<366.768 707> 818 160<-271.716 -116>
LayerCount: 2
Fore
SplineSet
575 790 m 0xf4
 510 790 457 844 457 912 c 0
 457 976 510 1030 575 1030 c 0
 643 1030 696 976 696 912 c 0
 696 844 643 790 575 790 c 0xf4
493 707 m 1xec
 654 707 l 1
 654 521 l 2
 654 158 275 27 275 -152 c 0
 275 -305 385 -403 526 -403 c 0
 701 -403 818 -267 818 -152 c 2
 818 -116 l 1
 978 -116 l 1
 978 -152 l 2
 978 -372 775 -564 526 -564 c 0
 289 -564 114 -389 114 -152 c 0
 114 126 493 233 493 521 c 2
 493 707 l 1xec
EndSplineSet
Validated: 1
EndChar

StartChar: grave
Encoding: 96 96 121
Width: 425
VWidth: 2982
Flags: W
HStem: 1194 364<192 211>
VStem: 13 320
LayerCount: 2
Fore
SplineSet
333 1194 m 1
 192 1194 l 1
 13 1558 l 1
 211 1558 l 1
 333 1194 l 1
EndSplineSet
Validated: 1
EndChar

StartChar: acute
Encoding: 180 180 122
Width: 630
VWidth: 2982
Flags: W
HStem: 1157 430
VStem: 139 532
LayerCount: 2
Fore
SplineSet
410 1587 m 1
 671 1587 l 1
 327 1157 l 1
 139 1157 l 1
 410 1587 l 1
EndSplineSet
Validated: 1
EndChar

StartChar: circumflex
Encoding: 710 710 123
Width: 690
VWidth: 2982
Flags: W
HStem: 1426 338
LayerCount: 2
Fore
SplineSet
297 1764 m 1
 393 1764 l 1
 703 1426 l 1
 483 1426 l 1
 346 1574 l 1
 211 1426 l 1
 -9 1426 l 1
 297 1764 l 1
EndSplineSet
Validated: 1
EndChar

StartChar: tilde
Encoding: 732 732 124
Width: 648
VWidth: 2982
Flags: W
HStem: 1269 164<370.588 484.525> 1379 159<169.72 289.943>
VStem: 485 130<1439 1525>
LayerCount: 2
Fore
SplineSet
36 1323 m 2x60
 36 1504 134 1538 199 1538 c 0x60
 312 1538 406 1437 459 1433 c 0
 466 1433 485 1444 485 1489 c 2
 485 1525 l 1
 615 1525 l 1
 615 1489 l 2
 615 1325 553 1269 459 1269 c 0xa0
 352 1269 248 1379 199 1379 c 0
 181 1379 171 1363 168 1320 c 2
 166 1288 l 1
 36 1288 l 1
 36 1323 l 2x60
EndSplineSet
Validated: 1
EndChar

StartChar: macron
Encoding: 175 175 125
Width: 899
VWidth: 2982
Flags: W
HStem: 1173 162<107 795>
LayerCount: 2
Fore
SplineSet
795 1335 m 1
 795 1173 l 1
 107 1173 l 1
 107 1335 l 1
 795 1335 l 1
EndSplineSet
Validated: 1
EndChar

StartChar: dotaccent
Encoding: 729 729 126
Width: 570
VWidth: 2982
Flags: W
HStem: 1202 240<195.323 378.509>
VStem: 168 238<1229.57 1414.59>
LayerCount: 2
Fore
SplineSet
286 1442 m 0
 352 1442 406 1388 406 1323 c 0
 406 1256 352 1202 286 1202 c 0
 222 1202 168 1256 168 1323 c 0
 168 1388 222 1442 286 1442 c 0
EndSplineSet
Validated: 1
EndChar

StartChar: dieresis
Encoding: 168 168 127
Width: 666
VWidth: 2982
Flags: W
HStem: 1173 239<63.3232 247.749 420.814 606.103>
VStem: 36 239<1200.08 1384.83> 393 241<1200.08 1384.83>
LayerCount: 2
Fore
SplineSet
154 1412 m 0
 222 1412 275 1359 275 1292 c 0
 275 1226 222 1173 154 1173 c 0
 90 1173 36 1226 36 1292 c 0
 36 1359 90 1412 154 1412 c 0
513 1412 m 0
 579 1412 634 1359 634 1292 c 0
 634 1226 579 1173 513 1173 c 0
 448 1173 393 1226 393 1292 c 0
 393 1359 448 1412 513 1412 c 0
EndSplineSet
Validated: 1
EndChar

StartChar: ring
Encoding: 730 730 128
Width: 570
VWidth: 2982
Flags: W
HStem: 1085 162<210.802 361.955> 1426 161<210.254 362.506>
VStem: 36 161<1260.82 1412.93> 376 162<1261.39 1412.38>
LayerCount: 2
Fore
SplineSet
538 1337 m 0
 538 1198 425 1085 286 1085 c 0
 148 1085 36 1198 36 1337 c 0
 36 1476 148 1587 286 1587 c 0
 425 1587 538 1476 538 1337 c 0
197 1337 m 0
 197 1290 237 1247 286 1247 c 0
 336 1247 376 1290 376 1337 c 0
 376 1386 336 1426 286 1426 c 0
 237 1426 197 1386 197 1337 c 0
EndSplineSet
Validated: 1
EndChar

StartChar: cedilla
Encoding: 184 184 129
Width: 624
VWidth: 2982
Flags: W
HStem: -459 160<162.062 358.624>
VStem: 359 160<-296.53 -241.327>
LayerCount: 2
Fore
SplineSet
295 11 m 1
 461 11 l 1
 401 -96 l 1
 510 -134 519 -224 519 -269 c 0
 519 -383 421 -457 297 -459 c 0
 242 -459 179 -444 124 -406 c 1
 94 -387 l 1
 181 -250 l 1
 211 -271 l 1
 242 -291 273 -299 299 -299 c 0
 333 -299 359 -286 359 -271 c 0
 359 -258 336 -242 282 -233 c 1
 164 -218 l 1
 295 11 l 1
EndSplineSet
Validated: 1
EndChar

StartChar: hungarumlaut
Encoding: 733 733 130
Width: 1017
VWidth: 2982
Flags: W
HStem: 1157 430
LayerCount: 2
Fore
SplineSet
410 1587 m 1
 671 1587 l 1
 327 1157 l 1
 139 1157 l 1
 410 1587 l 1
799 1587 m 1
 1059 1587 l 1
 716 1157 l 1
 526 1157 l 1
 799 1587 l 1
EndSplineSet
Validated: 1
EndChar

StartChar: ogonek
Encoding: 731 731 131
Width: 603
VWidth: 2982
Flags: W
HStem: -427 147<273.116 446.534>
VStem: 107 164<-275.135 -106.714>
LayerCount: 2
Fore
SplineSet
107 -226 m 0
 107 -119 186 -27 246 36 c 1
 444 36 l 1
 383 -25 l 1
 284 -128 271 -184 271 -224 c 0
 271 -269 320 -280 342 -280 c 0
 359 -280 378 -273 396 -262 c 1
 423 -239 l 1
 515 -352 l 1
 483 -374 l 2
 430 -410 372 -427 316 -427 c 0
 201 -427 107 -346 107 -226 c 0
EndSplineSet
Validated: 1
EndChar

StartChar: caron
Encoding: 711 711 132
Width: 690
VWidth: 2982
Flags: W
HStem: 1426 338
LayerCount: 2
Fore
SplineSet
393 1426 m 1
 297 1426 l 1
 -9 1764 l 1
 211 1764 l 1
 346 1617 l 1
 483 1764 l 1
 703 1764 l 1
 393 1426 l 1
EndSplineSet
Validated: 1
EndChar

StartChar: emdash
Encoding: 8212 8212 133
Width: 1376
VWidth: 2982
Flags: W
HStem: 427 162<107 1271>
LayerCount: 2
Fore
SplineSet
1271 589 m 1
 1271 427 l 1
 107 427 l 1
 107 589 l 1
 1271 589 l 1
EndSplineSet
Validated: 1
EndChar

StartChar: AE
Encoding: 198 198 134
Width: 1662
VWidth: 2982
Flags: W
HStem: 0 152<1097 1553> 440 156<448 853> 784 154<978 1471> 1339 154<873 1531>
DStem2: 25 0 192 0 0.390344 0.920669<65.1874 543.667 713.834 1433.39> 873 1339 730 1258 0.185438 -0.982656<53.0775 408.138 564.845 726.405 885.077 1207.95>
LayerCount: 2
Fore
SplineSet
1471 938 m 1
 1471 784 l 1
 978 784 l 1
 1097 152 l 1
 1553 152 l 1
 1553 0 l 1
 965 0 l 1
 882 440 l 1
 380 440 l 1
 192 0 l 1
 25 0 l 1
 658 1493 l 1
 1531 1493 l 1
 1531 1339 l 1
 873 1339 l 1
 949 938 l 1
 1471 938 l 1
448 596 m 1
 853 596 l 1
 730 1258 l 1
 448 596 l 1
EndSplineSet
Validated: 1
EndChar

StartChar: ordfeminine
Encoding: 170 170 135
Width: 836
VWidth: 2982
Flags: W
HStem: 585 149<255.464 491.643> 996 134<260.833 587.271> 1254 145<268.651 521.26>
VStem: 74 150<766.807 955.592> 598 154<844.148 983.419> 634 150<607.75 695.307>
LayerCount: 2
Fore
SplineSet
598 940 m 1xf8
 598 974 l 1
 546 987 483 996 423 996 c 0
 314 996 224 967 224 861 c 0
 224 777 291 734 374 734 c 0
 506 734 589 880 598 940 c 1xf8
213 1147 m 1
 87 1186 l 1
 119 1238 211 1399 401 1399 c 0
 591 1399 752 1260 752 1032 c 2
 752 822 l 2xf8
 752 737 779 632 784 611 c 1
 634 577 l 1xf4
 624 618 615 640 609 698 c 1
 551 636 472 585 374 585 c 0
 203 585 74 696 74 861 c 0
 74 1063 246 1130 414 1130 c 0
 474 1130 534 1124 589 1108 c 1
 562 1200 487 1254 393 1254 c 0
 286 1254 233 1179 213 1147 c 1
EndSplineSet
Validated: 1
EndChar

StartChar: Lslash
Encoding: 321 321 136
Width: 1158
VWidth: 2877
Flags: W
HStem: 0 154<302 1066> 1473 20G<143 302>
VStem: 143 159<154 414 771 1493>
DStem2: 0 504 143 414 0.745798 0.666172<0 46.6937 403.099 746.437>
LayerCount: 2
Fore
SplineSet
1066 0 m 1
 143 0 l 1
 143 414 l 1
 0 286 l 1
 0 504 l 1
 143 628 l 1
 143 1493 l 1
 302 1493 l 1
 302 771 l 1
 665 1094 l 1
 665 880 l 1
 302 555 l 1
 302 154 l 1
 1066 154 l 1
 1066 0 l 1
EndSplineSet
Validated: 1
EndChar

StartChar: Oslash
Encoding: 216 216 137
Width: 1749
VWidth: 2877
Flags: W
HStem: -13 152<645.242 1106.6> 1352 154<647.763 1113.89>
VStem: 98 160<521.323 969.724> 1497 157<521.288 965.084>
DStem2: 239 -77 374 -164 0.549014 0.835813<1.40122 278.553 433.246 1642.78 1797.42 2071.57>
LayerCount: 2
Fore
SplineSet
374 -164 m 1
 239 -77 l 1
 389 152 l 1
 213 291 98 506 98 745 c 0
 98 1166 448 1506 878 1506 c 0
 1003 1506 1121 1478 1226 1426 c 1
 1377 1654 l 1
 1513 1570 l 1
 1363 1341 l 1
 1540 1200 1654 987 1654 745 c 0
 1654 325 1305 -13 878 -13 c 0
 750 -13 632 15 526 67 c 1
 374 -164 l 1
1276 1209 m 1
 611 197 l 1
 692 161 781 139 878 139 c 0
 1220 139 1497 412 1497 745 c 0
 1497 931 1410 1100 1276 1209 c 1
1141 1296 m 1
 1061 1332 972 1352 878 1352 c 0
 532 1352 258 1081 258 745 c 0
 258 560 342 393 477 282 c 1
 1141 1296 l 1
EndSplineSet
Validated: 1
EndChar

StartChar: OE
Encoding: 338 338 138
Width: 1998
VWidth: 2982
Flags: W
HStem: -15 154<662.098 965.48> 0 152<1126 1890> 784 154<1126 1831> 1339 154<1121 1884> 1354 152<663.833 965.829>
VStem: 114 157<521.195 969.863> 967 159<152 784 938 1339>
LayerCount: 2
Fore
SplineSet
1121 938 m 1x36
 1831 938 l 1
 1831 784 l 1
 1126 784 l 1
 1126 152 l 1
 1890 152 l 1
 1890 0 l 1
 1041 0 l 1x76
 994 -9 942 -15 891 -15 c 0
 463 -15 114 325 114 745 c 0
 114 1166 463 1506 891 1506 c 0xae
 942 1506 994 1502 1041 1493 c 1
 1884 1493 l 1
 1884 1339 l 1
 1121 1339 l 1
 1121 938 l 1x36
967 143 m 1
 967 1350 l 1
 942 1352 918 1354 891 1354 c 0
 549 1354 271 1081 271 745 c 0
 271 412 549 139 891 139 c 0xae
 918 139 942 141 967 143 c 1
EndSplineSet
Validated: 1
EndChar

StartChar: ordmasculine
Encoding: 186 186 139
Width: 818
VWidth: 2982
Flags: W
HStem: 581 160<283.146 540.259> 1175 160<283.146 540.259>
VStem: 36 161<828.408 1088.28> 626 162<828.408 1088.28>
LayerCount: 2
Fore
SplineSet
788 959 m 0
 788 750 620 581 412 581 c 0
 203 581 36 750 36 959 c 0
 36 1166 203 1335 412 1335 c 0
 620 1335 788 1166 788 959 c 0
197 959 m 0
 197 837 295 741 412 741 c 0
 528 741 626 837 626 959 c 0
 626 1079 528 1175 412 1175 c 0
 295 1175 197 1079 197 959 c 0
EndSplineSet
Validated: 1
EndChar

StartChar: ae
Encoding: 230 230 140
Width: 1893
VWidth: 2822
Flags: W
HStem: -17 151<312.881 612.712 1133.63 1444.3> 474 148<404.783 792 969 1602> 878 152<378.313 672.579 1130.4 1440.18>
VStem: 105 157<186.777 375.692> 795 158<318.041 474>
LayerCount: 2
Fore
SplineSet
453 134 m 0
 591 134 730 239 795 346 c 1
 795 481 l 1
 549 477 262 448 262 278 c 0
 262 222 312 134 453 134 c 0
969 622 m 1
 1602 622 l 1
 1558 775 1429 878 1285 878 c 0
 1144 878 1014 775 969 622 c 1
953 474 m 1
 953 450 l 1
 978 269 1121 139 1283 139 c 0
 1410 139 1531 205 1607 338 c 1
 1743 265 l 1
 1607 22 1386 -13 1283 -13 c 0
 1106 -13 959 83 873 224 c 1
 777 85 609 -17 453 -17 c 0
 208 -17 105 145 105 278 c 0
 105 609 566 622 792 622 c 1
 773 797 647 882 526 882 c 0
 380 882 307 763 284 732 c 1
 154 812 l 1
 188 861 302 1032 526 1032 c 0
 671 1032 812 955 891 818 c 1
 978 944 1121 1030 1285 1030 c 0
 1549 1030 1755 812 1777 551 c 1
 1782 474 l 1
 953 474 l 1
EndSplineSet
Validated: 1
EndChar

StartChar: lslash
Encoding: 322 322 141
Width: 440
VWidth: 2877
Flags: W
HStem: 0 21G<143 302> 1473 20G<143 302>
VStem: 143 159<0 430 788 1493>
LayerCount: 2
Fore
SplineSet
302 0 m 1
 143 0 l 1
 143 430 l 1
 27 327 l 1
 27 542 l 1
 143 645 l 1
 143 1493 l 1
 302 1493 l 1
 302 788 l 1
 414 889 l 1
 414 673 l 1
 302 571 l 1
 302 0 l 1
EndSplineSet
Validated: 1
EndChar

StartChar: oslash
Encoding: 248 248 142
Width: 1282
VWidth: 2822
Flags: W
HStem: -13 150<505.142 829.697> 878 152<464.086 694>
VStem: 98 160<335.512 675.993> 1034 152<339.708 678.657>
DStem2: 188 -83 333 -158 0.465165 0.885224<1.0572 216.599 377.114 1083.42 1258.14 1417.76>
LayerCount: 2
Fore
SplineSet
1186 508 m 0
 1186 220 942 -13 643 -13 c 0
 568 -13 497 0 432 27 c 1
 333 -158 l 1
 188 -83 l 1
 291 109 l 1
 173 205 98 346 98 508 c 0
 98 797 342 1030 643 1030 c 0
 685 1030 728 1025 765 1016 c 1
 848 1173 l 1
 996 1094 l 1
 922 955 l 1
 1081 865 1186 698 1186 508 c 0
694 875 m 1
 679 878 662 878 645 878 c 0
 430 878 258 712 258 508 c 0
 258 408 297 318 365 250 c 1
 694 875 l 1
850 822 m 1
 504 161 l 1
 546 145 596 137 645 137 c 0
 859 137 1034 302 1034 508 c 0
 1034 640 961 756 850 822 c 1
EndSplineSet
Validated: 1
EndChar

StartChar: oe
Encoding: 339 339 143
Width: 2134
VWidth: 2822
Flags: W
HStem: -13 150<464.086 828.325 1370.53 1688.98> 474 148<1211 1847> 878 152<464.086 828.325 1373.26 1681.85>
VStem: 98 160<339.708 675.993>
LayerCount: 2
Fore
SplineSet
258 508 m 0
 258 302 430 137 645 137 c 0
 859 137 1034 302 1034 508 c 0
 1034 712 859 878 645 878 c 0
 430 878 258 712 258 508 c 0
1194 474 m 1
 1207 280 1356 139 1525 139 c 0
 1652 139 1773 205 1852 338 c 1
 1988 265 l 1
 1849 22 1627 -13 1525 -13 c 0
 1343 -13 1191 87 1108 235 c 1
 1012 85 839 -13 643 -13 c 0
 342 -13 98 220 98 508 c 0
 98 797 342 1030 643 1030 c 0
 839 1030 1012 929 1108 779 c 1
 1194 927 1348 1030 1527 1030 c 0
 1790 1030 1997 812 2019 551 c 1
 2023 474 l 1
 1194 474 l 1
1211 622 m 1
 1847 622 l 1
 1800 775 1670 878 1527 878 c 0
 1386 878 1256 775 1211 622 c 1
EndSplineSet
Validated: 1
EndChar

StartChar: germandbls
Encoding: 223 223 144
Width: 1107
VWidth: 2982
Flags: W
HStem: -15 139<491.203 773.831> 2 21G<143 302> 1511 150<419.504 685.018>
VStem: 143 159<2 1374.12> 546 161<785.702 928.121> 788 159<1152.96 1410.18> 880 161<232.762 496.612>
LayerCount: 2
Fore
SplineSet
438 205 m 5xba
 508 148 577 124 643 124 c 4
 775 124 880 231 880 389 c 4xba
 880 575 546 636 546 865 c 4
 546 1043 788 1104 788 1262 c 4
 788 1421 669 1511 551 1511 c 4
 430 1511 302 1417 302 1151 c 6
 302 2 l 5
 143 2 l 5
 143 1149 l 6
 143 1493 344 1661 555 1661 c 4
 754 1661 947 1511 947 1260 c 4x7c
 947 1030 707 942 707 861 c 4
 707 743 1041 649 1041 385 c 4
 1041 156 880 -15 667 -15 c 4
 560 -15 438 30 320 130 c 5
 438 205 l 5xba
EndSplineSet
Validated: 1
EndChar

StartChar: logicalnot
Encoding: 172 172 145
Width: 1329
VWidth: 2982
Flags: W
HStem: 786 161<54 1117>
VStem: 1117 161<322 786>
LayerCount: 2
Fore
SplineSet
1278 947 m 1
 1278 322 l 1
 1117 322 l 1
 1117 786 l 1
 54 786 l 1
 54 947 l 1
 1278 947 l 1
EndSplineSet
Validated: 1
EndChar

StartChar: trademark
Encoding: 8482 8482 146
Width: 1696
VWidth: 2982
Flags: W
HStem: 1647 143<124 331 477 685>
VStem: 331 146<1010 1647>
DStem2: 656 1010 806 1010 0.219133 0.975695<32.87 462.264> 1128 1276 891 1431 0.483121 -0.875554<-250.21 0> 1128 1276 1126 994 0.497022 0.867738<0 255.773> 1431 1805 1372 1431 0.207932 -0.978143<353.558 782.198>
LayerCount: 2
Fore
SplineSet
685 1790 m 1
 685 1647 l 1
 477 1647 l 1
 477 1010 l 1
 331 1010 l 1
 331 1647 l 1
 124 1647 l 1
 124 1790 l 1
 685 1790 l 1
1372 1431 m 1
 1126 994 l 1
 891 1431 l 1
 806 1010 l 1
 656 1010 l 1
 835 1807 l 1
 1128 1276 l 1
 1431 1805 l 1
 1600 1010 l 1
 1453 1010 l 1
 1372 1431 l 1
EndSplineSet
Validated: 1
EndChar

StartChar: Eth
Encoding: 208 208 147
Width: 1362
VWidth: 2982
Flags: W
HStem: 0 152<302 702.815> 669 155<-2 143 302 734> 1339 154<302 702.815>
VStem: 143 159<152 669 824 1339> 1094 160<522.791 968.221>
LayerCount: 2
Fore
SplineSet
302 152 m 1
 474 152 l 2
 820 152 1094 412 1094 745 c 0
 1094 1081 820 1339 474 1339 c 2
 302 1339 l 1
 302 824 l 1
 734 824 l 1
 734 669 l 1
 302 669 l 1
 302 152 l 1
143 824 m 1
 143 1493 l 1
 474 1493 l 2
 902 1493 1254 1166 1254 745 c 0
 1254 325 902 0 474 0 c 2
 143 0 l 1
 143 669 l 1
 -2 669 l 1
 -2 824 l 1
 143 824 l 1
EndSplineSet
Validated: 1
EndChar

StartChar: onehalf
Encoding: 189 189 148
Width: 1819
VWidth: 2982
Flags: W
HStem: 0 154<1215 1701> 878 154<1292.05 1500.12> 1473 20G<1286.57 1493>
VStem: 289 157<481 1247> 1074 157<654 811.632> 1563 161<591.955 814.223>
DStem2: 224 0 416 0 0.585034 0.811009<112.327 1840.92>
LayerCount: 2
Fore
SplineSet
1701 154 m 1
 1701 0 l 1
 1032 0 l 1
 1032 74 l 2
 1032 419 1563 483 1563 687 c 0
 1563 799 1482 878 1397 878 c 0
 1312 878 1231 799 1231 687 c 2
 1231 654 l 1
 1074 654 l 1
 1074 687 l 2
 1074 873 1215 1032 1399 1032 c 0
 1583 1032 1724 875 1724 690 c 0
 1724 403 1312 331 1215 154 c 1
 1701 154 l 1
1301 1493 m 1
 1493 1493 l 1
 416 0 l 1
 224 0 l 1
 1301 1493 l 1
289 1247 m 1
 201 1186 l 1
 111 1314 l 1
 446 1540 l 1
 446 481 l 1
 289 481 l 1
 289 1247 l 1
EndSplineSet
Validated: 1
LCarets2: 2 0 0 
Ligature2: "'frac' Diagonal Fractions in Latin lookup 42" one fraction two
Ligature2: "'frac' Diagonal Fractions in Latin lookup 42" one slash two
EndChar

StartChar: plusminus
Encoding: 177 177 149
Width: 944
VWidth: 2982
Flags: W
HStem: 0 154<54 893> 640 155<54 396 551 893>
VStem: 396 155<305 640 795 1130>
LayerCount: 2
Fore
SplineSet
893 154 m 1
 893 0 l 1
 54 0 l 1
 54 154 l 1
 893 154 l 1
551 305 m 1
 396 305 l 1
 396 640 l 1
 54 640 l 1
 54 795 l 1
 396 795 l 1
 396 1130 l 1
 551 1130 l 1
 551 795 l 1
 893 795 l 1
 893 640 l 1
 551 640 l 1
 551 305 l 1
EndSplineSet
Validated: 1
EndChar

StartChar: Thorn
Encoding: 222 222 150
Width: 1152
VWidth: 2982
Flags: W
HStem: 0 21G<143 302> 302 157<302 703.144> 1034 150<302 703.144> 1473 20G<143 302>
VStem: 143 159<0 314 464.216 1027.92 1173 1493> 884 161<604.9 884.264>
LayerCount: 2
Fore
SplineSet
302 1023 m 5
 302 470 l 5
 356 461 410 459 457 459 c 4
 718 459 884 566 884 745 c 4
 884 927 718 1034 457 1034 c 4
 410 1034 356 1030 302 1023 c 5
143 0 m 5
 143 1493 l 5
 302 1493 l 5
 302 1173 l 5
 354 1182 406 1184 457 1184 c 4
 814 1184 1045 1008 1045 743 c 4
 1045 479 814 302 457 302 c 4
 406 302 354 305 302 314 c 5
 302 0 l 5
 143 0 l 5
EndSplineSet
Validated: 1
EndChar

StartChar: onequarter
Encoding: 188 188 151
Width: 1819
VWidth: 2982
Flags: W
HStem: 0 21G<314 520.427 1419 1576> 154 158<1151 1419 1576 1674> 1473 20G<1375.59 1583>
VStem: 289 157<481 1247> 1419 155<0 154 312 660>
DStem2: 314 0 506 0 0.585034 0.811009<112.327 1840.33> 835 154 1151 312 0.609591 0.792716<317.88 757.116>
LayerCount: 2
Fore
SplineSet
1390 1493 m 1
 1583 1493 l 1
 506 0 l 1
 314 0 l 1
 1390 1493 l 1
1419 312 m 1
 1419 660 l 1
 1151 312 l 1
 1419 312 l 1
289 1247 m 1
 201 1186 l 1
 111 1314 l 1
 446 1540 l 1
 446 481 l 1
 289 481 l 1
 289 1247 l 1
1419 154 m 1
 835 154 l 1
 1574 1115 l 1
 1574 312 l 1
 1726 312 l 1
 1674 154 l 1
 1576 154 l 1
 1576 0 l 1
 1419 0 l 1
 1419 154 l 1
EndSplineSet
Validated: 1
LCarets2: 2 0 0 
Ligature2: "'frac' Diagonal Fractions in Latin lookup 42" one fraction four
Ligature2: "'frac' Diagonal Fractions in Latin lookup 42" one slash four
EndChar

StartChar: divide
Encoding: 247 247 152
Width: 1078
VWidth: 2982
Flags: W
HStem: 349 240<448.084 632.832> 665 161<107 974> 904 240<448.084 632.832>
VStem: 421 239<376.407 561.103 931.73 1116.43>
LayerCount: 2
Fore
SplineSet
540 589 m 0
 607 589 660 534 660 468 c 0
 660 403 607 349 540 349 c 0
 474 349 421 403 421 468 c 0
 421 534 474 589 540 589 c 0
540 1144 m 0
 607 1144 660 1090 660 1023 c 0
 660 959 607 904 540 904 c 0
 474 904 421 959 421 1023 c 0
 421 1090 474 1144 540 1144 c 0
974 826 m 1
 974 665 l 1
 107 665 l 1
 107 826 l 1
 974 826 l 1
EndSplineSet
Validated: 1
EndChar

StartChar: brokenbar
Encoding: 166 166 153
Width: 373
VWidth: 2982
Flags: W
VStem: 107 162<-544 333 681 1558>
LayerCount: 2
Fore
SplineSet
269 681 m 1
 107 681 l 1
 107 1558 l 1
 269 1558 l 1
 269 681 l 1
269 -544 m 1
 107 -544 l 1
 107 333 l 1
 269 333 l 1
 269 -544 l 1
EndSplineSet
Validated: 1
EndChar

StartChar: degree
Encoding: 176 176 154
Width: 791
VWidth: 2982
Flags: W
HStem: 1175 166<301.55 491.428> 1591 164<302.52 490.48>
VStem: 107 164<1371.69 1559.65> 521 166<1370.73 1560.61>
LayerCount: 2
Fore
SplineSet
687 1466 m 0
 687 1305 557 1175 396 1175 c 0
 237 1175 107 1305 107 1466 c 0
 107 1625 237 1755 396 1755 c 0
 557 1755 687 1625 687 1466 c 0
271 1466 m 0
 271 1395 327 1341 396 1341 c 0
 468 1341 521 1395 521 1466 c 0
 521 1536 468 1591 396 1591 c 0
 327 1591 271 1536 271 1466 c 0
EndSplineSet
Validated: 1
EndChar

StartChar: thorn
Encoding: 254 254 155
Width: 1147
VWidth: 2982
Flags: W
HStem: -497 21G<119 275> -17 156<451.698 768.857> 880 150<451.698 768.857>
VStem: 119 156<-497 126 325.832 693.168 895 1491> 953 162<327.999 688.326>
LayerCount: 2
Fore
SplineSet
275 -497 m 1
 119 -497 l 1
 119 1491 l 1
 275 1491 l 1
 275 895 l 1
 365 983 481 1030 615 1030 c 0
 897 1030 1115 795 1115 506 c 0
 1115 220 897 -17 615 -17 c 0
 481 -17 365 38 275 126 c 1
 275 -497 l 1
275 540 m 1
 275 479 l 1
 289 278 440 139 611 139 c 0
 795 139 953 295 953 510 c 0
 953 724 795 880 611 880 c 0
 440 880 289 741 275 540 c 1
EndSplineSet
Validated: 1
EndChar

StartChar: threequarters
Encoding: 190 190 156
Width: 1819
VWidth: 2982
Flags: W
HStem: 0 21G<430 636.427 1480 1634> 156 156<1209 1480 1634 1732> 463 152<315.586 558.02> 980 155<401 536.816> 1202 21G<158 316> 1354 152<344.407 529.376>
VStem: 94 156<682.345 833> 158 158<1202 1322.43> 557 152<1155.98 1324.67> 622 151<680.021 916.125> 1480 152<0 156 312 658>
DStem2: 430 0 622 0 0.585034 0.811009<112.327 1840.33> 893 156 1209 312 0.609591 0.792716<316.294 755.773>
LayerCount: 2
Fore
SplineSet
94 833 m 1xfe60
 250 833 l 1
 250 797 l 2
 250 696 333 615 436 615 c 0
 540 615 622 696 622 797 c 0xfe60
 622 897 540 980 436 980 c 2
 401 980 l 1
 401 1135 l 1
 436 1135 l 2
 504 1135 557 1175 557 1235 c 0
 557 1301 504 1354 436 1354 c 0
 369 1354 316 1301 316 1235 c 2
 316 1202 l 1
 158 1202 l 1
 158 1235 l 2
 158 1386 282 1506 434 1506 c 0
 587 1506 709 1386 709 1235 c 0xfda0
 709 1171 683 1108 638 1061 c 1
 718 1000 773 904 773 797 c 0
 773 613 620 463 434 463 c 0
 246 463 94 613 94 797 c 2
 94 833 l 1xfe60
1506 1493 m 1
 1699 1493 l 1
 622 0 l 1
 430 0 l 1
 1506 1493 l 1
1480 312 m 1
 1480 658 l 1
 1209 312 l 1
 1480 312 l 1
1480 156 m 1
 893 156 l 1
 1632 1117 l 1
 1632 312 l 1
 1784 312 l 1
 1732 156 l 1
 1634 156 l 1
 1634 0 l 1
 1480 0 l 1
 1480 156 l 1
EndSplineSet
Validated: 1
LCarets2: 2 0 0 
Ligature2: "'frac' Diagonal Fractions in Latin lookup 42" three fraction four
Ligature2: "'frac' Diagonal Fractions in Latin lookup 42" three slash four
EndChar

StartChar: registered
Encoding: 174 174 157
Width: 1765
VWidth: 2982
Flags: W
HStem: -15 154<656.876 1110.34> 660 154<767 895> 1038 156<767 1023.14> 1354 152<656.876 1110.34>
VStem: 114 157<521.195 969.863> 611 156<297 660 814 1038> 1045 157<834.069 1017.28> 1497 157<521.195 969.863>
DStem2: 1057 690 895 660 0.486775 -0.873527<0 361.307>
LayerCount: 2
Fore
SplineSet
1276 297 m 1
 1094 297 l 1
 895 660 l 1
 767 660 l 1
 767 297 l 1
 611 297 l 1
 611 1194 l 1
 938 1194 l 2
 1085 1194 1202 1072 1202 927 c 0
 1202 824 1144 732 1057 690 c 1
 1276 297 l 1
271 745 m 0
 271 412 544 139 884 139 c 0
 1222 139 1497 412 1497 745 c 0
 1497 1081 1222 1354 884 1354 c 0
 544 1354 271 1081 271 745 c 0
1654 745 m 0
 1654 325 1307 -15 884 -15 c 0
 459 -15 114 325 114 745 c 0
 114 1166 459 1506 884 1506 c 0
 1307 1506 1654 1166 1654 745 c 0
767 814 m 1
 942 814 l 2
 996 814 1045 859 1045 927 c 0
 1045 991 996 1038 938 1038 c 2
 767 1038 l 1
 767 814 l 1
EndSplineSet
Validated: 1
EndChar

StartChar: eth
Encoding: 240 240 158
Width: 1168
VWidth: 2982
Flags: W
HStem: -15 152<414.159 765.302> 893 157<414.159 770.359>
VStem: 47 152<344.582 687.691> 976 159<344.582 691>
DStem2: 184 1184 262 1053 0.862056 0.506813<0.847847 301.677 530.989 842.958>
LayerCount: 2
Fore
SplineSet
720 1320 m 1
 1097 994 1135 645 1135 517 c 0
 1135 222 891 -15 591 -15 c 0
 291 -15 47 222 47 517 c 0
 47 812 291 1050 591 1050 c 0
 665 1050 734 1036 797 1012 c 1
 737 1094 662 1171 581 1238 c 1
 262 1053 l 1
 184 1184 l 1
 444 1337 l 1
 338 1401 248 1435 161 1461 c 1
 208 1610 l 1
 342 1570 459 1518 591 1426 c 1
 912 1612 l 1
 989 1478 l 1
 720 1320 l 1
589 893 m 0
 374 893 199 724 199 515 c 0
 199 307 374 137 589 137 c 0
 803 137 976 307 976 515 c 0
 975 744 790 893 589 893 c 0
EndSplineSet
Validated: 1
EndChar

StartChar: multiply
Encoding: 215 215 159
Width: 1143
VWidth: 2982
Flags: W
DStem2: 252 1179 25 1179 0.709951 -0.704251<0 456.083 618.776 1064.26> 40 314 267 314 0.702151 0.712028<159.388 600.632 762.282 1214.84>
LayerCount: 2
Fore
SplineSet
1124 314 m 1
 893 314 l 1
 577 628 l 1
 267 314 l 1
 40 314 l 1
 463 743 l 1
 25 1179 l 1
 252 1179 l 1
 575 857 l 1
 893 1179 l 1
 1119 1179 l 1
 690 743 l 1
 1124 314 l 1
EndSplineSet
Validated: 1
EndChar

StartChar: copyright
Encoding: 169 169 160
Width: 1765
VWidth: 2982
Flags: W
HStem: -15 154<656.876 1110.34> 295 155<752.03 1010.7> 1036 155<752.03 1011.25> 1354 152<656.876 1110.34>
VStem: 114 157<521.195 969.863> 472 156<581.829 905.01> 1497 157<521.195 969.863>
LayerCount: 2
Fore
SplineSet
1654 745 m 0
 1654 325 1307 -15 884 -15 c 0
 459 -15 114 325 114 745 c 0
 114 1166 459 1506 884 1506 c 0
 1307 1506 1654 1166 1654 745 c 0
271 745 m 0
 271 412 544 139 884 139 c 0
 1222 139 1497 412 1497 745 c 0
 1497 1081 1222 1354 884 1354 c 0
 544 1354 271 1081 271 745 c 0
1110 615 m 1
 1245 540 l 1
 1204 463 1100 295 880 295 c 0
 647 295 472 504 472 743 c 0
 472 985 647 1191 880 1191 c 0
 1100 1191 1204 1025 1245 947 c 1
 1110 871 l 1
 1081 922 1019 1036 880 1036 c 0
 750 1036 628 914 628 743 c 0
 628 573 750 450 880 450 c 0
 1023 450 1085 571 1110 615 c 1
EndSplineSet
Validated: 1
EndChar

StartChar: Aacute
Encoding: 193 193 161
Width: 1380
VWidth: 2880
Flags: W
HStem: 2 21G<25 203.371 1179.49 1359> 444 154<453 938> 1488 20G<683.142 700.858>
DStem2: 25 2 195 2 0.404955 0.914337<68.8424 547.896 718.265 1284> 692 1508 694 1110 0.404955 -0.914337<364.716 364.716 1097.58 1577.85>
LayerCount: 2
Fore
SplineSet
784 1914 m 1
 1066 1914 l 1
 683 1576 l 1
 500 1576 l 1
 784 1914 l 1
453 598 m 1
 938 598 l 1
 694 1110 l 1
 453 598 l 1
380 444 m 1
 195 2 l 1
 25 2 l 1
 692 1508 l 1
 1359 2 l 1
 1188 2 l 1
 1000 444 l 1
 380 444 l 1
EndSplineSet
Validated: 1
EndChar

StartChar: Acircumflex
Encoding: 194 194 162
Width: 1380
VWidth: 2880
Flags: W
HStem: 2 21G<25 203.371 1179.49 1359> 444 154<453 938> 1488 20G<683.142 700.858>
DStem2: 25 2 195 2 0.404955 0.914337<68.8424 547.896 718.265 1284> 692 1508 694 1110 0.404955 -0.914337<364.716 364.716 1097.58 1577.85>
LayerCount: 2
Fore
SplineSet
453 598 m 1
 938 598 l 1
 694 1110 l 1
 453 598 l 1
380 444 m 1
 195 2 l 1
 25 2 l 1
 692 1508 l 1
 1359 2 l 1
 1188 2 l 1
 1000 444 l 1
 380 444 l 1
643 1914 m 1
 739 1914 l 1
 1047 1576 l 1
 828 1576 l 1
 692 1724 l 1
 555 1576 l 1
 336 1576 l 1
 643 1914 l 1
EndSplineSet
Validated: 1
EndChar

StartChar: Adieresis
Encoding: 196 196 163
Width: 1380
VWidth: 2880
Flags: W
HStem: 2 21G<25 203.371 1179.49 1359> 444 154<453 938> 1488 20G<683.142 700.858> 1576 239<418.981 604.27 777.251 962>
VStem: 391 241<1603.32 1787.75> 750 239<1603.32 1787.75>
DStem2: 25 2 195 2 0.404955 0.914337<68.8424 547.896 718.265 1284> 692 1508 694 1110 0.404955 -0.914337<364.716 364.716 1097.58 1577.85>
LayerCount: 2
Fore
SplineSet
453 598 m 5
 938 598 l 5
 694 1110 l 5
 453 598 l 5
380 444 m 5
 195 2 l 5
 25 2 l 5
 692 1508 l 5
 1359 2 l 5
 1188 2 l 5
 1000 444 l 5
 380 444 l 5
513 1815 m 4
 577 1815 632 1762 632 1694 c 4
 632 1630 577 1576 513 1576 c 4
 446 1576 391 1630 391 1694 c 4
 391 1762 446 1815 513 1815 c 4
871 1815 m 4
 936 1815 989 1762 989 1694 c 4
 989 1630 936 1576 871 1576 c 4
 803 1576 750 1630 750 1694 c 4
 750 1762 803 1815 871 1815 c 4
EndSplineSet
Validated: 1
EndChar

StartChar: Agrave
Encoding: 192 192 164
Width: 1380
VWidth: 2880
Flags: W
HStem: 2 21G<25 203.371 1179.49 1359> 444 154<453 938> 1488 20G<683.142 700.858>
DStem2: 25 2 195 2 0.404955 0.914337<68.8424 547.896 718.265 1284> 692 1508 694 1110 0.404955 -0.914337<364.716 364.716 1097.58 1577.85>
LayerCount: 2
Fore
SplineSet
269 1914 m 1
 551 1914 l 1
 835 1576 l 1
 651 1576 l 1
 269 1914 l 1
453 598 m 1
 938 598 l 1
 694 1110 l 1
 453 598 l 1
380 444 m 1
 195 2 l 1
 25 2 l 1
 692 1508 l 1
 1359 2 l 1
 1188 2 l 1
 1000 444 l 1
 380 444 l 1
EndSplineSet
Validated: 1
EndChar

StartChar: Aring
Encoding: 197 197 165
Width: 1380
VWidth: 2880
Flags: W
HStem: 2 21G<25 200.507 1179.49 1356> 444 154<450 936> 1488 20G<683.142 700.818> 1560 161<614.394 765.198> 1901 160<614.394 765.198>
VStem: 438 162<1735.44 1886.75> 779 161<1734.87 1887.31>
DStem2: 25 2 192 2 0.404955 0.914337<67.6275 547.896 717.051 1284> 692 1508 694 1110 0.403431 -0.91501<364.981 364.981 1097.83 1578.11>
LayerCount: 2
Fore
SplineSet
450 598 m 1
 936 598 l 1
 694 1110 l 1
 450 598 l 1
380 444 m 1
 192 2 l 1
 25 2 l 1
 692 1508 l 1
 1356 2 l 1
 1188 2 l 1
 1000 444 l 1
 380 444 l 1
940 1811 m 0
 940 1672 828 1560 690 1560 c 0
 551 1560 438 1672 438 1811 c 0
 438 1950 551 2061 690 2061 c 0
 828 2061 940 1950 940 1811 c 0
600 1811 m 0
 600 1764 643 1721 690 1721 c 0
 739 1721 779 1764 779 1811 c 0
 779 1860 739 1901 690 1901 c 0
 643 1901 600 1860 600 1811 c 0
EndSplineSet
Validated: 1
EndChar

StartChar: Atilde
Encoding: 195 195 166
Width: 1380
VWidth: 2880
Flags: W
HStem: 2 21G<25 203.371 1179.49 1359> 444 154<453 938> 1488 20G<683.142 700.858> 1560 164<734.008 847.661> 1669 160<532.785 653.793>
VStem: 401 127<1576 1667.19> 850 130<1724.23 1815>
DStem2: 25 2 195 2 0.404955 0.914337<68.8424 547.896 718.265 1284> 692 1508 694 1110 0.404955 -0.914337<364.716 364.716 1097.58 1577.85>
LayerCount: 2
Fore
SplineSet
453 598 m 1xe6
 938 598 l 1
 694 1110 l 1
 453 598 l 1xe6
380 444 m 1
 195 2 l 1
 25 2 l 1
 692 1508 l 1
 1359 2 l 1
 1188 2 l 1
 1000 444 l 1
 380 444 l 1
820 1724 m 0xf6
 843 1724 850 1748 850 1779 c 2
 850 1815 l 1
 980 1815 l 1
 980 1779 l 2
 980 1621 914 1560 820 1560 c 0xf6
 715 1560 614 1669 563 1669 c 0
 544 1669 532 1653 530 1610 c 2
 528 1576 l 1
 401 1576 l 1
 403 1614 l 2
 407 1692 421 1829 566 1829 c 0xee
 682 1829 773 1724 820 1724 c 0xf6
EndSplineSet
Validated: 1
EndChar

StartChar: Ccedilla
Encoding: 199 199 167
Width: 1617
VWidth: 2877
Flags: W
HStem: -459 160<665.168 858.964> 1350 156<647.763 1105.16>
VStem: 98 160<519.756 968.724> 861 162<-296.615 -241.054>
LayerCount: 2
Fore
SplineSet
1395 408 m 1
 1523 325 l 1
 1372 124 1177 9 951 -11 c 1
 904 -96 l 1
 1014 -134 1023 -224 1023 -269 c 0
 1023 -383 925 -457 801 -459 c 0
 745 -459 683 -444 626 -406 c 2
 598 -387 l 1
 685 -250 l 1
 714 -271 l 1
 745 -291 777 -299 803 -299 c 0
 837 -299 861 -286 861 -271 c 0
 861 -258 839 -242 786 -233 c 1
 667 -218 l 1
 788 -9 l 1
 401 34 98 356 98 745 c 0
 98 1166 448 1506 878 1506 c 0
 1265 1506 1464 1249 1523 1168 c 1
 1397 1077 l 1
 1348 1139 1188 1350 878 1350 c 0
 532 1350 258 1079 258 743 c 0
 258 410 532 137 878 137 c 0
 1186 137 1348 344 1395 408 c 1
EndSplineSet
Validated: 1
EndChar

StartChar: Eacute
Encoding: 201 201 168
Width: 1158
VWidth: 2877
Flags: W
HStem: 0 154<302 1061> 784 154<302 1003> 1339 154<302 1066>
VStem: 143 159<154 784 938 1339>
LayerCount: 2
Fore
SplineSet
891 1914 m 5
 508 1576 l 5
 327 1576 l 5
 611 1914 l 5
 891 1914 l 5
1003 938 m 1
 1003 784 l 1
 302 784 l 1
 302 154 l 1
 1061 154 l 1
 1061 0 l 1
 143 0 l 1
 143 1493 l 1
 1066 1493 l 1
 1066 1339 l 1
 302 1339 l 1
 302 938 l 1
 1003 938 l 1
EndSplineSet
Validated: 1
EndChar

StartChar: Ecircumflex
Encoding: 202 202 169
Width: 1158
VWidth: 2877
Flags: W
HStem: 0 154<302 1061> 784 154<302 1003> 1339 154<302 1066>
VStem: 143 159<154 784 938 1339>
LayerCount: 2
Fore
SplineSet
602 1724 m 1
 466 1576 l 1
 246 1576 l 1
 555 1914 l 1
 654 1914 l 1
 963 1576 l 1
 743 1576 l 1
 602 1724 l 1
1003 938 m 1
 1003 784 l 1
 302 784 l 1
 302 154 l 1
 1061 154 l 1
 1061 0 l 1
 143 0 l 1
 143 1493 l 1
 1066 1493 l 1
 1066 1339 l 1
 302 1339 l 1
 302 938 l 1
 1003 938 l 1
EndSplineSet
Validated: 1
EndChar

StartChar: Edieresis
Encoding: 203 203 170
Width: 1158
VWidth: 2877
Flags: W
HStem: 0 154<302 1061> 784 154<302 1003> 1339 154<302 1066> 1576 239<332.323 516.749 689.407 874.426>
VStem: 143 159<154 784 938 1339> 305 239<1603.32 1787.75> 662 240<1603.32 1787.75>
LayerCount: 2
Fore
SplineSet
423 1815 m 0
 491 1815 544 1762 544 1694 c 0
 544 1630 491 1576 423 1576 c 0
 359 1576 305 1630 305 1694 c 0
 305 1762 359 1815 423 1815 c 0
781 1815 m 0
 848 1815 902 1762 902 1694 c 0
 902 1630 848 1576 781 1576 c 0
 716 1576 662 1630 662 1694 c 0
 662 1762 716 1815 781 1815 c 0
1003 938 m 1
 1003 784 l 1
 302 784 l 1
 302 154 l 1
 1061 154 l 1
 1061 0 l 1
 143 0 l 1
 143 1493 l 1
 1066 1493 l 1
 1066 1339 l 1
 302 1339 l 1
 302 938 l 1
 1003 938 l 1
EndSplineSet
Validated: 1
EndChar

StartChar: Egrave
Encoding: 200 200 171
Width: 1158
VWidth: 2877
Flags: W
HStem: 0 154<302 1061> 784 154<302 1003> 1339 154<302 1066>
VStem: 143 159<154 784 938 1339>
LayerCount: 2
Fore
SplineSet
184 1914 m 5
 463 1914 l 5
 748 1576 l 5
 566 1576 l 5
 184 1914 l 5
1003 938 m 1
 1003 784 l 1
 302 784 l 1
 302 154 l 1
 1061 154 l 1
 1061 0 l 1
 143 0 l 1
 143 1493 l 1
 1066 1493 l 1
 1066 1339 l 1
 302 1339 l 1
 302 938 l 1
 1003 938 l 1
EndSplineSet
Validated: 1
EndChar

StartChar: Iacute
Encoding: 205 205 172
Width: 440
VWidth: 2877
Flags: W
HStem: 0 21G<143 302> 1473 20G<143 302>
VStem: 143 159<0 1493>
LayerCount: 2
Fore
SplineSet
585 1914 m 1
 201 1576 l 1
 17 1576 l 1
 302 1914 l 1
 585 1914 l 1
302 0 m 1
 143 0 l 1
 143 1493 l 1
 302 1493 l 1
 302 0 l 1
EndSplineSet
Validated: 1
EndChar

StartChar: Icircumflex
Encoding: 206 206 173
Width: 440
VWidth: 2877
Flags: W
HStem: 0 21G<143 302> 1473 20G<143 302>
VStem: 143 159<0 1493>
LayerCount: 2
Fore
SplineSet
302 0 m 1
 143 0 l 1
 143 1493 l 1
 302 1493 l 1
 302 0 l 1
220 1724 m 1
 83 1576 l 1
 -137 1576 l 1
 171 1914 l 1
 271 1914 l 1
 577 1576 l 1
 359 1576 l 1
 220 1724 l 1
EndSplineSet
Validated: 1
EndChar

StartChar: Idieresis
Encoding: 207 207 174
Width: 440
VWidth: 2877
Flags: W
HStem: 0 21G<143 302> 1473 20G<143 302> 1576 239<-51.3418 133.677 307.251 492>
VStem: -79 240<1603.32 1787.75> 143 159<0 1493> 280 239<1603.32 1787.75>
LayerCount: 2
Fore
SplineSet
302 0 m 1xe8
 143 0 l 1
 143 1493 l 1
 302 1493 l 1
 302 0 l 1xe8
43 1815 m 0
 107 1815 161 1762 161 1694 c 0
 161 1630 107 1576 43 1576 c 0
 -25 1576 -79 1630 -79 1694 c 0xf0
 -79 1762 -25 1815 43 1815 c 0
401 1815 m 0
 466 1815 519 1762 519 1694 c 0
 519 1630 466 1576 401 1576 c 0
 333 1576 280 1630 280 1694 c 0xe4
 280 1762 333 1815 401 1815 c 0
EndSplineSet
Validated: 1
EndChar

StartChar: Igrave
Encoding: 204 204 175
Width: 440
VWidth: 2877
Flags: W
HStem: 0 21G<143 302> 1473 20G<143 302>
VStem: 143 159<0 1493>
LayerCount: 2
Fore
SplineSet
-208 1914 m 1
 74 1914 l 1
 359 1576 l 1
 175 1576 l 1
 -208 1914 l 1
302 0 m 1
 143 0 l 1
 143 1493 l 1
 302 1493 l 1
 302 0 l 1
EndSplineSet
Validated: 1
EndChar

StartChar: Ntilde
Encoding: 209 209 176
Width: 1671
VWidth: 2877
Flags: W
HStem: 0 21G<143 302 1511.5 1533> 1488 5G<143 164.502 1374 1533> 1621 163<880.405 994.215> 1728 162<678.344 799.714>
VStem: 143 159<0 1128> 546 129<1636 1726.67> 996 132<1789.21 1873> 1374 159<363 1493>
DStem2: 143 1508 302 1128 0.732221 -0.681067<375.229 1681.19>
LayerCount: 2
Fore
SplineSet
143 0 m 1xcf
 143 1508 l 1
 1374 363 l 1
 1374 1493 l 1
 1533 1493 l 1
 1533 -17 l 1
 302 1128 l 1
 302 0 l 1
 143 0 l 1xcf
967 1784 m 0xef
 989 1784 996 1809 996 1837 c 2
 996 1873 l 1
 1128 1873 l 1
 1128 1837 l 2
 1128 1681 1061 1621 967 1621 c 0xef
 861 1621 759 1728 709 1728 c 0
 690 1728 679 1713 675 1670 c 1
 675 1636 l 1
 546 1636 l 1
 549 1672 l 1
 551 1753 566 1890 712 1890 c 0xdf
 828 1890 920 1784 967 1784 c 0xef
EndSplineSet
Validated: 1
EndChar

StartChar: Oacute
Encoding: 211 211 177
Width: 1749
VWidth: 2877
Flags: W
HStem: -13 152<647.763 1106.6> 1352 154<647.763 1106.6>
VStem: 98 160<521.288 969.724> 1497 157<521.288 969.724>
LayerCount: 2
Fore
SplineSet
1285 1914 m 1
 902 1576 l 1
 720 1576 l 1
 1006 1914 l 1
 1285 1914 l 1
1654 745 m 0
 1654 325 1305 -13 878 -13 c 0
 448 -13 98 325 98 745 c 0
 98 1166 448 1506 878 1506 c 0
 1305 1506 1654 1166 1654 745 c 0
258 745 m 0
 258 412 532 139 878 139 c 0
 1220 139 1497 412 1497 745 c 0
 1497 1081 1220 1352 878 1352 c 0
 532 1352 258 1081 258 745 c 0
EndSplineSet
Validated: 1
EndChar

StartChar: Ocircumflex
Encoding: 212 212 178
Width: 1749
VWidth: 2877
Flags: W
HStem: -13 152<647.763 1106.6> 1352 154<647.763 1106.6>
VStem: 98 160<521.288 969.724> 1497 157<521.288 969.724>
LayerCount: 2
Fore
SplineSet
1654 745 m 4
 1654 325 1305 -13 878 -13 c 4
 448 -13 98 325 98 745 c 4
 98 1166 448 1506 878 1506 c 4
 1305 1506 1654 1166 1654 745 c 4
258 745 m 4
 258 412 532 139 878 139 c 4
 1220 139 1497 412 1497 745 c 4
 1497 1081 1220 1352 878 1352 c 4
 532 1352 258 1081 258 745 c 4
875 1724 m 1
 739 1576 l 1
 519 1576 l 1
 826 1914 l 1
 927 1914 l 1
 1233 1576 l 1
 1014 1576 l 1
 875 1724 l 1
EndSplineSet
Validated: 1
EndChar

StartChar: Odieresis
Encoding: 214 214 179
Width: 1749
VWidth: 2877
Flags: W
HStem: -13 152<647.763 1106.6> 1352 154<647.763 1106.6> 1576 239<604.73 790.019 963.084 1147.51>
VStem: 98 160<521.288 969.724> 577 241<1603.32 1787.75> 936 239<1603.32 1787.75> 1497 157<521.288 969.724>
LayerCount: 2
Fore
SplineSet
1654 745 m 0
 1654 325 1305 -13 878 -13 c 0
 448 -13 98 325 98 745 c 0
 98 1166 448 1506 878 1506 c 0
 1305 1506 1654 1166 1654 745 c 0
258 745 m 0
 258 412 532 139 878 139 c 0
 1220 139 1497 412 1497 745 c 0
 1497 1081 1220 1352 878 1352 c 0
 532 1352 258 1081 258 745 c 0
696 1815 m 0
 763 1815 818 1762 818 1694 c 0
 818 1630 763 1576 696 1576 c 0
 632 1576 577 1630 577 1694 c 0
 577 1762 632 1815 696 1815 c 0
1055 1815 m 0
 1121 1815 1175 1762 1175 1694 c 0
 1175 1630 1121 1576 1055 1576 c 0
 989 1576 936 1630 936 1694 c 0
 936 1762 989 1815 1055 1815 c 0
EndSplineSet
Validated: 1
EndChar

StartChar: Ograve
Encoding: 210 210 180
Width: 1749
VWidth: 2877
Flags: W
HStem: -13 152<647.763 1106.6> 1352 154<647.763 1106.6>
VStem: 98 160<521.288 969.724> 1497 157<521.288 969.724>
LayerCount: 2
Fore
SplineSet
401 1914 m 5
 683 1914 l 5
 967 1576 l 5
 784 1576 l 5
 401 1914 l 5
1654 745 m 0
 1654 325 1305 -13 878 -13 c 0
 448 -13 98 325 98 745 c 0
 98 1166 448 1506 878 1506 c 0
 1305 1506 1654 1166 1654 745 c 0
258 745 m 0
 258 412 532 139 878 139 c 0
 1220 139 1497 412 1497 745 c 0
 1497 1081 1220 1352 878 1352 c 0
 532 1352 258 1081 258 745 c 0
EndSplineSet
Validated: 1
EndChar

StartChar: Otilde
Encoding: 213 213 181
Width: 1749
VWidth: 2877
Flags: W
HStem: -13 152<647.763 1106.6> 1352 154<647.763 1106.6> 1621 163<920.384 1032.73> 1728 162<718.666 839.598>
VStem: 98 160<521.288 969.724> 587 127<1636 1726.67> 1034 132<1789.21 1873> 1497 157<521.288 969.724>
LayerCount: 2
Fore
SplineSet
1654 745 m 0xcf
 1654 325 1305 -13 878 -13 c 0
 448 -13 98 325 98 745 c 0
 98 1166 448 1506 878 1506 c 0
 1305 1506 1654 1166 1654 745 c 0xcf
258 745 m 0
 258 412 532 139 878 139 c 0
 1220 139 1497 412 1497 745 c 0
 1497 1081 1220 1352 878 1352 c 0
 532 1352 258 1081 258 745 c 0
1006 1784 m 0xef
 1016 1784 1034 1790 1034 1837 c 2
 1034 1873 l 1
 1166 1873 l 1
 1166 1837 l 2
 1166 1681 1100 1621 1006 1621 c 0xef
 902 1621 799 1728 748 1728 c 0
 730 1728 718 1713 716 1670 c 2
 714 1636 l 1
 587 1636 l 1
 587 1672 l 1
 591 1753 607 1890 752 1890 c 0xdf
 867 1890 961 1784 1006 1784 c 0xef
EndSplineSet
Validated: 1
EndChar

StartChar: Scaron
Encoding: 352 352 182
Width: 1183
VWidth: 2877
Flags: W
HStem: -17 156<425.126 767.096> 1352 156<456.858 741.051>
VStem: 98 157<326.531 469.735> 218 156<1035.86 1268.68> 931 157<295.554 580.824>
LayerCount: 2
Fore
SplineSet
1008 1186 m 1xd8
 859 1135 l 1
 848 1168 l 1
 803 1294 698 1352 593 1352 c 0
 461 1352 374 1256 374 1141 c 0xd8
 374 848 1088 933 1088 444 c 0
 1088 168 848 -17 591 -17 c 0
 372 -17 148 119 103 434 c 1
 98 468 l 1
 255 487 l 1xe8
 260 455 l 1
 293 231 438 139 591 139 c 0
 765 139 931 258 931 448 c 0
 931 812 218 707 218 1144 c 0
 218 1339 367 1508 593 1508 c 0
 759 1508 929 1410 996 1218 c 1
 1008 1186 l 1xd8
640 1547 m 1
 544 1547 l 1
 237 1882 l 1
 457 1882 l 1
 593 1737 l 1
 730 1882 l 1
 949 1882 l 1
 640 1547 l 1
EndSplineSet
Validated: 1
EndChar

StartChar: Uacute
Encoding: 218 218 183
Width: 1393
VWidth: 2877
Flags: W
HStem: -15 154<532.286 868.145> 1473 20G<143 302 1097 1256>
VStem: 143 159<386.872 1493> 1097 159<373.338 1493>
LayerCount: 2
Fore
SplineSet
835 1914 m 5
 1115 1914 l 5
 732 1576 l 5
 551 1576 l 5
 835 1914 l 5
143 1493 m 1
 302 1493 l 1
 302 575 l 2
 302 327 491 139 703 139 c 0
 914 139 1097 327 1097 575 c 2
 1097 1493 l 1
 1256 1493 l 1
 1256 575 l 2
 1256 252 1010 -15 698 -15 c 0
 387 -15 143 252 143 575 c 2
 143 1493 l 1
EndSplineSet
Validated: 1
EndChar

StartChar: Ucircumflex
Encoding: 219 219 184
Width: 1393
VWidth: 2877
Flags: W
HStem: -15 154<532.286 868.145> 1473 20G<143 302 1097 1256>
VStem: 143 159<386.872 1493> 1097 159<373.338 1493>
LayerCount: 2
Fore
SplineSet
143 1493 m 1
 302 1493 l 1
 302 575 l 2
 302 327 491 139 703 139 c 0
 914 139 1097 327 1097 575 c 2
 1097 1493 l 1
 1256 1493 l 1
 1256 575 l 2
 1256 252 1010 -15 698 -15 c 0
 387 -15 143 252 143 575 c 2
 143 1493 l 1
1057 1576 m 1
 833 1576 l 1
 696 1724 l 1
 560 1576 l 1
 340 1576 l 1
 649 1914 l 1
 748 1914 l 1
 1057 1576 l 1
EndSplineSet
Validated: 1
EndChar

StartChar: Udieresis
Encoding: 220 220 185
Width: 1393
VWidth: 2877
Flags: W
HStem: -15 154<532.286 868.145> 1473 20G<143 302 1097 1256> 1576 239<428.323 610.916 786.084 968.677>
VStem: 143 159<386.872 1493> 401 237<1603.32 1787.75> 759 237<1603.32 1787.75> 1097 159<373.338 1493>
LayerCount: 2
Fore
SplineSet
143 1493 m 1
 302 1493 l 1
 302 575 l 2
 302 327 491 139 703 139 c 0
 914 139 1097 327 1097 575 c 2
 1097 1493 l 1
 1256 1493 l 1
 1256 575 l 2
 1256 252 1010 -15 698 -15 c 0
 387 -15 143 252 143 575 c 2
 143 1493 l 1
519 1815 m 0
 585 1815 638 1762 638 1694 c 0
 638 1630 585 1576 519 1576 c 0
 455 1576 401 1630 401 1694 c 0
 401 1762 455 1815 519 1815 c 0
878 1815 m 0
 942 1815 996 1762 996 1694 c 0
 996 1630 942 1576 878 1576 c 0
 812 1576 759 1630 759 1694 c 0
 759 1762 812 1815 878 1815 c 0
EndSplineSet
Validated: 1
EndChar

StartChar: Ugrave
Encoding: 217 217 186
Width: 1393
VWidth: 2877
Flags: W
HStem: -15 154<532.286 868.145> 1473 20G<143 302 1097 1256>
VStem: 143 159<386.872 1493> 1097 159<373.338 1493>
LayerCount: 2
Fore
SplineSet
233 1914 m 5
 515 1914 l 5
 799 1576 l 5
 615 1576 l 5
 233 1914 l 5
143 1493 m 1
 302 1493 l 1
 302 575 l 2
 302 327 491 139 703 139 c 0
 914 139 1097 327 1097 575 c 2
 1097 1493 l 1
 1256 1493 l 1
 1256 575 l 2
 1256 252 1010 -15 698 -15 c 0
 387 -15 143 252 143 575 c 2
 143 1493 l 1
EndSplineSet
Validated: 1
EndChar

StartChar: Yacute
Encoding: 221 221 187
Width: 1303
VWidth: 2877
Flags: W
HStem: 0 21G<575 734> 1473 20G<25 220.986 1089.07 1285>
VStem: 575 159<0 640>
DStem2: 208 1493 25 1493 0.541902 -0.840441<0 822.677> 656 803 734 640 0.542598 0.839993<0 821.594>
LayerCount: 2
Fore
SplineSet
777 1914 m 1
 1059 1914 l 1
 675 1576 l 1
 493 1576 l 1
 777 1914 l 1
25 1493 m 1
 208 1493 l 1
 656 803 l 1
 1102 1493 l 1
 1285 1493 l 1
 734 640 l 1
 734 0 l 1
 575 0 l 1
 575 640 l 1
 25 1493 l 1
EndSplineSet
Validated: 1
EndChar

StartChar: Ydieresis
Encoding: 376 376 188
Width: 1303
VWidth: 2877
Flags: W
HStem: 0 21G<575 734> 1473 20G<25 220.986 1089.07 1285> 1576 239<383.323 565.916 741.084 923.677>
VStem: 356 237<1603.32 1787.75> 575 159<0 640> 714 237<1603.32 1787.75>
DStem2: 208 1493 25 1493 0.541902 -0.840441<0 822.677> 656 803 734 640 0.542598 0.839993<0 821.594>
LayerCount: 2
Fore
SplineSet
25 1493 m 1xe8
 208 1493 l 1
 656 803 l 1
 1102 1493 l 1
 1285 1493 l 1
 734 640 l 1
 734 0 l 1
 575 0 l 1
 575 640 l 1
 25 1493 l 1xe8
474 1815 m 0
 540 1815 593 1762 593 1694 c 0
 593 1630 540 1576 474 1576 c 0
 410 1576 356 1630 356 1694 c 0xf0
 356 1762 410 1815 474 1815 c 0
833 1815 m 0
 897 1815 951 1762 951 1694 c 0
 951 1630 897 1576 833 1576 c 0
 767 1576 714 1630 714 1694 c 0xe4
 714 1762 767 1815 833 1815 c 0
EndSplineSet
Validated: 1
EndChar

StartChar: Zcaron
Encoding: 381 381 189
Width: 1250
VWidth: 2877
Flags: W
HStem: 0 154<318 1179> 1339 154<161 933>
DStem2: 25 0 318 154 0.562513 0.826789<292.142 1617.83>
LayerCount: 2
Fore
SplineSet
161 1493 m 1
 1229 1493 l 1
 318 154 l 1
 1231 154 l 1
 1179 0 l 1
 25 0 l 1
 933 1339 l 1
 107 1339 l 1
 161 1493 l 1
675 1547 m 1
 577 1547 l 1
 271 1882 l 1
 491 1882 l 1
 626 1737 l 1
 763 1882 l 1
 983 1882 l 1
 675 1547 l 1
EndSplineSet
Validated: 1
EndChar

StartChar: aacute
Encoding: 225 225 190
Width: 1094
VWidth: 2822
Flags: W
HStem: -17 151<312.881 612.66> 0 21G<815 998> 481 130<418.717 792> 882 150<384.453 663.943> 1473 20G<568.077 865>
VStem: 105 157<186.777 375.921> 795 158<2.33618 139 286.702 481 611 737.911>
LayerCount: 2
Fore
SplineSet
998 0 m 1x7e
 824 0 l 1x7e
 806 41 795 93 795 139 c 1
 707 51 589 -17 453 -17 c 0xbe
 208 -17 105 145 105 278 c 0
 105 609 566 611 792 611 c 1
 773 786 647 882 526 882 c 0
 380 882 307 763 284 732 c 1
 154 812 l 1
 188 861 302 1032 526 1032 c 0
 741 1032 953 867 953 577 c 2
 953 242 l 2
 953 152 972 49 998 0 c 1x7e
585 1493 m 1
 865 1493 l 1
 481 1155 l 1
 299 1155 l 1
 585 1493 l 1
453 134 m 0xbe
 591 134 730 239 795 346 c 1
 795 481 l 1
 551 477 262 450 262 278 c 0
 262 222 312 134 453 134 c 0xbe
EndSplineSet
Validated: 1
EndChar

StartChar: acircumflex
Encoding: 226 226 191
Width: 1094
VWidth: 2822
Flags: W
HStem: -17 151<312.881 612.66> 0 21G<815 998> 481 130<418.717 792> 882 150<384.453 663.943> 1473 20G<458.893 591.284>
VStem: 105 157<186.777 375.921> 795 158<2.33618 139 286.702 481 611 737.911>
LayerCount: 2
Fore
SplineSet
998 0 m 1x7e
 824 0 l 1x7e
 806 41 795 93 795 139 c 1
 707 51 589 -17 453 -17 c 0xbe
 208 -17 105 145 105 278 c 0
 105 609 566 611 792 611 c 1
 773 786 647 882 526 882 c 0
 380 882 307 763 284 732 c 1
 154 812 l 1
 188 861 302 1032 526 1032 c 0
 741 1032 953 867 953 577 c 2
 953 242 l 2
 953 152 972 49 998 0 c 1x7e
477 1493 m 1
 573 1493 l 1
 882 1155 l 1
 662 1155 l 1
 526 1303 l 1
 389 1155 l 1
 171 1155 l 1
 477 1493 l 1
453 134 m 0xbe
 591 134 730 239 795 346 c 1
 795 481 l 1
 551 477 262 450 262 278 c 0
 262 222 312 134 453 134 c 0xbe
EndSplineSet
Validated: 1
EndChar

StartChar: adieresis
Encoding: 228 228 192
Width: 1094
VWidth: 2822
Flags: W
HStem: -17 151<312.881 612.66> 0 21G<815 998> 481 130<418.717 792> 882 150<384.453 663.943> 1157 240<251.323 435.749 608.814 794.103>
VStem: 105 157<186.777 375.921> 224 239<1184.57 1369.59> 581 241<1184.57 1369.59> 795 158<2.33618 139 286.702 481 611 737.911>
LayerCount: 2
Fore
SplineSet
998 0 m 1x7c80
 824 0 l 1x7c80
 806 41 795 93 795 139 c 1
 707 51 589 -17 453 -17 c 0xbc80
 208 -17 105 145 105 278 c 0
 105 609 566 611 792 611 c 1
 773 786 647 882 526 882 c 0
 380 882 307 763 284 732 c 1
 154 812 l 1
 188 861 302 1032 526 1032 c 0
 741 1032 953 867 953 577 c 2
 953 242 l 2
 953 152 972 49 998 0 c 1x7c80
342 1397 m 0
 410 1397 463 1343 463 1278 c 0
 463 1211 410 1157 342 1157 c 0
 278 1157 224 1211 224 1278 c 0x3a
 224 1343 278 1397 342 1397 c 0
701 1397 m 0
 767 1397 822 1343 822 1278 c 0
 822 1211 767 1157 701 1157 c 0
 636 1157 581 1211 581 1278 c 0x39
 581 1343 636 1397 701 1397 c 0
453 134 m 0xbc80
 591 134 730 239 795 346 c 1
 795 481 l 1
 551 477 262 450 262 278 c 0
 262 222 312 134 453 134 c 0xbc80
EndSplineSet
Validated: 1
EndChar

StartChar: agrave
Encoding: 224 224 193
Width: 1094
VWidth: 2822
Flags: W
HStem: -17 151<312.881 612.66> 0 21G<815 998> 481 130<418.717 792> 882 150<384.453 663.943> 1473 20G<77 372.805>
VStem: 105 157<186.777 375.921> 795 158<2.33618 139 286.702 481 611 737.911>
LayerCount: 2
Fore
SplineSet
998 0 m 1x7e
 824 0 l 1x7e
 806 41 795 93 795 139 c 1
 707 51 589 -17 453 -17 c 0xbe
 208 -17 105 145 105 278 c 0
 105 609 566 611 792 611 c 1
 773 786 647 882 526 882 c 0
 380 882 307 763 284 732 c 1
 154 812 l 1
 188 861 302 1032 526 1032 c 0
 741 1032 953 867 953 577 c 2
 953 242 l 2
 953 152 972 49 998 0 c 1x7e
77 1493 m 1
 356 1493 l 1
 640 1155 l 1
 459 1155 l 1
 77 1493 l 1
453 134 m 0xbe
 591 134 730 239 795 346 c 1
 795 481 l 1
 551 477 262 450 262 278 c 0
 262 222 312 134 453 134 c 0xbe
EndSplineSet
Validated: 1
EndChar

StartChar: aring
Encoding: 229 229 194
Width: 1094
VWidth: 2822
Flags: W
HStem: -17 151<312.881 612.66> 0 21G<815 998> 481 130<418.717 792> 882 150<384.453 663.943> 1144 161<450.207 601.197> 1484 161<450.207 601.197>
VStem: 105 157<186.777 375.921> 275 161<1319.09 1469.97> 615 162<1319.09 1469.97> 795 158<2.33618 139 286.702 481 611 737.911>
LayerCount: 2
Fore
SplineSet
998 0 m 1x7fc0
 824 0 l 1x7fc0
 806 41 795 93 795 139 c 1
 707 51 589 -17 453 -17 c 0xbfc0
 208 -17 105 145 105 278 c 0
 105 609 566 611 792 611 c 1
 773 786 647 882 526 882 c 0
 380 882 307 763 284 732 c 1
 154 812 l 1
 188 861 302 1032 526 1032 c 0
 741 1032 953 867 953 577 c 2
 953 242 l 2
 953 152 972 49 998 0 c 1x7fc0
777 1395 m 0
 777 1256 665 1144 526 1144 c 0
 387 1144 275 1256 275 1395 c 0
 275 1533 387 1645 526 1645 c 0
 665 1645 777 1533 777 1395 c 0
436 1395 m 0
 436 1345 477 1305 526 1305 c 0
 573 1305 615 1345 615 1395 c 0
 615 1442 573 1484 526 1484 c 0
 477 1484 436 1442 436 1395 c 0
453 134 m 0xbfc0
 591 134 730 239 795 346 c 1
 795 481 l 1
 551 477 262 450 262 278 c 0
 262 222 312 134 453 134 c 0xbfc0
EndSplineSet
Validated: 1
EndChar

StartChar: atilde
Encoding: 227 227 195
Width: 1094
VWidth: 2822
Flags: W
HStem: -17 151<312.881 612.66> 0 21G<815 998> 481 130<418.717 792> 882 150<384.453 663.943> 1139 166<569.689 688.298> 1249 159<370.301 493.019>
VStem: 105 157<186.777 375.921> 239 130<1157 1248.75> 690 128<1311.16 1388> 795 158<2.33618 139 286.702 481 611 737.911>
LayerCount: 2
Fore
SplineSet
998 0 m 1x7240
 824 0 l 1x7240
 806 41 795 93 795 139 c 1
 707 51 589 -17 453 -17 c 0xb240
 208 -17 105 145 105 278 c 0
 105 609 566 611 792 611 c 1
 773 786 647 882 526 882 c 0
 380 882 307 763 284 732 c 1
 154 812 l 1
 188 861 302 1032 526 1032 c 0
 741 1032 953 867 953 577 c 2
 953 242 l 2
 953 152 972 49 998 0 c 1x7240
239 1194 m 2x3580
 239 1377 338 1408 403 1408 c 0x3580
 513 1408 609 1307 662 1305 c 0
 673 1305 690 1312 690 1352 c 2
 690 1388 l 1
 818 1388 l 1
 818 1352 l 2
 818 1198 752 1139 662 1139 c 0x3980
 555 1139 453 1249 401 1249 c 0
 383 1249 372 1235 369 1194 c 1
 369 1157 l 1
 239 1157 l 1
 239 1194 l 2x3580
453 134 m 0xb240
 591 134 730 239 795 346 c 1
 795 481 l 1
 551 477 262 450 262 278 c 0
 262 222 312 134 453 134 c 0xb240
EndSplineSet
Validated: 1
EndChar

StartChar: ccedilla
Encoding: 231 231 196
Width: 1113
VWidth: 2822
Flags: W
HStem: -403 138<411.188 604.409> 875 155<428.982 745.239>
VStem: 98 154<328.65 685.935> 609 162<-255.248 -153.823>
LayerCount: 2
Fore
SplineSet
884 338 m 1
 1021 265 l 1
 978 192 873 27 667 -9 c 1
 651 -40 l 1
 761 -79 771 -166 771 -213 c 0
 771 -327 671 -403 549 -403 c 0
 493 -403 430 -385 374 -349 c 1
 344 -329 l 1
 432 -224 l 1
 461 -244 l 2
 481 -258 504 -265 524 -265 c 0
 571 -265 609 -233 609 -201 c 0
 609 -179 587 -154 532 -145 c 2
 436 -130 l 1
 504 -7 l 1
 269 36 98 255 98 508 c 0
 98 788 309 1030 587 1030 c 0
 861 1030 987 808 1021 752 c 1
 884 675 l 1
 848 737 765 875 587 875 c 0
 410 875 252 720 252 510 c 0
 252 299 412 139 587 139 c 0
 775 139 859 295 884 338 c 1
EndSplineSet
Validated: 1
EndChar

StartChar: eacute
Encoding: 233 233 197
Width: 1183
VWidth: 2822
Flags: W
HStem: -13 152<435.786 758.712> 474 148<273 908> 878 152<438.868 745.99> 1475 20G<668.195 967>
LayerCount: 2
Fore
SplineSet
685 1495 m 5
 967 1495 l 5
 585 1157 l 5
 401 1157 l 5
 685 1495 l 5
273 622 m 1
 908 622 l 1
 865 775 734 878 591 878 c 0
 450 878 320 775 273 622 c 1
255 474 m 1
 271 280 421 139 587 139 c 0
 716 139 835 205 914 338 c 1
 1050 265 l 1
 912 22 692 -13 587 -13 c 0
 309 -13 98 226 98 508 c 0
 98 788 314 1030 591 1030 c 0
 855 1030 1059 812 1081 551 c 1
 1085 474 l 1
 255 474 l 1
EndSplineSet
Validated: 1
EndChar

StartChar: ecircumflex
Encoding: 234 234 198
Width: 1183
VWidth: 2822
Flags: W
HStem: -13 152<435.786 758.712> 474 148<273 908> 878 152<438.868 745.99> 1475 20G<525.834 658.284>
LayerCount: 2
Fore
SplineSet
273 622 m 1
 908 622 l 1
 865 775 734 878 591 878 c 0
 450 878 320 775 273 622 c 1
255 474 m 1
 271 280 421 139 587 139 c 0
 716 139 835 205 914 338 c 1
 1050 265 l 1
 912 22 692 -13 587 -13 c 0
 309 -13 98 226 98 508 c 0
 98 788 314 1030 591 1030 c 0
 855 1030 1059 812 1081 551 c 1
 1085 474 l 1
 255 474 l 1
544 1495 m 1
 640 1495 l 1
 949 1157 l 1
 730 1157 l 1
 593 1305 l 1
 457 1157 l 1
 237 1157 l 1
 544 1495 l 1
EndSplineSet
Validated: 1
EndChar

StartChar: edieresis
Encoding: 235 235 199
Width: 1183
VWidth: 2822
Flags: W
HStem: -13 152<435.786 758.712> 474 148<273 908> 878 152<438.868 745.99> 1157 240<320.251 505 678.658 863.677>
VStem: 293 239<1184.57 1369.59> 651 240<1184.57 1369.59>
LayerCount: 2
Fore
SplineSet
273 622 m 5
 908 622 l 5
 865 775 734 878 591 878 c 4
 450 878 320 775 273 622 c 5
255 474 m 5
 271 280 421 139 587 139 c 4
 716 139 835 205 914 338 c 5
 1050 265 l 5
 912 22 692 -13 587 -13 c 4
 309 -13 98 226 98 508 c 4
 98 788 314 1030 591 1030 c 4
 855 1030 1059 812 1081 551 c 5
 1085 474 l 5
 255 474 l 5
414 1397 m 0
 479 1397 532 1343 532 1278 c 0
 532 1211 479 1157 414 1157 c 0
 346 1157 293 1211 293 1278 c 0
 293 1343 346 1397 414 1397 c 0
773 1397 m 0
 837 1397 891 1343 891 1278 c 0
 891 1211 837 1157 773 1157 c 0
 705 1157 651 1211 651 1278 c 0
 651 1343 705 1397 773 1397 c 0
EndSplineSet
Validated: 1
EndChar

StartChar: egrave
Encoding: 232 232 200
Width: 1183
VWidth: 2822
Flags: W
HStem: -13 152<435.786 758.712> 474 148<273 908> 878 152<438.868 745.99> 1475 20G<79 377.805>
LayerCount: 2
Fore
SplineSet
79 1495 m 5
 361 1495 l 5
 645 1157 l 5
 461 1157 l 5
 79 1495 l 5
273 622 m 1
 908 622 l 1
 865 775 734 878 591 878 c 0
 450 878 320 775 273 622 c 1
255 474 m 1
 271 280 421 139 587 139 c 0
 716 139 835 205 914 338 c 1
 1050 265 l 1
 912 22 692 -13 587 -13 c 0
 309 -13 98 226 98 508 c 0
 98 788 314 1030 591 1030 c 0
 855 1030 1059 812 1081 551 c 1
 1085 474 l 1
 255 474 l 1
EndSplineSet
Validated: 1
EndChar

StartChar: iacute
Encoding: 237 237 201
Width: 436
VWidth: 2830
Flags: W
HStem: 0 21G<141 299> 1475 20G<271.899 566>
VStem: 141 158<0 1014>
LayerCount: 2
Fore
SplineSet
289 1495 m 5
 566 1495 l 5
 184 1157 l 5
 0 1157 l 5
 289 1495 l 5
299 0 m 1
 141 0 l 1
 141 1014 l 1
 299 1014 l 1
 299 0 l 1
EndSplineSet
Validated: 1
EndChar

StartChar: icircumflex
Encoding: 238 238 202
Width: 436
VWidth: 2830
Flags: W
HStem: 0 21G<141 299> 1475 20G<152.775 287.107>
VStem: 141 158<0 1014>
LayerCount: 2
Fore
SplineSet
299 0 m 5
 141 0 l 5
 141 1014 l 5
 299 1014 l 5
 299 0 l 5
171 1495 m 1
 269 1495 l 1
 575 1157 l 1
 356 1157 l 1
 220 1305 l 1
 83 1157 l 1
 -137 1157 l 1
 171 1495 l 1
EndSplineSet
Validated: 1
EndChar

StartChar: idieresis
Encoding: 239 239 203
Width: 436
VWidth: 2830
Flags: W
HStem: 0 21G<141 299> 1157 240<-51.593 131 307.084 489.677>
VStem: -79 237<1184.57 1369.59> 141 158<0 1014> 280 237<1184.57 1369.59>
LayerCount: 2
Fore
SplineSet
299 0 m 1xd0
 141 0 l 1
 141 1014 l 1
 299 1014 l 1
 299 0 l 1xd0
40 1397 m 0
 105 1397 158 1343 158 1278 c 0
 158 1211 105 1157 40 1157 c 0
 -25 1157 -79 1211 -79 1278 c 0xe0
 -79 1343 -25 1397 40 1397 c 0
399 1397 m 0
 463 1397 517 1343 517 1278 c 0
 517 1211 463 1157 399 1157 c 0
 333 1157 280 1211 280 1278 c 0xc8
 280 1343 333 1397 399 1397 c 0
EndSplineSet
Validated: 1
EndChar

StartChar: igrave
Encoding: 236 236 204
Width: 436
VWidth: 2830
Flags: W
HStem: 0 21G<141 299> 1475 20G<-218 80.8639>
VStem: 141 158<0 1014>
LayerCount: 2
Fore
SplineSet
-218 1495 m 5
 64 1495 l 5
 349 1157 l 5
 166 1157 l 5
 -218 1495 l 5
299 0 m 1
 141 0 l 1
 141 1014 l 1
 299 1014 l 1
 299 0 l 1
EndSplineSet
Validated: 1
EndChar

StartChar: ntilde
Encoding: 241 241 205
Width: 1078
VWidth: 2822
Flags: W
HStem: 0 21G<141 299 779 938> 880 150<492.024 709.432> 1139 166<579.836 699.328> 1251 157<384.146 502.481>
VStem: 141 158<0 649.226 820 1012.66> 250 133<1157 1248.75> 701 130<1311.16 1395> 779 159<0 800.737>
LayerCount: 2
Fore
SplineSet
273 1016 m 1xc9
 295 944 299 922 299 820 c 1
 369 925 491 1030 602 1030 c 0
 835 1030 938 833 938 620 c 2
 938 0 l 1
 779 0 l 1
 779 620 l 2
 779 730 743 880 598 880 c 0
 459 880 299 632 299 508 c 2
 299 0 l 1
 141 0 l 1
 141 716 l 2
 141 808 124 967 96 1016 c 1
 273 1016 l 1xc9
250 1194 m 2xd6
 250 1377 349 1408 414 1408 c 0xd6
 524 1408 626 1305 673 1305 c 0
 681 1305 701 1316 701 1361 c 2
 701 1395 l 1
 831 1395 l 1
 831 1352 l 2
 831 1198 765 1139 673 1139 c 0xe6
 566 1139 463 1251 414 1251 c 0
 393 1251 383 1235 383 1194 c 2
 383 1157 l 1
 250 1157 l 1
 250 1194 l 2xd6
EndSplineSet
Validated: 1
EndChar

StartChar: oacute
Encoding: 243 243 206
Width: 1282
VWidth: 2822
Flags: W
HStem: -13 150<464.086 829.697> 878 152<464.086 829.697> 1475 20G<668.195 967>
VStem: 98 160<339.708 675.993> 1034 152<339.708 675.993>
LayerCount: 2
Fore
SplineSet
685 1495 m 5
 967 1495 l 5
 585 1157 l 5
 401 1157 l 5
 685 1495 l 5
1186 508 m 0
 1186 220 942 -13 643 -13 c 0
 342 -13 98 220 98 508 c 0
 98 797 342 1030 643 1030 c 0
 942 1030 1186 797 1186 508 c 0
258 508 m 0
 258 302 430 137 645 137 c 0
 859 137 1034 302 1034 508 c 0
 1034 712 859 878 645 878 c 0
 430 878 258 712 258 508 c 0
EndSplineSet
Validated: 1
EndChar

StartChar: ocircumflex
Encoding: 244 244 207
Width: 1282
VWidth: 2822
Flags: W
HStem: -13 150<464.086 829.697> 878 152<464.086 829.697> 1475 20G<574.834 708.225>
VStem: 98 160<339.708 675.993> 1034 152<339.708 675.993>
LayerCount: 2
Fore
SplineSet
1186 508 m 0
 1186 220 942 -13 643 -13 c 0
 342 -13 98 220 98 508 c 0
 98 797 342 1030 643 1030 c 0
 942 1030 1186 797 1186 508 c 0
258 508 m 0
 258 302 430 137 645 137 c 0
 859 137 1034 302 1034 508 c 0
 1034 712 859 878 645 878 c 0
 430 878 258 712 258 508 c 0
593 1495 m 1
 690 1495 l 1
 998 1157 l 1
 779 1157 l 1
 643 1305 l 1
 506 1157 l 1
 286 1157 l 1
 593 1495 l 1
EndSplineSet
Validated: 1
EndChar

StartChar: odieresis
Encoding: 246 246 208
Width: 1282
VWidth: 2822
Flags: W
HStem: -13 150<464.086 829.697> 878 152<464.086 829.697> 1157 240<369.574 554 728.251 912.677>
VStem: 98 160<339.708 675.993> 342 239<1184.57 1369.59> 701 239<1184.57 1369.59> 1034 152<339.708 675.993>
LayerCount: 2
Fore
SplineSet
1186 508 m 0
 1186 220 942 -13 643 -13 c 0
 342 -13 98 220 98 508 c 0
 98 797 342 1030 643 1030 c 0
 942 1030 1186 797 1186 508 c 0
258 508 m 0
 258 302 430 137 645 137 c 0
 859 137 1034 302 1034 508 c 0
 1034 712 859 878 645 878 c 0
 430 878 258 712 258 508 c 0
463 1397 m 0
 528 1397 581 1343 581 1278 c 0
 581 1211 528 1157 463 1157 c 0
 396 1157 342 1211 342 1278 c 0
 342 1343 396 1397 463 1397 c 0
822 1397 m 0
 886 1397 940 1343 940 1278 c 0
 940 1211 886 1157 822 1157 c 0
 754 1157 701 1211 701 1278 c 0
 701 1343 754 1397 822 1397 c 0
EndSplineSet
Validated: 1
EndChar

StartChar: ograve
Encoding: 242 242 209
Width: 1282
VWidth: 2822
Flags: W
HStem: -13 150<464.086 829.697> 878 152<464.086 829.697> 1475 20G<211 507.805>
VStem: 98 160<339.708 675.993> 1034 152<339.708 675.993>
LayerCount: 2
Fore
SplineSet
211 1495 m 5
 491 1495 l 5
 775 1157 l 5
 593 1157 l 5
 211 1495 l 5
1186 508 m 0
 1186 220 942 -13 643 -13 c 0
 342 -13 98 220 98 508 c 0
 98 797 342 1030 643 1030 c 0
 942 1030 1186 797 1186 508 c 0
258 508 m 0
 258 302 430 137 645 137 c 0
 859 137 1034 302 1034 508 c 0
 1034 712 859 878 645 878 c 0
 430 878 258 712 258 508 c 0
EndSplineSet
Validated: 1
EndChar

StartChar: otilde
Encoding: 245 245 210
Width: 1282
VWidth: 2822
Flags: W
HStem: -13 150<464.086 829.697> 878 152<464.086 829.697> 1139 166<682.254 802.024> 1251 157<485.632 604.725>
VStem: 98 160<339.708 675.993> 352 131<1157 1248.75> 803 128<1311.16 1395> 1034 152<339.708 675.993>
LayerCount: 2
Fore
SplineSet
1186 508 m 0xcf
 1186 220 942 -13 643 -13 c 0
 342 -13 98 220 98 508 c 0
 98 797 342 1030 643 1030 c 0
 942 1030 1186 797 1186 508 c 0xcf
258 508 m 0
 258 302 430 137 645 137 c 0
 859 137 1034 302 1034 508 c 0
 1034 712 859 878 645 878 c 0
 430 878 258 712 258 508 c 0
352 1194 m 2
 352 1377 450 1408 517 1408 c 0xdf
 626 1408 728 1305 777 1305 c 0
 781 1305 803 1316 803 1361 c 2
 803 1395 l 1
 931 1395 l 1
 931 1352 l 2
 931 1198 867 1139 777 1139 c 0xef
 667 1139 566 1251 515 1251 c 0xdf
 497 1251 485 1235 483 1194 c 1
 483 1157 l 1
 352 1157 l 1
 352 1194 l 2
EndSplineSet
Validated: 1
EndChar

StartChar: scaron
Encoding: 353 353 211
Width: 906
VWidth: 2822
Flags: W
HStem: -17 151<329.296 588.072> 882 150<357.871 560.788>
VStem: 98 157<214.089 334.735> 177 159<701.361 858.066> 654 156<199.037 406.102>
LayerCount: 2
Fore
SplineSet
759 795 m 1xd8
 611 743 l 1
 600 777 l 1
 573 850 513 882 457 882 c 0
 387 882 336 837 336 771 c 0xd8
 336 609 810 643 810 309 c 0
 810 114 640 -17 453 -17 c 0
 293 -17 134 81 103 299 c 1
 98 333 l 1
 255 352 l 1xe8
 260 320 l 1
 278 186 365 134 455 134 c 0
 555 134 654 201 654 309 c 0
 654 526 177 466 177 771 c 0
 177 936 312 1032 457 1032 c 0
 551 1032 690 985 748 826 c 1
 759 795 l 1xd8
502 1068 m 1
 406 1068 l 1
 98 1406 l 1xe8
 318 1406 l 1
 455 1258 l 1
 591 1406 l 1
 810 1406 l 1
 502 1068 l 1
EndSplineSet
Validated: 1
EndChar

StartChar: uacute
Encoding: 250 250 212
Width: 1071
VWidth: 2817
Flags: W
HStem: -15 152<407.136 666.534> 1475 20G<615.077 914>
VStem: 143 159<246.941 1014> 775 158<248.133 1014>
LayerCount: 2
Fore
SplineSet
632 1495 m 5
 914 1495 l 5
 530 1157 l 5
 346 1157 l 5
 632 1495 l 5
143 1014 m 1
 302 1014 l 1
 302 396 l 2
 302 246 408 137 534 137 c 0
 662 137 775 246 775 396 c 2
 775 1014 l 1
 933 1014 l 1
 933 396 l 2
 933 173 761 -15 538 -15 c 0
 314 -15 143 173 143 396 c 2
 143 1014 l 1
EndSplineSet
Validated: 1
EndChar

StartChar: ucircumflex
Encoding: 251 251 213
Width: 1071
VWidth: 2817
Flags: W
HStem: -15 152<407.136 666.534> 1475 20G<468.893 605.107>
VStem: 143 159<246.941 1014> 775 158<248.133 1014>
LayerCount: 2
Fore
SplineSet
143 1014 m 1
 302 1014 l 1
 302 396 l 2
 302 246 408 137 534 137 c 0
 662 137 775 246 775 396 c 2
 775 1014 l 1
 933 1014 l 1
 933 396 l 2
 933 173 761 -15 538 -15 c 0
 314 -15 143 173 143 396 c 2
 143 1014 l 1
487 1495 m 1
 587 1495 l 1
 893 1157 l 1
 673 1157 l 1
 538 1305 l 1
 401 1157 l 1
 181 1157 l 1
 487 1495 l 1
EndSplineSet
Validated: 1
EndChar

StartChar: udieresis
Encoding: 252 252 214
Width: 1071
VWidth: 2817
Flags: W
HStem: -15 152<407.136 666.534> 1157 240<266.491 449.677 625 807.593>
VStem: 143 159<246.941 1014> 239 238<1184.57 1369.59> 598 237<1184.57 1369.59> 775 158<248.133 1014>
LayerCount: 2
Fore
SplineSet
143 1014 m 1xe4
 302 1014 l 1
 302 396 l 2
 302 246 408 137 534 137 c 0
 662 137 775 246 775 396 c 2
 775 1014 l 1
 933 1014 l 1
 933 396 l 2
 933 173 761 -15 538 -15 c 0
 314 -15 143 173 143 396 c 2
 143 1014 l 1xe4
359 1397 m 0
 423 1397 477 1343 477 1278 c 0
 477 1211 423 1157 359 1157 c 0
 293 1157 239 1211 239 1278 c 0xd0
 239 1343 293 1397 359 1397 c 0
716 1397 m 0
 781 1397 835 1343 835 1278 c 0
 835 1211 781 1157 716 1157 c 0
 651 1157 598 1211 598 1278 c 0xc8
 598 1343 651 1397 716 1397 c 0
EndSplineSet
Validated: 1
EndChar

StartChar: ugrave
Encoding: 249 249 215
Width: 1071
VWidth: 2817
Flags: W
HStem: -15 152<407.136 666.534> 1475 20G<116 415.805>
VStem: 143 159<246.941 1014> 775 158<248.133 1014>
LayerCount: 2
Fore
SplineSet
116 1495 m 5
 399 1495 l 5
 683 1157 l 5
 500 1157 l 5
 116 1495 l 5
143 1014 m 1
 302 1014 l 1
 302 396 l 2
 302 246 408 137 534 137 c 0
 662 137 775 246 775 396 c 2
 775 1014 l 1
 933 1014 l 1
 933 396 l 2
 933 173 761 -15 538 -15 c 0
 314 -15 143 173 143 396 c 2
 143 1014 l 1
EndSplineSet
Validated: 1
EndChar

StartChar: yacute
Encoding: 253 253 216
Width: 1006
VWidth: 2804
Flags: W
HStem: -487 21G<220 396.931> 996 20G<25 198.185 810.021 985> 1475 20G<579.195 878>
DStem2: 190 1016 25 1016 0.378193 -0.925727<0 839.555> 220 -487 389 -487 0.369685 0.929157<62.4767 558.757 781.037 1617.59>
LayerCount: 2
Fore
SplineSet
596 1495 m 5
 878 1495 l 5
 495 1157 l 5
 312 1157 l 5
 596 1495 l 5
25 1016 m 1
 190 1016 l 1
 508 239 l 1
 818 1016 l 1
 985 1016 l 1
 389 -487 l 1
 220 -487 l 1
 427 32 l 1
 25 1016 l 1
EndSplineSet
Validated: 1
EndChar

StartChar: ydieresis
Encoding: 255 255 217
Width: 1006
VWidth: 2804
Flags: W
HStem: -487 21G<220 396.931> 996 20G<25 198.185 810.021 985> 1173 239<232.814 418.103 591.407 775.832>
VStem: 205 241<1200.08 1384.83> 564 239<1200.08 1384.83>
DStem2: 190 1016 25 1016 0.378193 -0.925727<0 839.555> 220 -487 389 -487 0.369685 0.929157<62.4767 558.757 781.037 1617.59>
LayerCount: 2
Fore
SplineSet
25 1016 m 1
 190 1016 l 1
 508 239 l 1
 818 1016 l 1
 985 1016 l 1
 389 -487 l 1
 220 -487 l 1
 427 32 l 1
 25 1016 l 1
325 1412 m 0
 391 1412 446 1359 446 1292 c 0
 446 1226 391 1173 325 1173 c 0
 260 1173 205 1226 205 1292 c 0
 205 1359 260 1412 325 1412 c 0
683 1412 m 0
 750 1412 803 1359 803 1292 c 0
 803 1226 750 1173 683 1173 c 0
 618 1173 564 1226 564 1292 c 0
 564 1359 618 1412 683 1412 c 0
EndSplineSet
Validated: 1
EndChar

StartChar: zcaron
Encoding: 382 382 218
Width: 980
VWidth: 2822
Flags: W
HStem: 0 150<325 886> 865 151<186 662>
DStem2: 25 0 325 150 0.591928 0.805991<298.477 1074.24>
LayerCount: 2
Fore
SplineSet
186 1016 m 1
 961 1016 l 1
 325 150 l 1
 938 150 l 1
 886 0 l 1
 25 0 l 1
 662 865 l 1
 134 865 l 1
 186 1016 l 1
540 1068 m 1
 444 1068 l 1
 134 1406 l 1
 354 1406 l 1
 491 1258 l 1
 626 1406 l 1
 846 1406 l 1
 540 1068 l 1
EndSplineSet
Validated: 1
EndChar

StartChar: uni00AD
Encoding: 173 173 220
Width: 1089
VWidth: 2982
Flags: W
HStem: 427 162<114 978>
LayerCount: 2
Fore
SplineSet
978 589 m 1
 978 427 l 1
 114 427 l 1
 114 589 l 1
 978 589 l 1
EndSplineSet
Validated: 1
EndChar

StartChar: uni00B2
Encoding: 178 178 221
Width: 782
VWidth: 2982
Flags: W
HStem: 886 164<224 745> 1809 161<306.17 516.423>
VStem: 81 161<1574 1739.19> 581 169<1509.62 1742.02>
LayerCount: 2
Fore
SplineSet
745 886 m 1
 36 886 l 1
 36 967 l 2
 36 1327 581 1395 581 1610 c 0
 581 1726 500 1809 412 1809 c 0
 325 1809 242 1726 242 1610 c 2
 242 1574 l 1
 81 1574 l 1
 81 1610 l 2
 81 1802 226 1970 414 1970 c 0
 604 1970 750 1805 750 1612 c 0
 750 1312 325 1235 224 1050 c 1
 745 1050 l 1
 745 886 l 1
EndSplineSet
Validated: 1
EndChar

StartChar: uni00B3
Encoding: 179 179 222
Width: 782
VWidth: 2982
Flags: W
HStem: 875 157<267.886 509.561> 1414 162<356 493.88> 1807 160<296.423 485.561>
VStem: 38 161<1104.3 1260> 105 162<1647 1774.15> 517 154<1601.07 1775.37> 581 156<1102.89 1344.84>
LayerCount: 2
Fore
SplineSet
267 1647 m 1xec
 105 1647 l 1
 105 1683 l 2
 105 1840 231 1967 387 1967 c 0
 544 1967 671 1840 671 1683 c 0xec
 671 1614 645 1549 600 1500 c 1
 683 1437 737 1337 737 1224 c 0
 737 1032 579 875 387 875 c 0
 195 875 38 1032 38 1224 c 2
 38 1260 l 1
 199 1260 l 1
 199 1224 l 2
 199 1117 284 1032 391 1032 c 0
 497 1032 581 1117 581 1224 c 0xf2
 581 1330 497 1414 391 1414 c 2
 356 1414 l 1
 356 1576 l 1
 391 1576 l 2
 461 1576 517 1619 517 1683 c 0
 517 1751 461 1807 391 1807 c 0
 320 1807 267 1751 267 1683 c 2
 267 1647 l 1xec
EndSplineSet
Validated: 1
EndChar

StartChar: micro
Encoding: 181 181 223
Width: 1062
VWidth: 2982
Flags: W
HStem: -13 154<401.647 661.054>
VStem: 143 156<-422.608 69 249.268 1014> 767 158<254.477 1014>
LayerCount: 2
Fore
SplineSet
143 1014 m 1
 299 1014 l 1
 299 406 l 2
 299 252 406 141 530 141 c 0
 656 141 767 252 767 406 c 2
 767 1014 l 1
 925 1014 l 1
 925 406 l 2
 925 179 756 -13 534 -13 c 0
 446 -13 365 17 299 69 c 1
 299 -262 l 2
 299 -314 314 -363 333 -403 c 1
 349 -432 l 1
 213 -504 l 1
 197 -474 l 1
 161 -412 143 -340 143 -265 c 2
 143 1014 l 1
EndSplineSet
Validated: 1
EndChar

StartChar: uni00B9
Encoding: 185 185 224
Width: 782
VWidth: 2982
Flags: W
VStem: 383 157<889 1690>
LayerCount: 2
Fore
SplineSet
383 1690 m 1
 289 1627 l 1
 197 1762 l 1
 540 1997 l 1
 540 889 l 1
 383 889 l 1
 383 1690 l 1
EndSplineSet
Validated: 1
EndChar

StartChar: uni0E01
Encoding: 3585 3585 225
Width: 1183
VWidth: 2849
Flags: W
HStem: 0 21G<143 302 886 1043> 1057 152<402.882 738.34>
VStem: 143 159<0 688.76> 886 157<0 910.729>
LayerCount: 2
Fore
SplineSet
271 861 m 1
 440 765 l 1
 389 743 302 685 302 555 c 2
 302 0 l 1
 143 0 l 1
 143 555 l 2
 143 624 181 694 231 743 c 1
 101 810 l 1
 181 1147 438 1209 573 1209 c 0
 833 1209 1043 1006 1043 754 c 2
 1043 0 l 1
 886 0 l 1
 886 754 l 2
 886 947 732 1057 573 1057 c 0
 455 1057 325 998 271 861 c 1
EndSplineSet
Validated: 1
EndChar

StartChar: uni0E02
Encoding: 3586 3586 226
Width: 1228
VWidth: 2849
Flags: W
HStem: -15 152<452.689 777.648> 634 152<302 489.37> 1041 153<374 493>
VStem: 145 157<282.318 634> 493 158<788.677 1041> 929 156<287.836 1194>
LayerCount: 2
Fore
SplineSet
320 1041 m 1
 374 1194 l 1
 651 1194 l 1
 651 822 l 2
 651 718 562 634 455 634 c 2
 302 634 l 1
 302 438 l 2
 302 271 440 137 615 137 c 0
 790 137 929 271 929 438 c 2
 929 1194 l 1
 1085 1194 l 1
 1085 438 l 2
 1085 188 875 -15 615 -15 c 0
 356 -15 145 188 145 438 c 2
 145 786 l 1
 455 786 l 2
 477 786 493 801 493 822 c 2
 493 1041 l 1
 320 1041 l 1
EndSplineSet
Validated: 1
EndChar

StartChar: uni0E03
Encoding: 3587 3587 227
Width: 1228
VWidth: 2849
Flags: W
HStem: -13 152<451.406 775.771> 634 152<302 489.304> 1176 20G<495.783 649 927 1085>
VStem: 143 159<283.017 634> 491 158<790.089 933> 927 158<292.995 1196>
LayerCount: 2
Fore
SplineSet
414 1081 m 1
 513 1196 l 1
 649 1196 l 1
 649 824 l 2
 649 718 562 634 455 634 c 2
 302 634 l 1
 302 438 l 2
 302 273 440 139 613 139 c 0
 788 139 927 273 927 438 c 2
 927 1196 l 1
 1085 1196 l 1
 1085 438 l 2
 1085 188 873 -13 613 -13 c 0
 354 -13 143 188 143 438 c 2
 143 786 l 1
 455 786 l 2
 474 786 491 803 491 824 c 2
 491 933 l 1
 383 810 l 1
 342 949 278 1025 158 1088 c 1
 235 1222 l 1
 316 1179 359 1149 414 1081 c 1
EndSplineSet
Validated: 1
EndChar

StartChar: uni0E04
Encoding: 3588 3588 228
Width: 1224
VWidth: 2849
Flags: W
HStem: 0 21G<143 302 927 1085> 521 152<302 611> 1057 152<451.807 775.771>
VStem: 143 159<0 521 673 910.729> 927 158<0 905.113>
LayerCount: 2
Fore
SplineSet
662 673 m 1
 611 521 l 1
 302 521 l 1
 302 0 l 1
 143 0 l 1
 143 754 l 2
 143 1006 356 1209 613 1209 c 0
 873 1209 1085 1006 1085 754 c 2
 1085 0 l 1
 927 0 l 1
 927 754 l 2
 927 922 788 1057 613 1057 c 0
 440 1057 302 922 302 754 c 2
 302 673 l 1
 662 673 l 1
EndSplineSet
Validated: 1
EndChar

StartChar: uni0E05
Encoding: 3589 3589 229
Width: 1228
VWidth: 2849
Flags: W
HStem: 0 21G<145 302 929 1085> 521 152<302 609> 865 152<530.443 704.149> 1189 20G<801 850.667>
VStem: 145 157<0 521 673 952.176> 929 156<0 952.678>
LayerCount: 2
Fore
SplineSet
660 673 m 1
 609 521 l 1
 302 521 l 1
 302 0 l 1
 145 0 l 1
 145 786 l 2
 145 951 221 1089 352 1173 c 2
 414 1213 l 1
 457 1151 l 2
 517 1064 567 1017 617 1017 c 0
 664 1017 716 1058 775 1149 c 2
 814 1209 l 1
 880 1173 l 2
 1023 1095 1085 936 1085 786 c 2
 1085 0 l 1
 929 0 l 1
 929 786 l 2
 929 873 900 947 850 998 c 1
 790 929 712 865 615 865 c 0
 519 865 440 929 380 998 c 1
 331 947 302 873 302 786 c 2
 302 673 l 1
 660 673 l 1
EndSplineSet
Validated: 1
EndChar

StartChar: uni0E06
Encoding: 3590 3590 230
Width: 1224
VWidth: 2849
Flags: W
HStem: -13 152<568.448 838.604> 634 152<302 489.304> 1176 20G<495.783 649 927 1085>
VStem: 143 159<0 237 408.122 634> 491 158<790.089 933> 927 158<236.239 1196>
LayerCount: 2
Fore
SplineSet
158 1088 m 1
 235 1222 l 1
 316 1179 359 1149 414 1081 c 1
 513 1196 l 1
 649 1196 l 1
 649 824 l 2
 649 718 562 634 455 634 c 2
 302 634 l 1
 302 557 l 2
 302 380 542 139 703 139 c 0
 882 139 927 295 927 438 c 2
 927 1196 l 1
 1085 1196 l 1
 1085 438 l 2
 1085 197 972 -13 703 -13 c 0
 553 -13 406 103 302 237 c 1
 302 0 l 1
 143 0 l 1
 143 786 l 1
 455 786 l 2
 474 786 491 803 491 824 c 2
 491 933 l 1
 383 810 l 1
 333 967 278 1025 158 1088 c 1
EndSplineSet
Validated: 1
EndChar

StartChar: uni0E07
Encoding: 3591 3591 231
Width: 1224
VWidth: 2849
Flags: W
HStem: -15 152<451.807 775.771> 1041 153<579 775.018>
VStem: 143 159<282.318 846> 927 158<287.836 890.023>
LayerCount: 2
Fore
SplineSet
143 846 m 1
 302 897 l 1
 302 438 l 2
 302 271 440 137 613 137 c 0
 788 137 927 271 927 438 c 2
 927 741 l 2
 927 906 788 1041 613 1041 c 2
 579 1041 l 1
 579 1194 l 1
 613 1194 l 2
 873 1194 1085 989 1085 741 c 2
 1085 438 l 2
 1085 188 873 -15 613 -15 c 0
 356 -15 143 188 143 438 c 2
 143 846 l 1
EndSplineSet
Validated: 1
EndChar

StartChar: uni0E08
Encoding: 3592 3592 232
Width: 1177
VWidth: 2849
Flags: W
HStem: 0 21G<880 1036> 521 152<571 880> 1057 152<403.552 728.648>
VStem: 96 156<720 905.113> 880 156<0 521 673 905.113>
LayerCount: 2
Fore
SplineSet
517 521 m 1
 571 673 l 1
 880 673 l 1
 880 754 l 2
 880 922 741 1057 566 1057 c 0
 391 1057 252 922 252 754 c 2
 252 720 l 1
 96 720 l 1
 96 754 l 2
 96 1006 307 1209 566 1209 c 0
 826 1209 1036 1006 1036 754 c 2
 1036 0 l 1
 880 0 l 1
 880 521 l 1
 517 521 l 1
EndSplineSet
Validated: 1
EndChar

StartChar: uni0E09
Encoding: 3593 3593 233
Width: 1174
VWidth: 2849
Flags: W
HStem: -9 152<380.307 639.596> 502 152<90 154> 1057 152<401.552 726.648>
VStem: 94 156<754 905.113> 154 160<222.186 502> 878 156<0 220 404.82 905.113>
LayerCount: 2
Fore
SplineSet
36 502 m 1xec
 90 654 l 1
 314 654 l 1
 314 446 l 1xec
 316 203 389 143 506 143 c 0
 679 143 878 391 878 557 c 2
 878 754 l 2
 878 922 739 1057 564 1057 c 0
 389 1057 250 922 250 754 c 9
 94 754 l 17xf4
 94 1006 305 1209 564 1209 c 0
 824 1209 1034 1006 1034 754 c 2
 1034 0 l 1
 878 0 l 1
 878 220 l 1
 781 92 647 -9 508 -9 c 0
 226 -9 156 222 154 446 c 1
 154 502 l 1
 36 502 l 1xec
EndSplineSet
Validated: 1
EndChar

StartChar: uni0E0A
Encoding: 3594 3594 234
Width: 1224
VWidth: 2849
Flags: W
HStem: -15 152<451.807 775.771> 634 152<302 489.304> 822 152<649 893.114> 1041 153<372 491>
VStem: 143 159<282.318 634> 491 158<788.677 822 974 1041> 927 158<287.836 789.718 1003.32 1194>
LayerCount: 2
Fore
SplineSet
320 1041 m 1
 372 1194 l 1
 649 1194 l 1
 649 974 l 1
 801 974 l 2
 884 974 927 1038 927 1124 c 2
 927 1194 l 1
 1085 1194 l 1
 1085 1124 l 2
 1085 1032 1045 951 980 895 c 1
 1045 839 1085 756 1085 667 c 2
 1085 438 l 2
 1085 188 873 -15 613 -15 c 0
 356 -15 143 188 143 438 c 2
 143 786 l 1
 455 786 l 2
 474 786 491 801 491 822 c 2
 491 1041 l 1
 320 1041 l 1
801 822 m 2
 649 822 l 1
 649 718 562 634 455 634 c 2
 302 634 l 1
 302 438 l 2
 302 271 440 137 613 137 c 0
 788 137 927 271 927 438 c 2
 927 667 l 2
 927 726 902 822 801 822 c 2
EndSplineSet
Validated: 1
EndChar

StartChar: uni0E0B
Encoding: 3595 3595 235
Width: 1224
VWidth: 2849
Flags: W
HStem: -15 152<451.807 775.771> 634 152<302 489.304> 822 152<649 893.114> 1176 18G<495.783 649 927 1085>
VStem: 143 159<282.318 634> 927 158<287.836 789.718 1003.32 1194>
LayerCount: 2
Fore
SplineSet
801 822 m 2
 649 822 l 1
 649 718 562 634 455 634 c 2
 302 634 l 1
 302 438 l 2
 302 271 440 137 613 137 c 0
 788 137 927 271 927 438 c 2
 927 667 l 2
 927 726 902 822 801 822 c 2
158 1088 m 1
 235 1222 l 1
 316 1179 359 1149 414 1081 c 1
 513 1196 l 1
 649 1194 l 1
 649 974 l 1
 801 974 l 2
 884 974 927 1038 927 1124 c 2
 927 1194 l 1
 1085 1194 l 1
 1085 1124 l 2
 1085 1032 1045 951 980 895 c 1
 1045 839 1085 756 1085 667 c 2
 1085 438 l 2
 1085 188 873 -15 613 -15 c 0
 356 -15 143 188 143 438 c 2
 143 786 l 1
 455 786 l 2
 474 786 491 801 491 822 c 2
 491 933 l 1
 383 810 l 1
 340 955 278 1025 158 1088 c 1
EndSplineSet
Validated: 1
EndChar

StartChar: uni0E0C
Encoding: 3596 3596 236
Width: 1875
VWidth: 2849
Flags: W
HStem: -17 151<1261.07 1506.89> 0 152<302 380> 1057 152<403.231 738.463> 1174 20G<1580 1739>
VStem: 143 159<152 687.296> 886 159<0 192 382.938 910.729> 1580 159<217.421 1194>
LayerCount: 2
Fore
SplineSet
1045 555 m 2x6e
 1045 367 1231 134 1386 134 c 0
 1502 134 1580 199 1580 436 c 2
 1580 1194 l 1
 1739 1194 l 1
 1739 436 l 2
 1739 111 1594 -17 1386 -17 c 0x9e
 1256 -17 1137 69 1045 192 c 1
 1045 0 l 1
 886 0 l 1
 886 754 l 2
 886 947 732 1057 573 1057 c 0
 455 1057 325 998 271 861 c 1
 440 765 l 1
 389 743 302 685 302 555 c 2
 302 152 l 1
 432 152 l 1
 380 0 l 1
 143 0 l 1
 143 555 l 2
 143 624 181 694 233 743 c 1
 101 810 l 1
 184 1147 438 1209 573 1209 c 0
 833 1209 1045 1006 1045 754 c 2
 1045 555 l 2x6e
EndSplineSet
Validated: 1
EndChar

StartChar: uni0E0D
Encoding: 3597 3597 237
Width: 1884
VWidth: 2839
Flags: W
HStem: -325 150<1175.39 1454.59> -15 152<1176.56 1453.54> 0 152<302 380> 1057 152<403.231 738.351> 1174 20G<1585 1743>
VStem: 143 159<152 687.296> 886 159<273.657 910.729> 1585 158<-44.0312 96 273.657 1194>
LayerCount: 2
Fore
SplineSet
886 754 m 2xcf
 886 947 732 1057 573 1057 c 0
 455 1057 325 998 271 861 c 1
 440 765 l 1
 389 743 302 685 302 555 c 2
 302 152 l 1
 432 152 l 1
 380 0 l 1
 143 0 l 1
 143 555 l 2
 143 624 181 694 233 743 c 1
 101 810 l 1
 184 1147 438 1209 573 1209 c 0xb7
 833 1209 1043 1006 1045 754 c 1
 1045 438 l 2
 1045 267 1171 137 1316 137 c 0
 1459 137 1585 267 1585 438 c 2
 1585 1194 l 1
 1743 1194 l 1
 1743 130 l 2
 1743 -114 1560 -325 1316 -325 c 0
 1102 -325 996 -177 961 -128 c 1
 1097 -51 l 1
 1119 -81 1184 -175 1316 -175 c 0
 1448 -175 1583 -56 1583 96 c 1
 1515 25 1419 -15 1316 -15 c 0
 1072 -15 886 192 886 436 c 2
 886 754 l 2xcf
EndSplineSet
Validated: 1
Substitution2: "'ccmp' Pali-Sanskrit Descender Removal" uni0E0D.descless
Substitution2: "Thai Descender Removal Single Substitution" uni0E0D.descless
EndChar

StartChar: uni0E0E
Encoding: 3598 3598 238
Width: 1185
VWidth: 2835
Flags: W
HStem: -396 152<32 372> 0 152<81 143> 1057 152<403.231 738.463>
VStem: 143 159<152 687.296> 886 159<-228 910.729>
DStem2: 372 -244 423 -396 0.822192 0.56921<0 216.426>
AnchorPoint: "BelowBase" 1045 -425 basechar 0
LayerCount: 2
Fore
SplineSet
27 0 m 1
 81 152 l 1
 143 152 l 1
 143 555 l 2
 143 626 181 694 233 743 c 1
 101 810 l 1
 184 1147 438 1209 573 1209 c 0
 833 1209 1045 1006 1045 754 c 2
 1045 -396 l 1
 871 -396 l 1
 638 -248 l 1
 423 -396 l 1
 -22 -396 l 1
 32 -244 l 1
 372 -244 l 1
 632 -64 l 1
 886 -228 l 1
 886 754 l 2
 886 947 732 1057 573 1057 c 0
 455 1057 325 998 271 861 c 1
 440 765 l 1
 389 743 302 685 302 555 c 2
 302 0 l 1
 27 0 l 1
EndSplineSet
Validated: 1
EndChar

StartChar: uni0E0F
Encoding: 3599 3599 239
Width: 1185
VWidth: 2835
Flags: W
HStem: -425 21G<526.178 570.472> -399 153<32 166> 0 152<81 143> 1057 152<403.231 738.463>
VStem: 143 159<152 687.296> 886 159<-208 910.729>
AnchorPoint: "BelowBase" 1045 -425 basechar 0
LayerCount: 2
Fore
SplineSet
27 0 m 1
 81 152 l 1
 143 152 l 1
 143 555 l 2
 143 624 181 694 233 743 c 1
 101 810 l 1
 184 1144 438 1209 573 1209 c 0
 833 1209 1045 1006 1045 754 c 2
 1045 -399 l 1
 859 -399 l 1
 724 -262 l 1
 549 -425 l 1
 363 -262 l 1
 239 -399 l 1
 -22 -399 l 1
 32 -246 l 1
 166 -246 l 1
 344 -49 l 1
 542 -220 l 1
 724 -49 l 1
 886 -208 l 1
 886 754 l 2
 886 947 732 1057 573 1057 c 0
 455 1057 325 996 271 859 c 1
 440 765 l 1
 389 743 302 685 302 555 c 2
 302 0 l 1
 27 0 l 1
EndSplineSet
Validated: 1
EndChar

StartChar: uni0E10
Encoding: 3600 3600 240
Width: 1194
VWidth: 2835
Flags: W
HStem: -481 21G<534.267 578.739> -455 153<40 177> 0 21G<897 1055> 521 152<589 897> 1057 152<422.291 748.333>
VStem: 114 157<720 905.113> 897 158<-267 -145 0 521 673 908.187>
LayerCount: 2
Fore
SplineSet
734 -105 m 1
 900 -267 l 1
 900 -145 l 1
 839 -56 l 1
 1055 -56 l 1
 1055 -455 l 1
 871 -455 l 1
 732 -320 l 1
 557 -481 l 1
 374 -320 l 1
 248 -455 l 1
 -11 -455 l 1
 40 -302 l 1
 177 -302 l 1
 356 -105 l 1
 551 -275 l 1
 734 -105 l 1
534 521 m 1
 589 673 l 1
 897 673 l 1
 897 754 l 2
 897 922 759 1057 585 1057 c 0
 410 1057 271 922 271 754 c 2
 271 720 l 1
 114 720 l 1
 114 754 l 2
 114 1006 325 1209 585 1209 c 0
 681 1209 767 1179 842 1132 c 1
 963 1209 l 1
 1053 1083 l 1
 961 1025 l 1
 1021 951 1055 855 1055 754 c 2
 1055 0 l 1
 897 0 l 1
 897 521 l 1
 534 521 l 1
EndSplineSet
Validated: 1
Substitution2: "'ccmp' Pali-Sanskrit Descender Removal" uni0E10.descless
Substitution2: "Thai Descender Removal Single Substitution" uni0E10.descless
EndChar

StartChar: uni0E11
Encoding: 3601 3601 241
Width: 1224
VWidth: 2849
Flags: W
HStem: 0 21G<143 299 927 1083> 1057 139<759.06 913.529>
VStem: 143 156<0 576.952> 927 156<0 1051.23>
LayerCount: 2
Fore
SplineSet
20 1088 m 1
 96 1222 l 1
 177 1179 220 1149 275 1081 c 1
 374 1196 l 1
 510 1196 l 1
 510 1012 l 1
 613 1110 739 1209 848 1209 c 0
 1030 1209 1083 1106 1083 905 c 2
 1083 0 l 1
 927 0 l 1
 927 905 l 2
 927 1029 910 1057 848 1057 c 0
 771 1057 513 824 299 521 c 1
 299 0 l 1
 143 0 l 1
 143 557 l 2
 143 581 271 745 354 842 c 1
 354 936 l 1
 244 810 l 1
 203 947 139 1025 20 1088 c 1
EndSplineSet
Validated: 1
EndChar

StartChar: uni0E12
Encoding: 3602 3602 242
Width: 1948
VWidth: 2849
Flags: W
HStem: -13 152<393.456 613.265 1331.8 1582.05> 600 152<416 623.571> 865 151<565.295 733.011> 1176 20G<1652 1811>
VStem: 114 157<302.911 820.253> 687 157<216.764 530.977> 959 158<0 195 386.895 952.776> 1652 159<220.2 1196>
LayerCount: 2
Fore
SplineSet
363 600 m 1
 416 752 l 1
 524 752 l 2
 739 752 844 562 844 374 c 0
 844 228 773 -13 495 -13 c 0
 235 -13 114 280 114 564 c 0
 114 797 213 1050 412 1194 c 1
 440 1215 l 1
 461 1184 l 1
 549 1057 613 1016 651 1016 c 0
 690 1016 748 1057 835 1182 c 2
 855 1211 l 1
 884 1191 l 1
 1025 1100 1117 953 1117 797 c 2
 1117 557 l 2
 1117 372 1303 139 1455 139 c 0
 1574 139 1652 203 1652 438 c 2
 1652 1196 l 1
 1811 1196 l 1
 1811 438 l 2
 1811 114 1666 -13 1455 -13 c 0
 1327 -13 1209 72 1117 195 c 1
 1117 0 l 1
 959 0 l 1
 959 797 l 2
 959 875 933 942 884 994 c 1
 818 920 734 865 651 865 c 0
 560 865 479 922 416 994 c 1
 305 871 271 692 271 564 c 0
 271 329 361 139 495 139 c 0
 649 139 687 284 687 374 c 0
 687 497 626 600 524 600 c 2
 363 600 l 1
EndSplineSet
Validated: 1
EndChar

StartChar: uni0E13
Encoding: 3603 3603 243
Width: 1877
VWidth: 2849
Flags: W
HStem: -17 151<1113.72 1362.2> 0 152<299 378> 1057 152<402.496 738.34> 1174 20G<1578 1737>
VStem: 143 156<152 688.76> 886 157<217.421 910.729> 1578 159<0 192 382.058 1194>
LayerCount: 2
Fore
SplineSet
432 152 m 1x6e
 378 0 l 1
 143 0 l 1x6e
 143 555 l 2
 143 624 181 694 231 743 c 1
 101 810 l 1
 181 1144 438 1209 573 1209 c 0
 833 1209 1043 1006 1043 754 c 2
 1043 436 l 2
 1043 199 1121 134 1238 134 c 0xae
 1388 134 1578 365 1578 555 c 2
 1578 1194 l 1
 1737 1194 l 1
 1737 0 l 1
 1578 0 l 1x5e
 1578 192 l 1
 1489 69 1367 -17 1241 -17 c 0x8e
 1032 -17 886 111 886 436 c 2
 886 754 l 2
 886 947 732 1057 573 1057 c 0
 453 1057 325 996 271 859 c 1
 438 765 l 1
 389 743 299 685 299 555 c 2
 299 152 l 1
 432 152 l 1x6e
EndSplineSet
Validated: 1
EndChar

StartChar: uni0E14
Encoding: 3604 3604 244
Width: 1256
VWidth: 2849
Flags: W
HStem: -13 150<393.325 614.499> 600 152<416 623.571> 1057 152<479.735 803.538>
VStem: 114 157<302.227 804.424> 687 157<216.133 530.166> 959 158<0 900.207>
LayerCount: 2
Fore
SplineSet
363 600 m 1
 416 752 l 1
 524 752 l 2
 739 752 844 560 844 374 c 0
 844 168 728 -13 495 -13 c 0
 265 -13 114 226 114 564 c 0
 114 861 273 1209 640 1209 c 0
 900 1209 1117 1006 1117 754 c 2
 1117 0 l 1
 959 0 l 1
 959 754 l 2
 959 922 814 1057 640 1057 c 0
 389 1057 271 803 271 564 c 0
 271 325 361 137 495 137 c 0
 622 137 687 242 687 374 c 0
 687 495 626 600 524 600 c 2
 363 600 l 1
EndSplineSet
Validated: 1
EndChar

StartChar: uni0E15
Encoding: 3605 3605 245
Width: 1256
VWidth: 2849
Flags: W
HStem: -13 152<393.456 613.265> 598 154<416 625.136> 859 151<565.295 733.011> 1189 20G<415.652 453.125 841.207 884>
VStem: 114 157<302.911 817.177> 687 157<216.764 530.477> 959 158<0 945.987>
LayerCount: 2
Fore
SplineSet
363 598 m 1
 416 752 l 1
 524 752 l 2
 739 752 844 562 844 374 c 0
 844 228 773 -13 495 -13 c 0
 235 -13 114 280 114 564 c 0
 114 797 213 1043 412 1186 c 1
 440 1209 l 1
 461 1177 l 1
 549 1050 613 1010 651 1010 c 0
 690 1010 748 1053 835 1175 c 1
 855 1204 l 1
 884 1184 l 1
 1025 1092 1117 947 1117 790 c 2
 1117 0 l 1
 959 0 l 1
 959 790 l 2
 959 869 933 936 884 989 c 1
 818 914 734 859 651 859 c 0
 560 859 479 916 416 987 c 1
 305 865 271 692 271 564 c 0
 271 329 361 139 495 139 c 0
 649 139 687 284 687 374 c 0
 687 497 626 598 524 598 c 2
 363 598 l 1
EndSplineSet
Validated: 1
EndChar

StartChar: uni0E16
Encoding: 3606 3606 246
Width: 1185
VWidth: 2849
Flags: W
HStem: 0 152<302 380> 1057 152<403.231 738.463>
VStem: 143 159<152 687.296> 886 159<0 910.729>
LayerCount: 2
Fore
SplineSet
432 152 m 1
 380 0 l 1
 143 0 l 1
 143 555 l 2
 143 624 181 694 233 743 c 1
 101 810 l 1
 184 1147 438 1209 573 1209 c 0
 833 1209 1045 1006 1045 754 c 2
 1045 0 l 1
 886 0 l 1
 886 754 l 2
 886 947 732 1057 573 1057 c 0
 455 1057 325 998 271 861 c 1
 440 765 l 1
 389 743 302 685 302 555 c 2
 302 152 l 1
 432 152 l 1
EndSplineSet
Validated: 1
EndChar

StartChar: uni0E17
Encoding: 3607 3607 247
Width: 1228
VWidth: 2849
Flags: W
HStem: 0 21G<145 302 929 1085> 1057 152<572.256 837.253>
VStem: 145 157<0 776.875 959 1196> 929 156<0 953.648>
LayerCount: 2
Fore
SplineSet
145 0 m 1
 145 1196 l 1
 302 1196 l 1
 302 959 l 1
 406 1092 553 1209 703 1209 c 0
 974 1209 1085 998 1085 754 c 2
 1085 0 l 1
 929 0 l 1
 929 754 l 2
 929 897 884 1057 703 1057 c 0
 544 1057 302 814 302 636 c 2
 302 0 l 1
 145 0 l 1
EndSplineSet
Validated: 1
EndChar

StartChar: uni0E18
Encoding: 3608 3608 248
Width: 1228
VWidth: 2849
Flags: W
HStem: 0 152<302 776.772> 521 152<302 929> 1057 152<452.689 777.648>
VStem: 145 157<152 455 673 910.729> 929 156<303.443 521 754 905.113>
LayerCount: 2
Fore
SplineSet
145 0 m 1
 145 455 l 1
 302 455 l 1
 302 152 l 1
 615 152 l 2
 790 152 929 286 929 455 c 2
 929 521 l 1
 145 521 l 1
 145 754 l 2
 145 1006 356 1209 615 1209 c 0
 875 1209 1085 1006 1085 754 c 9
 929 754 l 17
 929 922 790 1057 615 1057 c 0
 440 1057 302 922 302 754 c 2
 302 673 l 1
 1085 673 l 1
 1085 455 l 2
 1085 203 875 0 615 0 c 2
 145 0 l 1
EndSplineSet
Validated: 1
EndChar

StartChar: uni0E19
Encoding: 3609 3609 249
Width: 1228
VWidth: 2849
Flags: W
HStem: -9 152<393.665 663.875> 1174 20G<145 302 929 1085>
VStem: 145 157<241.63 1194> 929 156<0 237 413.547 1194>
LayerCount: 2
Fore
SplineSet
145 1194 m 1
 302 1194 l 1
 302 446 l 2
 302 302 346 143 528 143 c 0
 701 143 929 391 929 557 c 2
 929 1194 l 1
 1085 1194 l 1
 1085 0 l 1
 929 0 l 1
 929 237 l 1
 824 105 673 -9 528 -9 c 0
 258 -9 145 201 145 446 c 2
 145 1194 l 1
EndSplineSet
Validated: 1
EndChar

StartChar: uni0E1A
Encoding: 3610 3610 250
Width: 1228
VWidth: 2849
Flags: W
HStem: -15 152<453.099 777.101> 1174 20G<145 305 925 1085>
VStem: 145 160<282.318 1194> 925 160<282.318 1194>
LayerCount: 2
Fore
SplineSet
145 1194 m 1
 305 1194 l 5
 305 438 l 2
 305 271 440 137 615 137 c 0
 790 137 925 271 925 438 c 2
 925 1194 l 1
 1085 1194 l 1
 1085 438 l 2
 1085 188 875 -15 615 -15 c 0
 356 -15 145 188 145 438 c 2
 145 1194 l 1
EndSplineSet
Validated: 1
EndChar

StartChar: uni0E1B
Encoding: 3611 3611 251
Width: 1228
VWidth: 2853
Flags: W
HStem: -15 152<453.099 777.101> 1174 20G<145 305>
VStem: 145 160<282.318 1194> 925 160<282.318 1476>
AnchorPoint: "AboveBase" 844 1271 basechar 0
LayerCount: 2
Fore
SplineSet
145 1194 m 1
 305 1194 l 1
 305 438 l 2
 305 271 440 137 615 137 c 0
 790 137 925 271 925 438 c 2
 925 1476 l 1
 1085 1476 l 1
 1085 438 l 2
 1085 188 875 -15 615 -15 c 0
 356 -15 145 188 145 438 c 2
 145 1194 l 1
EndSplineSet
Validated: 1
EndChar

StartChar: uni0E1C
Encoding: 3612 3612 252
Width: 1326
VWidth: 2849
Flags: W
HStem: -15 152<370.427 537.708 788.449 983.544> 1045 153<371.136 477>
VStem: 114 157<286.036 894.764> 587 156<188.429 1194> 1030 156<183.593 1194>
LayerCount: 2
Fore
SplineSet
587 1194 m 1
 743 1194 l 1
 743 354 l 2
 743 246 771 137 886 137 c 0
 1000 137 1030 246 1030 354 c 2
 1030 1194 l 1
 1186 1194 l 1
 1186 354 l 2
 1186 103 1053 -15 886 -15 c 0
 801 -15 720 36 662 114 c 1
 607 36 526 -15 440 -15 c 0
 244 -15 114 224 114 591 c 0
 114 953 244 1198 440 1198 c 2
 477 1198 l 1
 477 1045 l 1
 440 1045 l 2
 365 1045 271 884 271 591 c 0
 271 297 365 137 440 137 c 0
 564 137 587 275 587 354 c 2
 587 1194 l 1
EndSplineSet
Validated: 1
EndChar

StartChar: uni0E1D
Encoding: 3613 3613 253
Width: 1326
VWidth: 2853
Flags: W
HStem: -15 152<370.427 537.708 788.449 983.544> 1043 153<371.136 477>
VStem: 114 157<285.621 894.126> 587 156<187.871 1194> 1030 156<189.609 1476>
AnchorPoint: "AboveBase" 942 1271 basechar 0
LayerCount: 2
Fore
SplineSet
587 1194 m 1
 743 1194 l 1
 743 354 l 2
 743 246 771 137 886 137 c 0
 1000 137 1030 246 1030 354 c 2
 1030 1476 l 1
 1186 1476 l 1
 1186 354 l 2
 1186 101 1053 -15 886 -15 c 0
 801 -15 720 34 662 111 c 1
 607 34 526 -15 440 -15 c 0
 244 -15 114 224 114 591 c 0
 114 953 244 1196 440 1196 c 2
 477 1196 l 1
 477 1043 l 1
 440 1043 l 2
 365 1043 271 884 271 591 c 0
 271 295 365 137 440 137 c 0
 564 137 587 273 587 354 c 2
 587 1194 l 1
EndSplineSet
Validated: 1
EndChar

StartChar: uni0E1E
Encoding: 3614 3614 254
Width: 1365
VWidth: 2849
Flags: W
HStem: -15 152<347.779 553.08 811.696 1017.02> 1174 20G<143 302 604 763 1068 1224>
VStem: 143 159<189.609 1194> 604 159<191.024 1194> 1068 156<189.609 1194>
LayerCount: 2
Fore
SplineSet
143 1194 m 1
 302 1194 l 1
 302 354 l 2
 302 244 331 137 450 137 c 0
 579 137 604 269 604 354 c 2
 604 1194 l 1
 763 1194 l 1
 763 354 l 2
 763 248 795 137 916 137 c 0
 1036 137 1068 248 1068 354 c 2
 1068 1194 l 1
 1224 1194 l 1
 1224 354 l 2
 1224 101 1085 -15 916 -15 c 0
 828 -15 743 36 685 116 c 1
 624 36 542 -15 455 -15 c 0
 282 -15 143 101 143 354 c 2
 143 1194 l 1
EndSplineSet
Validated: 1
EndChar

StartChar: uni0E1F
Encoding: 3615 3615 255
Width: 1365
VWidth: 2853
Flags: W
HStem: -15 152<347.779 553.08 811.696 1017.02> 1174 20G<143 302 604 763>
VStem: 143 159<189.609 1194> 604 159<191.024 1194> 1068 156<189.609 1476>
AnchorPoint: "AboveBase" 980 1271 basechar 0
LayerCount: 2
Fore
SplineSet
143 1194 m 1
 302 1194 l 1
 302 354 l 2
 302 244 331 137 450 137 c 0
 579 137 604 269 604 354 c 2
 604 1194 l 1
 763 1194 l 1
 763 354 l 2
 763 248 795 137 916 137 c 0
 1036 137 1068 248 1068 354 c 2
 1068 1476 l 1
 1224 1476 l 1
 1224 354 l 2
 1224 101 1085 -15 916 -15 c 0
 828 -15 743 36 685 116 c 1
 624 36 542 -15 455 -15 c 0
 282 -15 143 101 143 354 c 2
 143 1194 l 1
EndSplineSet
Validated: 1
EndChar

StartChar: uni0E20
Encoding: 3616 3616 256
Width: 1183
VWidth: 2849
Flags: W
HStem: 0 152<69 143> 1057 152<402.321 737.184>
VStem: 143 156<152 688.76> 884 159<0 910.729>
LayerCount: 2
Fore
SplineSet
17 0 m 1
 69 152 l 1
 143 152 l 1
 143 555 l 2
 143 624 181 694 231 743 c 1
 98 810 l 1
 181 1147 438 1209 573 1209 c 0
 831 1209 1043 1006 1043 754 c 2
 1043 0 l 1
 884 0 l 1
 884 754 l 2
 884 947 730 1057 573 1057 c 0
 453 1057 325 998 269 861 c 1
 438 765 l 1
 387 743 299 685 299 555 c 2
 299 0 l 1
 17 0 l 1
EndSplineSet
Validated: 1
EndChar

StartChar: uni0E21
Encoding: 3617 3617 257
Width: 1224
VWidth: 2849
Flags: W
HStem: -15 152<571.834 838.604> 0 21G<143 302> 1174 20G<143 302 927 1085>
VStem: 143 159<0 235 407.774 1194> 927 158<235.815 1194>
LayerCount: 2
Fore
SplineSet
143 1194 m 1x78
 302 1194 l 1
 302 557 l 2
 302 380 542 137 703 137 c 0
 882 137 927 295 927 438 c 2
 927 1194 l 1
 1085 1194 l 1
 1085 438 l 2
 1085 197 972 -15 703 -15 c 0xb8
 553 -15 406 103 302 235 c 1
 302 0 l 1
 143 0 l 1
 143 1194 l 1x78
EndSplineSet
Validated: 1
EndChar

StartChar: uni0E22
Encoding: 3618 3618 258
Width: 1224
VWidth: 2849
Flags: W
HStem: -15 152<433.748 789.243> 667 141<427.414 638> 1041 153<453.383 649>
VStem: 130 161<270.862 544.608> 931 154<268.235 1194>
LayerCount: 2
Fore
SplineSet
694 808 m 1
 638 667 l 1
 615 667 l 2
 436 667 291 564 291 410 c 0
 291 246 438 137 618 137 c 0
 790 137 931 246 931 410 c 2
 931 1194 l 1
 1085 1194 l 1
 1085 410 l 2
 1085 156 871 -15 615 -15 c 0
 361 -15 130 148 130 410 c 0
 130 519 177 611 278 667 c 1
 143 667 l 1
 143 743 l 2
 143 994 356 1194 615 1194 c 2
 649 1194 l 1
 649 1041 l 1
 615 1041 l 2
 463 1041 338 944 309 808 c 1
 694 808 l 1
EndSplineSet
Validated: 1
EndChar

StartChar: uni0E23
Encoding: 3619 3619 259
Width: 1224
VWidth: 2849
Flags: W
HStem: 0 152<579 775.018> 521 152<302 927> 1057 152<451.807 775.771>
VStem: 143 159<673 910.729> 927 158<303.443 521 754 905.113>
LayerCount: 2
Fore
SplineSet
579 152 m 1
 613 152 l 2
 788 152 927 286 927 455 c 2
 927 521 l 1
 143 521 l 1
 143 754 l 2
 143 1006 356 1209 613 1209 c 0
 873 1209 1085 1006 1085 754 c 9
 927 754 l 17
 927 922 788 1057 613 1057 c 0
 440 1057 302 922 302 754 c 2
 302 673 l 1
 1085 673 l 1
 1085 455 l 2
 1085 203 873 0 613 0 c 2
 579 0 l 1
 579 152 l 1
EndSplineSet
Validated: 1
EndChar

StartChar: uni0E24
Encoding: 3620 3620 260
Width: 1183
VWidth: 2835
Flags: W
HStem: -430 21G<886 1043> 0 152<299 378> 1057 152<402.496 738.34>
VStem: 143 156<152 688.76> 886 157<-430 910.729>
LayerCount: 2
Fore
SplineSet
432 152 m 5
 378 0 l 5
 143 0 l 5
 143 555 l 6
 143 624 181 694 231 743 c 5
 101 810 l 5
 181 1144 438 1209 573 1209 c 4
 833 1209 1043 1006 1043 754 c 6
 1043 -430 l 5
 886 -430 l 5
 886 754 l 6
 886 947 732 1057 573 1057 c 4
 453 1057 325 996 271 859 c 5
 440 765 l 5
 389 743 299 685 299 555 c 6
 299 152 l 5
 432 152 l 5
EndSplineSet
Validated: 1
EndChar

StartChar: uni0E25
Encoding: 3621 3621 261
Width: 1224
VWidth: 2849
Flags: W
HStem: 0 152<452.429 649> 521 152<302 927> 1057 152<451.807 775.771>
VStem: 143 159<298.271 521 754 910.729> 927 158<0 521 673 905.113>
LayerCount: 2
Fore
SplineSet
649 152 m 1
 649 0 l 1
 613 0 l 2
 356 0 143 203 143 455 c 2
 143 673 l 1
 927 673 l 1
 927 754 l 2
 927 922 788 1057 613 1057 c 0
 440 1057 302 922 302 754 c 9
 143 754 l 17
 143 1006 356 1209 613 1209 c 0
 873 1209 1085 1006 1085 754 c 2
 1085 0 l 1
 927 0 l 1
 927 521 l 1
 302 521 l 1
 302 455 l 2
 302 286 440 152 613 152 c 2
 649 152 l 1
EndSplineSet
Validated: 1
EndChar

StartChar: uni0E26
Encoding: 3622 3622 262
Width: 1183
VWidth: 2835
Flags: W
HStem: -430 21G<884 1043> 0 152<69 143> 1057 152<402.321 737.184>
VStem: 143 156<152 688.76> 884 159<-430 910.729>
LayerCount: 2
Fore
SplineSet
17 0 m 1
 69 152 l 1
 143 152 l 1
 143 555 l 2
 143 624 181 694 231 743 c 1
 98 810 l 1
 181 1144 438 1209 573 1209 c 0
 831 1209 1043 1006 1043 754 c 2
 1043 -430 l 1
 884 -430 l 1
 884 754 l 2
 884 947 730 1057 573 1057 c 0
 453 1057 325 996 269 859 c 1
 438 765 l 1
 387 743 299 685 299 555 c 2
 299 0 l 1
 17 0 l 1
EndSplineSet
Validated: 1
EndChar

StartChar: uni0E27
Encoding: 3623 3623 263
Width: 1250
VWidth: 2849
Flags: W
HStem: -13 150<444.501 764.677> 1057 152<457.995 765.331>
VStem: 985 159<387.734 815.489>
LayerCount: 2
Fore
SplineSet
114 367 m 1
 265 427 l 1
 312 293 403 137 613 137 c 0
 803 137 985 331 985 600 c 0
 985 867 806 1057 613 1057 c 0
 477 1057 352 969 271 771 c 1
 124 826 l 1
 231 1094 419 1209 613 1209 c 0
 916 1209 1144 922 1144 598 c 0
 1144 271 916 -13 613 -13 c 0
 414 -13 213 90 114 367 c 1
EndSplineSet
Validated: 1
EndChar

StartChar: uni0E28
Encoding: 3624 3624 264
Width: 1224
VWidth: 2849
Flags: W
HStem: 0 21G<143 302 927 1085> 521 152<302 611> 1059 152<451.807 775.501>
VStem: 143 159<0 521 673 903.725> 927 158<0 905.617>
LayerCount: 2
Fore
SplineSet
662 673 m 1
 611 521 l 1
 302 521 l 1
 302 0 l 1
 143 0 l 1
 143 759 l 2
 143 1008 356 1211 613 1211 c 0
 714 1211 808 1182 882 1130 c 1
 1000 1220 l 1
 1110 1113 l 1
 996 1023 l 1
 1053 949 1085 855 1085 754 c 2
 1085 0 l 1
 927 0 l 1
 927 754 l 2
 927 922 788 1059 613 1059 c 0
 440 1059 302 922 302 754 c 2
 302 673 l 1
 662 673 l 1
EndSplineSet
Validated: 1
EndChar

StartChar: uni0E29
Encoding: 3625 3625 265
Width: 1221
VWidth: 2849
Flags: W
HStem: -15 152<449.703 773.794> 632 152<683 922 1083 1144> 1174 20G<141 299 922 1081>
VStem: 141 158<282.318 1194> 922 159<282.318 632 784 1194>
LayerCount: 2
Fore
SplineSet
526 822 m 1
 683 871 l 1
 683 784 l 1
 922 784 l 1
 922 1194 l 1
 1081 1194 l 1
 1081 784 l 1
 1198 784 l 1
 1144 632 l 1
 1083 632 l 1
 1083 438 l 2
 1083 188 873 -15 613 -15 c 0
 354 -15 141 188 141 438 c 2
 141 1194 l 1
 299 1194 l 1
 299 438 l 2
 299 271 436 137 611 137 c 0
 784 137 922 271 922 438 c 2
 922 632 l 1
 526 632 l 1
 526 822 l 1
EndSplineSet
Validated: 1
EndChar

StartChar: uni0E2A
Encoding: 3626 3626 266
Width: 1224
VWidth: 2849
Flags: W
HStem: 0 152<452.429 649> 521 152<302 927> 1057 154<451.807 777.582>
VStem: 143 159<298.271 521 759 914.154> 927 158<0 521 673 905.113>
LayerCount: 2
Fore
SplineSet
1000 1220 m 1
 1110 1113 l 1
 996 1023 l 1
 1053 947 1085 855 1085 754 c 2
 1085 0 l 1
 927 0 l 1
 927 521 l 1
 302 521 l 1
 302 455 l 2
 302 286 440 152 613 152 c 2
 649 152 l 1
 649 0 l 1
 613 0 l 2
 356 0 143 203 143 455 c 2
 143 673 l 1
 927 673 l 1
 927 754 l 2
 927 922 788 1057 613 1057 c 0
 440 1057 302 925 302 759 c 9
 143 759 l 17
 143 1008 356 1211 613 1211 c 0
 714 1211 808 1182 882 1130 c 1
 1000 1220 l 1
EndSplineSet
Validated: 1
EndChar

StartChar: uni0E2B
Encoding: 3627 3627 267
Width: 1224
VWidth: 2849
Flags: W
HStem: 0 21G<143 302 927 1085> 1085 126<899.463 936.252> 1176 20G<143 302>
VStem: 143 159<0 552.859 765 1196> 927 158<0 776.954>
LayerCount: 2
Fore
SplineSet
302 765 m 1xb8
 459 985 743 1173 916 1211 c 1
 1094 1085 l 1xd8
 1013 1085 860 1039 820 998 c 1
 989 944 1085 765 1085 575 c 2
 1085 0 l 1
 927 0 l 1
 927 575 l 2
 927 703 882 895 698 895 c 0
 571 895 302 573 302 406 c 2
 302 0 l 1
 143 0 l 1
 143 1196 l 1
 302 1196 l 1
 302 765 l 1xb8
EndSplineSet
Validated: 1
EndChar

StartChar: uni0E2C
Encoding: 3628 3628 268
Width: 1365
VWidth: 2853
Flags: W
HStem: -15 152<351.954 555.329 812.463 1017.02> 1041 153<763 1036.12>
VStem: 143 159<189.609 1194> 604 159<187.557 940> 1068 156<189.609 1009.58 1223.96 1390>
AnchorPoint: "AboveBase" 980 1271 basechar 0
LayerCount: 2
Fore
SplineSet
143 1194 m 1
 302 1194 l 1
 302 354 l 2
 302 248 331 137 455 137 c 0
 581 137 604 269 604 354 c 2
 604 940 l 1
 763 940 l 1
 763 354 l 2
 763 248 795 137 916 137 c 0
 1036 137 1068 248 1068 354 c 2
 1068 893 l 2
 1068 978 1025 1041 942 1041 c 2
 763 1041 l 1
 763 1194 l 1
 942 1194 l 2
 1025 1194 1068 1258 1068 1343 c 2
 1068 1390 l 1
 1224 1390 l 1
 1224 1343 l 2
 1224 1254 1186 1171 1121 1115 c 1
 1186 1059 1224 976 1224 886 c 2
 1224 354 l 2
 1224 101 1085 -15 916 -15 c 0
 824 -15 741 20 685 92 c 1
 626 20 546 -15 455 -15 c 0
 282 -15 143 101 143 354 c 2
 143 1194 l 1
EndSplineSet
Validated: 1
EndChar

StartChar: uni0E2D
Encoding: 3629 3629 269
Width: 1358
VWidth: 2849
Flags: W
HStem: -11 152<507.128 852.017> 521 152<275 673> 1055 152<491.799 852.825>
VStem: 130 152<767.133 832.916> 1083 166<394.051 800.894>
LayerCount: 2
Fore
SplineSet
732 673 m 1
 673 521 l 1
 275 521 l 1
 309 299 481 141 679 141 c 0
 895 141 1083 338 1083 598 c 0
 1083 855 897 1055 681 1055 c 0
 521 1055 352 978 282 730 c 1
 130 771 l 1
 226 1117 483 1207 681 1207 c 0
 1003 1207 1249 925 1249 598 c 0
 1249 269 1003 -11 681 -11 c 0
 361 -11 114 269 114 598 c 2
 114 673 l 1
 732 673 l 1
EndSplineSet
Validated: 1
EndChar

StartChar: uni0E2E
Encoding: 3630 3630 270
Width: 1358
VWidth: 2849
Flags: W
HStem: -11 152<507.128 845.239> 521 148<275 673> 1055 152<491.799 852.061>
VStem: 130 152<767.133 832.916> 1083 166<394.487 801.149>
LayerCount: 2
Back
SplineSet
668.881 613.064 m 1
 615.897 476.58 l 1
 252.058 476.58 l 1
 282.949 274.854 441.183 128.546 620.229 128.546 c 0
 818.465 128.546 992.19 310.315 992.19 546.186 c 0
 992.19 782.332 821.027 963.828 622.903 963.828 c 0
 476.715 963.828 321.438 895.015 257.43 667.941 c 1
 117.848 705.036 l 1
 207.85 1021.71 443.32 1103.04 622.903 1103.04 c 0
 717.775 1103.04 805.178 1075.04 880.193 1030.45 c 1
 974.496 1105.27 l 1
 1072.79 1006.54 l 1
 990.824 938.312 l 1
 1084.84 837.512 1142.05 696.522 1142.05 546.186 c 0
 1142.05 245.717 916.646 -10.6699 622.903 -10.6699 c 0
 329.158 -10.6699 103.762 245.717 103.762 546.186 c 2
 103.762 613.064 l 1
 668.881 613.064 l 1
EndSplineSet
Fore
SplineSet
732 669 m 1
 673 521 l 1
 275 521 l 1
 309 299 481 141 679 141 c 0
 895 141 1083 340 1083 598 c 0
 1083 855 897 1055 681 1055 c 0
 521 1055 352 978 282 730 c 1
 130 771 l 1
 226 1117 483 1207 681 1207 c 0
 784 1207 880 1175 963 1126 c 1
 1066 1209 l 1
 1173 1100 l 1
 1083 1025 l 1
 1186 916 1249 761 1249 598 c 0
 1249 269 1003 -11 681 -11 c 0
 361 -11 114 269 114 598 c 2
 114 669 l 1
 732 669 l 1
EndSplineSet
Validated: 1
EndChar

StartChar: uni0E2F
Encoding: 3631 3631 271
Width: 1143
VWidth: 2849
Flags: W
HStem: 0 21G<848 1006> 720 153<285.076 590.457> 1057 152<304.266 457>
VStem: 114 155<898.16 1019.66> 848 158<0 914 1097.51 1196>
LayerCount: 2
Fore
SplineSet
855 1196 m 1
 1006 1196 l 1
 1006 0 l 1
 848 0 l 1
 848 914 l 1
 752 822 604 720 423 720 c 0
 262 720 114 812 114 949 c 0
 114 1088 258 1209 421 1209 c 2
 457 1209 l 1
 457 1057 l 1
 421 1057 l 2
 329 1057 269 991 269 949 c 0
 269 897 369 873 421 873 c 0
 613 873 820 1066 855 1196 c 1
EndSplineSet
Validated: 1
EndChar

StartChar: uni0E30
Encoding: 3632 3632 272
Width: 650
VWidth: 2982
Flags: W
HStem: 83 161<305 530> 833 161<305 530>
VStem: 143 162<244 322 994 1070>
LayerCount: 2
Fore
SplineSet
585 994 m 1
 530 833 l 1
 143 833 l 1
 143 1070 l 1
 305 1124 l 1
 305 994 l 1
 585 994 l 1
585 244 m 1
 530 83 l 1
 143 83 l 1
 143 322 l 1
 305 376 l 1
 305 244 l 1
 585 244 l 1
EndSplineSet
Validated: 1
LCarets2: 1 0 
EndChar

StartChar: uni0E31
Encoding: 3633 3633 273
Width: 0
VWidth: 2982
Flags: W
HStem: 1314 162<-427 239>
VStem: -589 162<1476 1551>
AnchorPoint: "AboveMark" -224 1271 mark 0
AnchorPoint: "AboveMark" -224 1679 basemark 0
AnchorPoint: "AboveBase" -143 1271 mark 0
LayerCount: 2
Fore
SplineSet
346 1476 m 1
 239 1314 l 1
 -589 1314 l 1
 -589 1551 l 1
 -427 1605 l 1
 -427 1476 l 1
 346 1476 l 1
EndSplineSet
Validated: 1
LCarets2: 1 0 
EndChar

StartChar: uni0E32
Encoding: 3634 3634 274
Width: 906
VWidth: 2982
Flags: W
HStem: 0 21G<607 765> 1057 152<245.841 516.021>
VStem: 607 158<0 957.93>
LayerCount: 2
Fore
SplineSet
114 1100 m 1
 179 1149 273 1209 383 1209 c 0
 651 1209 765 998 765 754 c 2
 765 0 l 1
 607 0 l 1
 607 754 l 2
 607 897 562 1057 383 1057 c 0
 275 1057 171 961 114 914 c 1
 114 1100 l 1
EndSplineSet
Validated: 1
LCarets2: 1 0 
EndChar

StartChar: uni0E33
Encoding: 3635 3635 275
Width: 906
VWidth: 2982
Flags: W
HStem: 0 21G<607 765> 1057 152<245.841 516.021> 1254 109<-235.547 -128.56> 1471 109<-235.581 -128.564>
VStem: -352 115<1364.36 1469.46> -126 115<1364.25 1469.57> 607 158<0 957.93>
LayerCount: 2
Fore
SplineSet
114 1100 m 1
 179 1149 273 1209 383 1209 c 0
 651 1209 765 998 765 754 c 2
 765 0 l 1
 607 0 l 1
 607 754 l 2
 607 897 562 1057 383 1057 c 0
 275 1057 171 961 114 914 c 1
 114 1100 l 1
-11 1417 m 0
 -11 1327 -87 1254 -181 1254 c 0
 -273 1254 -352 1327 -352 1417 c 0
 -352 1506 -273 1580 -181 1580 c 0
 -87 1580 -11 1506 -11 1417 c 0
-237 1417 m 0
 -237 1392 -220 1363 -181 1363 c 0
 -154 1363 -126 1379 -126 1417 c 0
 -126 1442 -141 1471 -181 1471 c 0
 -208 1471 -237 1455 -237 1417 c 0
EndSplineSet
Validated: 1
MultipleSubs2: "Thai Sara Am Decomposition" uni0E4D uni0E32
Substitution2: "Thai Sara Am Lakkhang" uni0E32
LCarets2: 1 0 
EndChar

StartChar: uni0E34
Encoding: 3636 3636 276
Width: 0
VWidth: 2982
Flags: W
HStem: 1314 162<-980 -143>
AnchorPoint: "AboveMark" -224 1271 mark 0
AnchorPoint: "AboveMark" -224 1679 basemark 0
AnchorPoint: "AboveBase" -143 1271 mark 0
LayerCount: 2
Fore
SplineSet
-1088 1314 m 1
 -980 1476 l 1
 -143 1476 l 1
 -143 1314 l 1
 -1088 1314 l 1
EndSplineSet
Validated: 1
LCarets2: 1 0 
EndChar

StartChar: uni0E35
Encoding: 3637 3637 277
Width: 0
VWidth: 2982
Flags: W
HStem: 1314 277<-305 -143> 1314 162<-980 -305>
VStem: -305 162<1476 1591>
AnchorPoint: "AboveMark" -224 1271 mark 0
AnchorPoint: "AboveMark" -224 1679 basemark 0
AnchorPoint: "AboveBase" -143 1271 mark 0
LayerCount: 2
Fore
SplineSet
-305 1476 m 1x60
 -305 1591 l 1
 -143 1591 l 1
 -143 1314 l 1xa0
 -1088 1314 l 1
 -980 1476 l 1
 -305 1476 l 1x60
EndSplineSet
Validated: 1
LCarets2: 1 0 
EndChar

StartChar: uni0E36
Encoding: 3638 3638 278
Width: 0
VWidth: 2982
Flags: W
HStem: 1314 162<-978 -396> 1314 103<-287.531 -157.594> 1558 101<-287.417 -157.126>
VStem: -396 103<1477.75 1552.69> -152 101<1422.59 1552.94>
AnchorPoint: "AboveMark" -224 1271 mark 0
AnchorPoint: "AboveMark" -224 1679 basemark 0
AnchorPoint: "AboveBase" -143 1271 mark 0
LayerCount: 2
Fore
SplineSet
-293 1489 m 0x78
 -293 1448 -262 1417 -222 1417 c 0
 -184 1417 -152 1448 -152 1489 c 0
 -152 1527 -184 1558 -222 1558 c 0
 -262 1558 -293 1527 -293 1489 c 0x78
-51 1486 m 0
 -51 1392 -130 1314 -224 1314 c 2
 -1085 1314 l 1x78
 -978 1476 l 1
 -396 1476 l 1xb8
 -396 1486 l 2
 -396 1580 -318 1659 -224 1659 c 0
 -130 1659 -51 1580 -51 1486 c 0
EndSplineSet
Validated: 1
LCarets2: 1 0 
EndChar

StartChar: uni0E37
Encoding: 3639 3639 279
Width: 0
VWidth: 2982
Flags: W
HStem: 1314 277<-528 -367 -305 -143> 1314 162<-980 -528 -367 -305>
VStem: -528 161<1476 1591> -305 162<1476 1591>
AnchorPoint: "AboveMark" -336 1271 mark 0
AnchorPoint: "AboveMark" -336 1679 basemark 0
AnchorPoint: "AboveBase" -143 1271 mark 0
LayerCount: 2
Fore
SplineSet
-305 1476 m 1x70
 -305 1591 l 1
 -143 1591 l 1
 -143 1314 l 1xb0
 -1088 1314 l 1
 -980 1476 l 1
 -528 1476 l 1x70
 -528 1591 l 1
 -367 1591 l 1xb0
 -367 1476 l 1
 -305 1476 l 1x70
EndSplineSet
Validated: 1
LCarets2: 1 0 
EndChar

StartChar: uni0E38
Encoding: 3640 3640 280
Width: 0
VWidth: 2982
Flags: W
HStem: -250 160<-372 -305>
VStem: -305 162<-510 -250>
AnchorPoint: "BelowMark" -143 -67 mark 0
AnchorPoint: "BelowMark" -143 -536 basemark 0
AnchorPoint: "BelowBase" -143 -67 mark 0
LayerCount: 2
Fore
SplineSet
-425 -250 m 1
 -372 -90 l 1
 -143 -90 l 1
 -143 -510 l 1
 -305 -510 l 1
 -305 -250 l 1
 -425 -250 l 1
EndSplineSet
Validated: 1
Substitution2: "Thai Sara U Macron Reordering" macronbelowcmb
Substitution2: "Thai Sara U Phinthu Reordering" uni0E3A
Substitution2: "Thai Sara U Mai Ek Reordering" uni0E48.low
Substitution2: "Thai Sara U Mai Tho Reordering" uni0E49.low
Substitution2: "Thai Sara U Mai Tri Reordering" uni0E4A.low
Substitution2: "Thai Sara U Mai Chattawa Reordering" uni0E4B.low
Substitution2: "Thai Sara U Thanthakhat Reordering" uni0E4C.low
Substitution2: "Thai Sara U Nikhahit Reordering" uni0E4D
LCarets2: 1 0 
EndChar

StartChar: uni0E39
Encoding: 3641 3641 281
Width: 0
VWidth: 2982
Flags: W
HStem: -526 161<-501.786 -327.826>
VStem: -687 161<-340.773 -250> -305 162<-340.914 -90>
AnchorPoint: "BelowMark" -143 -67 mark 0
AnchorPoint: "BelowMark" -143 -536 basemark 0
AnchorPoint: "BelowBase" -143 -67 mark 0
LayerCount: 2
Fore
SplineSet
-781 -250 m 1
 -728 -90 l 1
 -526 -90 l 1
 -526 -252 l 2
 -526 -314 -474 -365 -414 -365 c 0
 -354 -365 -305 -314 -305 -252 c 2
 -305 -90 l 1
 -143 -90 l 1
 -143 -252 l 2
 -143 -406 -265 -526 -414 -526 c 0
 -566 -526 -687 -406 -687 -252 c 2
 -687 -250 l 1
 -781 -250 l 1
EndSplineSet
Validated: 1
Substitution2: "Thai Sara UU Macron Reordering" macronbelowcmb
Substitution2: "Thai Sara UU Phinthu Reordering" uni0E3A
Substitution2: "Thai Sara UU Mai Ek Reordering" uni0E48.low
Substitution2: "Thai Sara UU Mai Tho Reordering" uni0E49.low
Substitution2: "Thai Sara UU Mai Tri Reordering" uni0E4A.low
Substitution2: "Thai Sara UU Mai Chattawa Reordering" uni0E4B.low
Substitution2: "Thai Sara UU Thanthakhat Reordering" uni0E4C.low
Substitution2: "Thai Sara UU Nikhahit Reordering" uni0E4D
LCarets2: 1 0 
EndChar

StartChar: uni0E3A
Encoding: 3642 3642 282
Width: 0
VWidth: 2982
Flags: W
HStem: -293 221<-311.287 -136.074>
VStem: -333 219<-271.086 -93.713>
AnchorPoint: "BelowMark" -143 -67 mark 0
AnchorPoint: "BelowMark" -143 -319 basemark 0
AnchorPoint: "BelowBase" -143 -67 mark 0
LayerCount: 2
Fore
SplineSet
-224 -72 m 0
 -164 -72 -114 -121 -114 -181 c 0
 -114 -244 -164 -293 -224 -293 c 0
 -284 -293 -333 -244 -333 -181 c 0
 -333 -121 -284 -72 -224 -72 c 0
EndSplineSet
Validated: 1
Substitution2: "Thai Phinthu Macron Reordering" macronbelowcmb
Substitution2: "Thai Sara UU Phinthu Reordering" uni0E39
Substitution2: "Thai Sara U Phinthu Reordering" uni0E38
Substitution2: "Thai Phinthu Maitaikhu Reordering" uni0E47
Substitution2: "Thai Phinthu Mai Ek Reordering" uni0E48.low
Substitution2: "Thai Phinthu Mai Tho Reordering" uni0E49.low
Substitution2: "Thai Phinthu Mai Tri Reordering" uni0E4A.low
Substitution2: "Thai Phinthu Mai Chattawa Reordering" uni0E4B.low
Substitution2: "Thai Phinthu Thanthakhat Reordering" uni0E4C.low
Substitution2: "Thai Phinthu Nikhahit Reordering" uni0E4D
LCarets2: 1 0 
EndChar

StartChar: uni0E3F
Encoding: 3647 3647 283
Width: 1295
VWidth: 2877
Flags: W
HStem: 0 154<302 427 589 876.877> 750 152<302 427 589 824.268> 1339 154<302 427 589 820.473>
VStem: 143 159<154 750 902 1339> 427 162<-132 0 154 750 902 1339 1493 1623> 929 161<997.926 1237.73> 1041 159<311.736 596.209>
LayerCount: 2
Fore
SplineSet
681 1493 m 2xfa
 904 1493 1090 1325 1090 1117 c 0xfc
 1090 1006 1036 906 951 839 c 1
 1100 763 1200 620 1200 453 c 0
 1200 197 967 0 694 0 c 2
 589 0 l 1
 589 -132 l 1
 427 -132 l 1
 427 0 l 1
 143 0 l 1
 143 1493 l 1
 427 1493 l 1
 427 1623 l 1
 589 1623 l 1
 589 1493 l 1
 681 1493 l 2xfa
929 1117 m 2
 929 1119 l 2
 929 1231 822 1339 675 1339 c 2
 589 1339 l 1
 589 902 l 1
 675 902 l 2
 824 902 929 1006 929 1117 c 2
589 750 m 1
 589 154 l 1
 694 154 l 2
 893 154 1041 295 1041 453 c 0xfa
 1041 611 893 750 694 750 c 2
 589 750 l 1
427 902 m 1
 427 1339 l 1
 302 1339 l 1
 302 902 l 1
 427 902 l 1
427 750 m 1
 302 750 l 1
 302 154 l 1
 427 154 l 1
 427 750 l 1
EndSplineSet
Validated: 1
EndChar

StartChar: uni0E40
Encoding: 3648 3648 284
Width: 440
VWidth: 2849
Flags: W
HStem: 0 21G<143 302> 1176 20G<143 302>
VStem: 143 159<0 1196>
LayerCount: 2
Fore
SplineSet
302 0 m 1
 143 0 l 1
 143 1196 l 1
 302 1196 l 1
 302 0 l 1
EndSplineSet
Validated: 1
EndChar

StartChar: uni0E41
Encoding: 3649 3649 285
Width: 704
VWidth: 2849
Flags: W
HStem: 0 21G<143 302 408 564> 1176 20G<143 302 408 564>
VStem: 143 159<0 1196> 408 156<0 1196>
LayerCount: 2
Fore
SplineSet
302 0 m 1
 143 0 l 1
 143 1196 l 1
 302 1196 l 1
 302 0 l 1
564 0 m 1
 408 0 l 1
 408 1196 l 1
 564 1196 l 1
 564 0 l 1
EndSplineSet
Validated: 1
EndChar

StartChar: uni0E42
Encoding: 3650 3650 286
Width: 487
VWidth: 2862
Flags: W
HStem: 0 152<349 414> 1580 152<-32 101.459 252 654>
VStem: 190 159<152 1478.6>
LayerCount: 2
Fore
SplineSet
468 152 m 1
 414 0 l 1
 190 0 l 1
 190 1280 l 2
 190 1424 145 1580 -36 1580 c 2
 -83 1580 l 1
 -32 1732 l 1
 707 1732 l 1
 654 1580 l 1
 252 1580 l 1
 316 1502 349 1388 349 1280 c 2
 349 152 l 1
 468 152 l 1
EndSplineSet
Validated: 1
EndChar

StartChar: uni0E43
Encoding: 3651 3651 287
Width: 523
VWidth: 2862
Flags: W
HStem: 0 152<385 438> 1594 154<106.824 326.809>
VStem: -83 157<1455 1560.39> 226 159<152 1305.06> 367 159<1418.63 1553.2>
LayerCount: 2
Fore
SplineSet
493 152 m 1xf0
 438 0 l 1
 226 0 l 1
 226 1173 l 2xf0
 226 1390 367 1426 367 1489 c 0
 367 1518 309 1594 218 1594 c 0
 132 1594 74 1533 74 1493 c 0
 74 1471 77 1455 77 1455 c 1
 -83 1455 l 1
 -83 1493 l 2
 -83 1627 58 1748 215 1748 c 0
 376 1748 526 1623 526 1491 c 0xe8
 526 1337 385 1339 385 1175 c 2
 385 152 l 1
 493 152 l 1xf0
EndSplineSet
Validated: 1
EndChar

StartChar: uni0E44
Encoding: 3652 3652 288
Width: 489
VWidth: 2866
Flags: W
HStem: 0 152<349 410> 1583 152<224 297>
VStem: 192 157<152 1474.12>
LayerCount: 2
Fore
SplineSet
463 152 m 1
 410 0 l 1
 192 0 l 1
 192 1309 l 2
 192 1426 244 1515 297 1583 c 1
 224 1583 l 1
 105 1429 l 1
 -83 1596 l 1
 -83 1802 l 1
 92 1652 l 1
 150 1735 l 1
 517 1735 l 1
 519 1610 l 1
 436 1544 349 1464 349 1307 c 2
 349 152 l 1
 463 152 l 1
EndSplineSet
Validated: 1
EndChar

StartChar: uni0E45
Encoding: 3653 3653 289
Width: 906
VWidth: 2835
Flags: W
HStem: -440 21G<607 765> 1043 153<245.841 518.419>
VStem: 607 158<-440 945.625>
LayerCount: 2
Fore
SplineSet
114 1085 m 1
 179 1137 273 1196 383 1196 c 0
 651 1196 765 985 765 743 c 2
 765 -440 l 1
 607 -440 l 1
 607 743 l 2
 607 886 562 1043 383 1043 c 0
 275 1043 171 947 114 900 c 1
 114 1085 l 1
EndSplineSet
Validated: 1
EndChar

StartChar: uni0E46
Encoding: 3654 3654 290
Width: 1194
VWidth: 2835
Flags: W
HStem: -440 21G<897 1055> 534 153<309.792 530.55> 861 158<502.502 673.109> 1182 20G<344.6 406.294>
VStem: 114 153<729.635 975.394> 897 158<-440 942.402>
LayerCount: 2
Fore
SplineSet
524 701 m 1
 560 555 l 1
 506 542 477 534 421 534 c 0
 222 534 114 687 114 848 c 0
 114 976 184 1117 333 1177 c 1
 391 1202 l 1
 430 1151 l 1
 459 1106 524 1019 587 1019 c 0
 651 1019 714 1106 745 1151 c 1
 788 1218 l 1
 855 1171 l 1
 976 1088 1055 951 1055 799 c 2
 1055 -440 l 1
 897 -440 l 1
 897 795 l 2
 897 869 867 938 820 989 c 1
 756 918 681 861 585 861 c 0
 483 861 403 922 338 1000 c 1
 289 965 267 906 267 848 c 0
 267 765 314 687 419 687 c 0
 457 687 493 694 524 701 c 1
EndSplineSet
Validated: 1
EndChar

StartChar: uni0E47
Encoding: 3655 3655 291
Width: 0
VWidth: 2982
Flags: W
HStem: 1292 132<-420 -171.257> 1619 129<-830.244 -94>
VStem: -987 139<1462.68 1599.84>
DStem2: -579 1555 -571 1399 0.877585 -0.479421<81.8104 311.091>
AnchorPoint: "AboveMark" -571 1800 basemark 0
AnchorPoint: "AboveBase" -143 1271 mark 0
LayerCount: 2
Fore
SplineSet
-186 1446 m 1
 -126 1327 l 1
 -188 1307 -244 1292 -299 1292 c 0
 -344 1292 -388 1299 -432 1323 c 2
 -571 1399 l 1
 -705 1314 l 1
 -728 1314 l 2
 -848 1314 -987 1392 -987 1531 c 0
 -987 1670 -848 1748 -728 1748 c 2
 -40 1748 l 1
 -94 1619 l 1
 -732 1619 l 2
 -810 1619 -848 1574 -848 1531 c 0
 -848 1491 -814 1450 -752 1446 c 1
 -579 1555 l 1
 -363 1437 l 2
 -342 1425 -318 1424 -295 1424 c 0
 -262 1424 -226 1435 -186 1446 c 1
EndSplineSet
Validated: 1
Substitution2: "Thai Maitaikhu Macron Reordering" macronbelowcmb
Substitution2: "Thai Mark High Variant" uni0E47.high
Substitution2: "Thai Phinthu Maitaikhu Reordering" uni0E3A
EndChar

StartChar: uni0E48
Encoding: 3656 3656 292
Width: 0
VWidth: 2982
Flags: W
HStem: 1708 315<-305 -143>
VStem: -305 162<1708 2023>
AnchorPoint: "AboveMark" -224 2075 basemark 0
AnchorPoint: "AboveMark" -224 1679 mark 0
LayerCount: 2
Fore
SplineSet
-143 1708 m 1
 -305 1708 l 1
 -305 2023 l 1
 -143 2023 l 1
 -143 1708 l 1
EndSplineSet
Validated: 1
Substitution2: "Thai Mai Ek Macron Reordering" macronbelowcmb
Substitution2: "Thai Mai Ek Tilde Reordering" tildecomb
MultipleSubs2: "Thai Tone Nikhahit Attachment" uni0E4D uni0E48
Substitution2: "Thai Tone Low Variant" uni0E48.low
Substitution2: "Thai Sara U Mai Ek Reordering" uni0E38
Substitution2: "Thai Sara UU Mai Ek Reordering" uni0E39
Substitution2: "Thai Phinthu Mai Ek Reordering" uni0E3A
LCarets2: 1 0 
EndChar

StartChar: uni0E49
Encoding: 3657 3657 293
Width: 0
VWidth: 2982
Flags: W
HStem: 1708 161<-322 17> 1860 161<-566 -487.244>
AnchorPoint: "AboveMark" -224 2073 basemark 0
AnchorPoint: "AboveMark" -224 1679 mark 0
LayerCount: 2
Fore
SplineSet
-620 1860 m 1x40
 -566 2021 l 1
 -493 2021 l 2x40
 -369 2021 -322 1929 -322 1869 c 1
 72 1869 l 1
 17 1708 l 1
 -483 1708 l 1x80
 -483 1852 l 2
 -483 1860 -487 1858 -495 1860 c 1
 -620 1860 l 1x40
EndSplineSet
Validated: 1
Substitution2: "Thai Mai Tho Macron Reordering" macronbelowcmb
Substitution2: "Thai Mai Tho Tilde Reordering" tildecomb
MultipleSubs2: "Thai Tone Nikhahit Attachment" uni0E4D uni0E49
Substitution2: "Thai Tone Low Variant" uni0E49.low
Substitution2: "Thai Sara U Mai Tho Reordering" uni0E38
Substitution2: "Thai Sara UU Mai Tho Reordering" uni0E39
Substitution2: "Thai Phinthu Mai Tho Reordering" uni0E3A
EndChar

StartChar: uni0E4A
Encoding: 3658 3658 294
Width: 0
VWidth: 2982
Flags: W
HStem: 1708 161<-461.063 -385 105 359> 1927 162<-465.637 -313.957>
VStem: -628 162<1872.53 1924.81>
AnchorPoint: "AboveMark" -224 2113 basemark 0
AnchorPoint: "AboveMark" -224 1679 mark 0
LayerCount: 2
Fore
SplineSet
412 1869 m 1
 359 1708 l 1
 -56 1708 l 1
 -56 1862 l 1
 -252 1717 l 1
 -279 1806 -296 1927 -396 1927 c 0
 -453 1927 -466 1909 -466 1896 c 0
 -466 1884 -461 1871 -440 1871 c 2
 -385 1871 l 1
 -385 1711 l 1
 -440 1711 l 2
 -555 1711 -628 1802 -628 1896 c 0
 -628 1997 -549 2089 -401 2089 c 0
 -284 2089 -220 2025 -184 1967 c 1
 -54 2061 l 1
 105 2061 l 1
 105 1869 l 1
 412 1869 l 1
EndSplineSet
Validated: 1
Substitution2: "Thai Mai Tri Macron Reordering" macronbelowcmb
Substitution2: "Thai Mai Tri Tilde Reordering" tildecomb
MultipleSubs2: "Thai Tone Nikhahit Attachment" uni0E4D uni0E4A
Substitution2: "Thai Tone Low Variant" uni0E4A.low
Substitution2: "Thai Sara U Mai Tri Reordering" uni0E38
Substitution2: "Thai Sara UU Mai Tri Reordering" uni0E39
Substitution2: "Thai Phinthu Mai Tri Reordering" uni0E3A
EndChar

StartChar: uni0E4B
Encoding: 3659 3659 295
Width: 0
VWidth: 2982
Flags: W
HStem: 1798 161<-391 -305 -143 -56>
VStem: -305 162<1708 1798 1959 2048>
AnchorPoint: "AboveMark" -224 2100 basemark 0
AnchorPoint: "AboveMark" -224 1679 mark 0
LayerCount: 2
Fore
SplineSet
-391 1800 m 1
 -391 1954 l 1
 -305 1954 l 1
 -305 2048 l 1
 -143 2048 l 1
 -143 1959 l 1
 -56 1959 l 1
 -56 1798 l 1
 -143 1798 l 1
 -143 1708 l 1
 -305 1708 l 1
 -305 1800 l 1
 -391 1800 l 1
EndSplineSet
Validated: 1
Substitution2: "Thai Mai Chattawa Macron Reordering" macronbelowcmb
Substitution2: "Thai Mai Chattawa Tilde Reordering" tildecomb
MultipleSubs2: "Thai Tone Nikhahit Attachment" uni0E4D uni0E4B
Substitution2: "Thai Tone Low Variant" uni0E4B.low
Substitution2: "Thai Sara U Mai Chattawa Reordering" uni0E38
Substitution2: "Thai Sara UU Mai Chattawa Reordering" uni0E39
Substitution2: "Thai Phinthu Mai Chattawa Reordering" uni0E3A
EndChar

StartChar: uni0E4C
Encoding: 3660 3660 296
Width: 0
VWidth: 2982
Flags: W
HStem: 1818 160<-140.347 45>
VStem: -305 162<1708 1817.74>
AnchorPoint: "AboveMark" -224 2030 basemark 0
AnchorPoint: "AboveMark" -224 1679 mark 0
LayerCount: 2
Fore
SplineSet
98 1978 m 1
 45 1818 l 1
 -134 1818 l 1
 -143 1815 -143 1818 -143 1809 c 2
 -143 1708 l 1
 -305 1708 l 1
 -305 1809 l 2
 -305 1869 -271 1978 -134 1978 c 2
 98 1978 l 1
EndSplineSet
Validated: 1
Substitution2: "Thai Thanthakhat Macron Reordering" macronbelowcmb
MultipleSubs2: "Thai Tone Nikhahit Attachment" uni0E4D uni0E4C
Substitution2: "Thai Tone Low Variant" uni0E4C.low
Substitution2: "Thai Sara U Thanthakhat Reordering" uni0E38
Substitution2: "Thai Sara UU Thanthakhat Reordering" uni0E39
Substitution2: "Thai Phinthu Thanthakhat Reordering" uni0E3A
EndChar

StartChar: uni0E4D
Encoding: 3661 3661 297
Width: 0
VWidth: 2982
Flags: W
HStem: 1280 117<-276.851 -165.595> 1511 116<-276.667 -165.833>
VStem: -393 115<1398.06 1509.35> -164 117<1400.26 1509.19>
AnchorPoint: "AboveMark" -222 1679 basemark 0
AnchorPoint: "AboveBase" -85 1271 mark 0
LayerCount: 2
Fore
SplineSet
-47 1453 m 0
 -47 1359 -126 1280 -222 1280 c 0
 -316 1280 -393 1359 -393 1453 c 0
 -393 1549 -316 1627 -222 1627 c 0
 -126 1627 -47 1549 -47 1453 c 0
-278 1453 m 0
 -278 1426 -262 1397 -222 1397 c 0
 -195 1397 -164 1412 -164 1453 c 0
 -164 1480 -181 1511 -222 1511 c 0
 -248 1511 -278 1493 -278 1453 c 0
EndSplineSet
Validated: 1
Substitution2: "Thai Mark High Variant" uni0E4D.high
Substitution2: "Thai Sara U Nikhahit Reordering" uni0E38
Substitution2: "Thai Sara UU Nikhahit Reordering" uni0E39
Substitution2: "Thai Phinthu Nikhahit Reordering" uni0E3A
LCarets2: 1 0 
EndChar

StartChar: uni0E4E
Encoding: 3662 3662 298
Width: 0
VWidth: 2982
Flags: W
HStem: 1424 140<-684.274 -500.42> 1755 146<-476.012 -369> 2104 145<-409.3 -71.7672>
VStem: -833 146<1578.21 1697.44> -637 147<1919.11 2036.54>
AnchorPoint: "AboveMark" -441 2301 basemark 0
AnchorPoint: "AboveBase" -143 1271 mark 0
LayerCount: 2
Fore
SplineSet
-228 1901 m 1
 -369 1755 l 1
 -412 1755 l 2
 -532 1755 -687 1726 -687 1614 c 0
 -687 1597 -639 1564 -587 1564 c 0
 -552 1564 -516 1579 -491 1621 c 1
 -365 1549 l 1
 -391 1506 -436 1424 -585 1424 c 0
 -712 1424 -833 1495 -833 1619 c 0
 -833 1784 -696 1849 -613 1876 c 1
 -629 1904 -637 1934 -637 1965 c 0
 -637 2103 -479 2249 -205 2249 c 0
 -143 2249 -96 2243 -49 2236 c 1
 -72 2091 l 1
 -114 2097 -154 2104 -208 2104 c 0
 -373 2104 -490 2031 -490 1972 c 0
 -490 1940 -456 1912 -376 1901 c 1
 -228 1901 l 1
EndSplineSet
Validated: 1
Substitution2: "Thai Mark High Variant" uni0E4E.high
EndChar

StartChar: uni0E4F
Encoding: 3663 3663 299
Width: 1519
VWidth: 2982
Flags: W
HStem: -47 163<563.935 955.635> 250 164<641.944 879.855> 786 163<641.944 879.855> 1083 164<563.935 955.635>
VStem: 114 161<404.15 795.948> 412 163<480.876 718.855> 947 163<481.083 718.855> 1243 165<404.15 795.948>
LayerCount: 2
Fore
SplineSet
1408 600 m 0
 1408 242 1119 -47 761 -47 c 0
 403 -47 114 242 114 600 c 0
 114 959 403 1247 761 1247 c 0
 1119 1247 1408 959 1408 600 c 0
275 600 m 0
 275 333 491 116 759 116 c 0
 1025 116 1243 333 1243 600 c 0
 1243 867 1025 1083 759 1083 c 0
 491 1083 275 867 275 600 c 0
761 949 m 0
 953 949 1110 792 1110 600 c 0
 1110 408 953 250 761 250 c 0
 568 250 412 408 412 600 c 0
 412 792 568 949 761 949 c 0
761 786 m 0
 659 786 575 702 575 600 c 0
 575 497 659 414 761 414 c 0
 863 414 947 498 947 600 c 0
 947 702 863 786 761 786 c 0
EndSplineSet
Validated: 1
EndChar

StartChar: uni0E50
Encoding: 3664 3664 300
Width: 1311
VWidth: 2982
Flags: W
HStem: -15 160<456.357 874.777> 912 160<456.357 874.777>
VStem: 51 162<364.222 692.324> 1119 161<364.222 692.324>
LayerCount: 2
Fore
SplineSet
1280 528 m 0
 1280 218 998 -15 665 -15 c 0
 333 -15 51 218 51 528 c 0
 51 839 333 1072 665 1072 c 0
 998 1072 1280 839 1280 528 c 0
213 528 m 0
 213 325 408 145 665 145 c 0
 925 145 1119 325 1119 528 c 0
 1119 732 925 912 665 912 c 0
 408 912 213 732 213 528 c 0
EndSplineSet
Validated: 1
EndChar

StartChar: uni0E51
Encoding: 3665 3665 301
Width: 1311
VWidth: 2982
Flags: W
HStem: -126 160<620 849.076> 96 162<345.781 672.048> 912 160<456.357 873.316>
VStem: 51 162<381.688 692.324> 1119 161<310.152 690.322>
LayerCount: 2
Fore
SplineSet
795 423 m 1
 925 327 l 1
 884 273 756 96 508 96 c 0
 271 96 51 269 51 528 c 0
 51 839 333 1072 665 1072 c 0
 994 1072 1280 842 1280 519 c 0
 1280 128 985 -126 654 -126 c 2
 615 -126 l 1
 620 34 l 1
 656 34 l 2
 897 34 1119 220 1119 519 c 0
 1119 739 922 912 665 912 c 0
 408 912 213 732 213 528 c 0
 213 365 349 258 508 258 c 0
 681 258 765 383 795 423 c 1
EndSplineSet
Validated: 1
EndChar

StartChar: uni0E52
Encoding: 3666 3666 302
Width: 1461
VWidth: 2982
Flags: W
HStem: 0 161<470.074 1087.36> 239 162<615.858 734> 912 156<614.98 773.653 1027.32 1188.49>
VStem: 164 161<318.279 1236.18> 387 162<471.411 837.102> 822 161<508 863.445> 1229 161<307.37 874.657>
LayerCount: 2
Fore
SplineSet
103 1245 m 1
 166 1392 l 1
 199 1379 l 2
 302 1338 325 1231 325 1083 c 2
 325 483 l 2
 325 299 459 161 607 161 c 2
 951 161 l 2
 1100 161 1229 299 1229 483 c 2
 1229 681 l 2
 1229 779 1211 912 1108 912 c 0
 1006 912 983 781 983 681 c 2
 983 508 l 1
 822 508 l 1
 822 679 l 2
 822 777 799 906 696 906 c 0
 607 906 549 795 549 654 c 0
 549 513 609 401 698 401 c 2
 734 401 l 1
 734 239 l 1
 698 239 l 2
 513 239 387 421 387 654 c 0
 387 891 510 1068 696 1068 c 0
 750 1068 835 1053 900 969 c 1
 938 1016 1003 1068 1108 1068 c 0
 1271 1068 1390 936 1390 679 c 2
 1390 481 l 2
 1390 222 1198 0 949 0 c 2
 602 0 l 2
 354 0 164 222 164 481 c 2
 164 1081 l 2
 164 1179 150 1221 134 1229 c 2
 103 1245 l 1
EndSplineSet
Validated: 1
EndChar

StartChar: uni0E53
Encoding: 3667 3667 303
Width: 1416
VWidth: 2982
Flags: W
HStem: 0 161<386.395 513> 912 160<383.148 588.394 862.935 1089.77>
VStem: 119 159<291.343 779.052> 645 161<0 853.896> 1147 160<0 847.474>
LayerCount: 2
Fore
SplineSet
645 681 m 2
 645 792 611 912 474 912 c 0
 356 912 278 739 278 528 c 0
 278 320 359 161 477 161 c 2
 513 161 l 1
 513 0 l 1
 477 0 l 2
 215 0 119 293 119 528 c 0
 119 759 213 1072 477 1072 c 0
 577 1072 667 1034 728 955 c 1
 790 1034 880 1072 978 1072 c 0
 1155 1072 1307 953 1307 681 c 2
 1307 0 l 1
 1147 0 l 1
 1147 681 l 2
 1147 792 1113 912 976 912 c 0
 839 912 806 792 806 681 c 2
 806 0 l 1
 645 0 l 1
 645 681 l 2
EndSplineSet
Validated: 1
EndChar

StartChar: uni0E54
Encoding: 3668 3668 304
Width: 1434
VWidth: 2982
Flags: W
HStem: -15 160<504.347 740.533> 27 159<924.27 1299.39> 463 161<834.215 991> 889 158<727.754 1214.45> 914 158<504.261 1063.08>
VStem: 107 160<378.068 705.025> 654 160<254.197 439.115> 1296 157<1130.28 1352>
LayerCount: 2
Fore
SplineSet
1408 109 m 1x67
 1339 -36 l 1
 1305 -20 l 1
 1243 13 1160 27 1074 27 c 0x67
 914 27 833 -15 698 -15 c 0
 361 -15 107 250 107 544 c 0
 107 850 393 1072 724 1072 c 0xaf
 895 1072 998 1047 1068 1047 c 0
 1213 1047 1296 1121 1296 1316 c 2
 1296 1352 l 1
 1453 1352 l 1
 1453 1316 l 2
 1453 983 1249 889 1066 889 c 0x37
 969 889 878 914 716 914 c 0
 457 914 267 745 267 546 c 0
 267 346 444 145 696 145 c 0xaf
 709 145 726 148 741 148 c 1
 685 213 654 286 654 361 c 0
 654 504 763 624 955 624 c 2
 991 624 l 1
 991 463 l 1
 955 463 l 2
 893 463 814 440 814 359 c 0
 814 305 855 226 965 179 c 1
 998 181 1034 186 1072 186 c 0
 1224 186 1320 150 1377 126 c 1
 1408 109 l 1x67
EndSplineSet
Validated: 1
EndChar

StartChar: uni0E55
Encoding: 3669 3669 305
Width: 1434
VWidth: 2982
Flags: W
HStem: -15 160<504.347 740.533> 27 159<924.27 1299.39> 463 161<834.215 991> 889 158<972.995 1214.45> 914 136<696.29 817.448> 1184 143<696.363 820.351>
VStem: 107 160<378.068 702.006> 534 158<1054.15 1179.01> 654 160<254.197 439.115> 826 157<1055.04 1179.25> 1296 157<1130.28 1352>
LayerCount: 2
Fore
SplineSet
692 1117 m 0x2f60
 692 1081 724 1050 759 1050 c 0
 797 1050 826 1081 826 1117 c 0
 826 1155 797 1184 759 1184 c 0
 724 1184 692 1155 692 1117 c 0x2f60
1408 109 m 1
 1339 -36 l 1
 1305 -20 l 1
 1243 13 1160 27 1074 27 c 0x66e0
 914 27 833 -15 698 -15 c 0
 361 -15 107 250 107 544 c 0
 107 797 299 987 546 1050 c 1xaee0
 538 1072 534 1094 534 1117 c 0
 534 1229 632 1327 759 1327 c 0
 878 1327 983 1241 983 1119 c 0
 983 1097 978 1074 972 1055 c 1
 1010 1050 1041 1047 1068 1047 c 0
 1213 1047 1296 1121 1296 1316 c 2
 1296 1352 l 1
 1453 1352 l 1
 1453 1316 l 2
 1453 983 1249 889 1066 889 c 0x3760
 978 889 871 914 716 914 c 0
 457 914 267 745 267 546 c 0
 267 346 444 145 696 145 c 0xaf60
 709 145 726 148 741 148 c 1
 685 213 654 286 654 361 c 0
 654 504 763 624 955 624 c 2
 991 624 l 1
 991 463 l 1
 955 463 l 2
 893 463 814 440 814 359 c 0
 814 305 855 226 965 179 c 1
 998 181 1034 186 1072 186 c 0x66e0
 1224 186 1320 150 1377 126 c 1
 1408 109 l 1
EndSplineSet
Validated: 1
EndChar

StartChar: uni0E56
Encoding: 3670 3670 306
Width: 1311
VWidth: 2982
Flags: W
HStem: -15 160<447.555 880.806> 468 156<334.144 495> 916 156<410.871 880.365> 1224 158<-106.448 -55.5046>
VStem: 145 162<259.514 438.719> 1126 162<364.222 692.71>
LayerCount: 2
Fore
SplineSet
-141 1224 m 1
 -103 1382 l 1
 109 1330 231 1132 282 983 c 1
 401 1043 553 1072 671 1072 c 0
 1003 1072 1288 839 1288 528 c 0
 1288 218 1003 -15 671 -15 c 0
 346 -15 145 164 145 359 c 0
 145 504 262 624 459 624 c 2
 495 624 l 1
 495 468 l 1
 459 468 l 2
 346 468 307 410 307 359 c 0
 307 284 399 145 671 145 c 0
 931 145 1126 325 1126 528 c 0
 1126 732 929 916 671 916 c 0
 363 916 203 759 154 690 c 1
 154 1142 -130 1221 -141 1224 c 1
EndSplineSet
Validated: 1
EndChar

StartChar: uni0E57
Encoding: 3671 3671 307
Width: 1523
VWidth: 2982
Flags: W
HStem: 0 161<353.861 474 857 958.685> 912 162<351.558 546.202 794.523 956.945>
VStem: 90 160<297.501 778.448> 591 161<391 865.164> 1041 166<276.543 794.033> 1290 160<302.859 1230.88>
LayerCount: 2
Fore
SplineSet
803 0 m 1
 857 161 l 1
 884 161 l 2
 978 161 1041 344 1041 538 c 0
 1041 730 978 912 884 912 c 0
 779 912 752 799 752 726 c 2
 752 391 l 1
 591 391 l 1
 591 724 l 2
 591 806 560 912 438 912 c 0
 327 912 250 737 250 538 c 0
 250 336 327 161 438 161 c 2
 474 161 l 1
 474 0 l 1
 438 0 l 2
 228 0 90 231 90 540 c 0
 90 848 228 1074 438 1074 c 0
 493 1074 596 1063 669 969 c 1
 709 1021 777 1074 886 1074 c 0
 1079 1074 1207 853 1207 540 c 0
 1207 387 1175 275 1141 199 c 1
 1243 248 1290 354 1290 540 c 2
 1290 1083 l 2
 1290 1242 1320 1340 1421 1379 c 2
 1455 1392 l 1
 1515 1243 l 1
 1482 1229 l 2
 1463 1221 1450 1177 1450 1083 c 2
 1450 540 l 2
 1450 107 1207 0 951 0 c 2
 803 0 l 1
EndSplineSet
Validated: 1
EndChar

StartChar: uni0E58
Encoding: 3672 3672 308
Width: 1434
VWidth: 2982
Flags: W
HStem: -15 160<932.796 1189.61> 886 161<732.664 1216.49> 912 160<508.603 1068.12>
VStem: 109 162<340.636 697.665> 1235 164<190.292 356> 1298 161<1136.87 1352>
LayerCount: 2
Fore
SplineSet
799 403 m 1xb4
 853 233 951 145 1045 145 c 0
 1191 145 1235 215 1235 320 c 2
 1235 356 l 1
 1399 356 l 1
 1399 320 l 2
 1399 98 1256 -15 1047 -15 c 0
 929 -15 818 54 737 164 c 1
 669 -17 l 1
 643 -17 l 1
 205 0 109 346 109 544 c 0
 109 850 396 1072 726 1072 c 0xb8
 897 1072 1003 1047 1072 1047 c 0
 1215 1047 1298 1121 1298 1316 c 2
 1298 1352 l 1
 1459 1352 l 1
 1459 1316 l 2
 1459 972 1245 886 1072 886 c 0xd4
 976 886 882 912 724 912 c 0
 463 912 271 743 271 544 c 0
 271 359 367 186 568 152 c 1
 665 403 l 1
 799 403 l 1xb4
EndSplineSet
Validated: 1
EndChar

StartChar: uni0E59
Encoding: 3673 3673 309
Width: 1376
VWidth: 2982
Flags: W
HStem: -11 161<370.306 619.948> 922 161<383.472 665.067 982.06 1121.72>
VStem: 56 162<333.05 735.19> 669 166<203.018 367> 998 162<15.1416 249.003> 1211 161<1037.1 1406.52>
LayerCount: 2
Fore
SplineSet
1160 17 m 1
 998 -4 l 1
 925 506 808 922 519 922 c 0
 380 922 218 777 218 546 c 0
 218 295 372 150 477 150 c 0
 658 150 669 258 669 367 c 1
 835 367 l 1
 835 158 765 -11 481 -11 c 0
 262 -11 56 244 56 546 c 0
 56 853 275 1083 519 1083 c 0
 643 1083 748 1041 835 951 c 1
 891 1045 969 1081 1041 1081 c 0
 1094 1081 1144 1061 1182 1032 c 1
 1204 1097 1211 1171 1211 1235 c 0
 1211 1305 1204 1367 1200 1406 c 1
 1359 1429 l 1
 1367 1356 1372 1292 1372 1235 c 0
 1372 976 1294 865 1184 737 c 1
 1166 848 1102 920 1045 920 c 0
 1006 920 976 886 944 801 c 1
 1021 662 1097 453 1160 17 c 1
EndSplineSet
Validated: 1
EndChar

StartChar: uni0E5A
Encoding: 3674 3674 310
Width: 1412
VWidth: 2982
Flags: W
HStem: 732 161<289.128 592.592> 1083 162<306.081 463>
VStem: 114 157<920.455 1047.23> 867 156<-36 933 1132.93 1229> 1110 161<-36 1229>
LayerCount: 2
Fore
SplineSet
1110 -36 m 1
 1110 1229 l 1
 1271 1229 l 1
 1271 -36 l 1
 1110 -36 l 1
463 1083 m 1
 280 1083 271 987 271 974 c 0
 271 918 374 893 427 893 c 0
 624 893 833 1092 871 1229 c 1
 1023 1229 l 1
 1023 -36 l 1
 867 -36 l 1
 867 933 l 1
 767 835 615 732 430 732 c 0
 265 732 114 828 114 974 c 0
 114 1034 154 1245 463 1245 c 1
 463 1083 l 1
EndSplineSet
Validated: 1
EndChar

StartChar: uni0E5B
Encoding: 3675 3675 311
Width: 2683
VWidth: 2982
Flags: W
HStem: -47 161<406.722 713.123> 349 136<501.629 630.818> 504 132<2348.59 2630.16> 553 161<2042.53 2372.49> 714 136<501.629 633.129> 1085 162<385.753 592.64>
VStem: 56 157<346.112 855.421> 349 134<500.227 699.302> 651 206<532.847 892.38> 949 157<968.03 1073.88>
LayerCount: 2
Fore
SplineSet
483 600 m 0xcfc0
 483 538 521 485 566 485 c 0
 613 485 651 538 651 600 c 0
 651 662 613 714 566 714 c 0
 521 714 483 662 483 600 c 0xcfc0
2677 611 m 0
 2677 537 2536 504 2489 504 c 0xe7c0
 2375 504 2290 553 2205 553 c 0xd7c0
 2097 553 2033 493 1995 493 c 0
 1948 493 1925 528 1918 544 c 1
 1869 378 l 2
 1855 330 1822 311 1794 311 c 0
 1762 311 1732 336 1719 374 c 2
 1666 526 l 1
 1607 302 l 2
 1593 250 1561 229 1531 229 c 0
 1497 229 1466 257 1455 299 c 2
 1390 544 l 1
 1320 220 l 2
 1308 163 1275 142 1247 142 c 0
 1212 142 1178 175 1166 218 c 2
 1083 515 l 1
 1025 195 875 -47 549 -47 c 0
 320 -47 56 175 56 589 c 0
 56 944 231 1247 493 1247 c 0
 712 1247 857 1047 857 771 c 0
 857 521 741 349 566 349 c 0
 434 349 349 472 349 600 c 0
 349 728 434 850 566 850 c 0xcfc0
 613 850 654 835 685 810 c 1
 675 969 602 1085 493 1085 c 0
 352 1085 213 882 213 589 c 0
 213 244 421 114 544 114 c 0
 750 114 949 248 949 914 c 2
 949 996 l 2
 949 1059 996 1083 1030 1083 c 0
 1074 1083 1100 1045 1106 1021 c 2
 1224 585 l 1
 1294 912 l 2
 1305 963 1341 983 1372 983 c 0
 1403 983 1438 962 1453 908 c 2
 1527 643 l 1
 1574 831 l 2
 1587 885 1622 903 1649 903 c 0
 1683 903 1713 871 1726 835 c 2
 1784 667 l 1
 1811 754 l 2
 1820 783 1833 837 1878 837 c 1
 1896 833 1914 838 1954 777 c 2
 2021 675 l 1
 2091 703 2151 714 2205 714 c 0xd7c0
 2326 714 2405 636 2489 636 c 0xe7c0
 2546 636 2599 656 2625 656 c 0
 2665 656 2677 629 2677 611 c 0
EndSplineSet
Validated: 1
EndChar

StartChar: Euro
Encoding: 8364 8364 313
Width: 1241
VWidth: 2982
Flags: W
HStem: -13 154<576.907 937.911> 502 154<54 124 314 1016> 844 152<54 124 314 1016> 1359 152<577.094 926.962>
VStem: 119 154<656 844>
LayerCount: 2
Fore
SplineSet
1130 1367 m 1
 1032 1243 l 1
 1006 1265 l 1
 929 1323 844 1359 754 1359 c 0
 568 1359 391 1215 314 996 c 1
 1070 996 l 1
 1016 844 l 1
 278 844 l 1
 275 812 273 781 273 750 c 0
 273 716 275 685 278 656 c 1
 1070 656 l 1
 1016 502 l 1
 314 502 l 1
 391 282 566 141 754 141 c 0
 846 141 931 171 1006 228 c 1
 1032 250 l 1
 1132 130 l 1
 1104 109 l 1
 994 25 875 -13 759 -13 c 0
 495 -13 246 184 154 502 c 1
 0 502 l 1
 54 656 l 1
 124 656 l 1
 121 685 119 716 119 750 c 0
 119 781 121 812 124 844 c 1
 0 844 l 1
 54 996 l 1
 154 996 l 1
 239 1290 470 1511 756 1511 c 0
 895 1511 1014 1457 1104 1388 c 1
 1130 1367 l 1
EndSplineSet
Validated: 1
EndChar

StartChar: uni25CC
Encoding: 9676 9676 314
Width: 1389
VWidth: 2982
Flags: W
HStem: -36 190<617.129 777.212> 114 191<260.137 418.964 946.129 1106.12> 440 194<142.137 299.705 1090.45 1248.71> 741 190<261.036 420.871 946.625 1108.33> 920 190<619.036 779.825>
VStem: 126 190<455.718 618.375> 244 190<128.788 288.547 757.295 914.863> 602 190<-20.8712 138.964 936.295 1093.86> 931 190<128.788 289.825 757.295 914.863> 1074 191<455.718 618.375>
LayerCount: 2
Fore
SplineSet
1027 305 m 0x6180
 1079 305 1121 262 1121 208 c 0
 1121 156 1079 114 1025 114 c 0
 974 114 931 156 931 208 c 0
 931 262 974 305 1027 305 c 0x6180
340 305 m 0
 391 305 434 262 434 208 c 0
 434 156 391 114 340 114 c 0
 286 114 244 156 244 208 c 0x63
 244 262 289 305 340 305 c 0
1027 931 m 0x3180
 1079 931 1124 889 1124 835 c 0
 1124 784 1079 741 1027 741 c 0
 976 741 931 784 931 835 c 0
 931 889 976 931 1027 931 c 0x3180
698 154 m 0xa1
 750 154 792 111 792 60 c 0
 792 7 750 -36 698 -36 c 0
 645 -36 602 7 602 60 c 0
 602 111 645 154 698 154 c 0xa1
340 931 m 0x31
 393 931 436 889 436 835 c 0
 436 784 393 741 340 741 c 0
 289 741 246 784 246 835 c 0
 246 889 289 931 340 931 c 0x31
222 634 m 0
 273 634 316 589 316 538 c 0
 316 485 273 440 222 440 c 0
 168 440 126 485 126 538 c 0x25
 126 589 168 634 222 634 c 0
698 1110 m 0x29
 752 1110 795 1068 795 1014 c 0
 795 963 752 920 698 920 c 0
 647 920 604 963 604 1014 c 0
 604 1068 647 1110 698 1110 c 0x29
1171 634 m 0
 1222 634 1265 589 1265 538 c 0
 1265 485 1222 440 1171 440 c 0
 1117 440 1074 485 1074 538 c 0x2140
 1074 589 1117 634 1171 634 c 0
EndSplineSet
Validated: 1
EndChar

StartChar: uni0E10.descless
Encoding: 63232 63232 315
Width: 1194
VWidth: 2982
Flags: W
HStem: 0 21G<897 1055> 521 152<589 897> 1057 152<422.291 748.333>
VStem: 114 157<754 905.113> 897 158<0 521 673 909.187>
LayerCount: 2
Fore
SplineSet
897 754 m 2
 897 922 759 1057 585 1057 c 0
 410 1057 271 922 271 754 c 9
 114 754 l 17
 114 1006 325 1209 585 1209 c 0
 681 1209 767 1182 842 1135 c 1
 963 1211 l 1
 1053 1083 l 1
 961 1027 l 1
 1021 951 1055 857 1055 754 c 2
 1055 0 l 1
 897 0 l 1
 897 521 l 1
 534 521 l 1
 589 673 l 1
 897 673 l 1
 897 754 l 2
EndSplineSet
Validated: 1
EndChar

StartChar: uni0E34.left
Encoding: 63233 63233 316
Width: 0
VWidth: 2982
Flags: W
HStem: 1314 162<-1241 -385>
LayerCount: 2
Fore
SplineSet
-385 1476 m 1
 -385 1314 l 1
 -1348 1314 l 1
 -1241 1476 l 1
 -385 1476 l 1
EndSplineSet
Validated: 1
EndChar

StartChar: uni0E35.left
Encoding: 63234 63234 317
Width: 0
VWidth: 2982
Flags: W
HStem: 1314 277<-546 -385> 1314 162<-1241 -546>
VStem: -546 161<1476 1591>
LayerCount: 2
Fore
SplineSet
-546 1476 m 5x60
 -546 1591 l 5
 -385 1591 l 5
 -385 1314 l 5xa0
 -1348 1314 l 5
 -1241 1476 l 5
 -546 1476 l 5x60
EndSplineSet
Validated: 1
EndChar

StartChar: uni0E36.left
Encoding: 63235 63235 318
Width: 0
VWidth: 2982
Flags: W
HStem: 1314 162<-1276 -694> 1314 103<-585.547 -458.341> 1558 101<-585.75 -454.647>
VStem: -696 105<1476.92 1552.94> -450 101<1422.59 1552.94>
LayerCount: 2
Fore
SplineSet
-591 1489 m 4x78
 -591 1448 -560 1417 -521 1417 c 4
 -481 1417 -450 1448 -450 1489 c 4
 -450 1527 -481 1558 -521 1558 c 4
 -560 1558 -591 1527 -591 1489 c 4x78
-349 1486 m 4
 -349 1392 -427 1314 -521 1314 c 6
 -1384 1314 l 5x78
 -1276 1476 l 5
 -694 1476 l 5xb8
 -696 1478 -696 1482 -696 1486 c 4
 -696 1580 -618 1659 -521 1659 c 4
 -427 1659 -349 1580 -349 1486 c 4
EndSplineSet
Validated: 1
EndChar

StartChar: uni0E37.left
Encoding: 63236 63236 319
Width: 0
VWidth: 2982
Flags: W
HStem: 1314 277<-741 -581 -546 -385> 1314 162<-1241 -741 -581 -546>
VStem: -741 160<1476 1591> -546 161<1476 1591>
LayerCount: 2
Fore
SplineSet
-741 1591 m 5xb0
 -581 1591 l 5xb0
 -581 1476 l 5
 -546 1476 l 5x70
 -546 1591 l 5
 -385 1591 l 5
 -385 1314 l 5xb0
 -1348 1314 l 5
 -1241 1476 l 5
 -741 1476 l 5x70
 -741 1591 l 5xb0
EndSplineSet
Validated: 1
EndChar

StartChar: uni0E48.low_left
Encoding: 63237 63237 320
Width: 0
VWidth: 2982
Flags: W
HStem: 1314 316<-636 -474>
VStem: -636 162<1314 1630>
LayerCount: 2
Fore
SplineSet
-474 1314 m 5
 -636 1314 l 5
 -636 1630 l 5
 -474 1630 l 5
 -474 1314 l 5
EndSplineSet
Validated: 1
EndChar

StartChar: uni0E49.low_left
Encoding: 63238 63238 321
Width: 0
VWidth: 2982
Flags: W
HStem: 1314 162<-809.808 -461> 1466 161<-1043 -963.295>
LayerCount: 2
Fore
SplineSet
-961 1457 m 2x80
 -961 1464 -961 1466 -969 1466 c 2
 -1097 1466 l 1
 -1043 1627 l 1
 -969 1627 l 2x40
 -846 1627 -806 1538 -801 1476 c 1
 -408 1476 l 1
 -461 1314 l 1
 -961 1314 l 1
 -961 1457 l 2x80
EndSplineSet
Validated: 1
EndChar

